<svg width="470" height="324" viewBox="0 0 470 324" fill="none" xmlns="http://www.w3.org/2000/svg">
<path d="M81.0703 72.8984V137.699H344.227C346.219 137.699 348.203 137.797 350.18 137.992C352.16 138.187 354.125 138.48 356.074 138.867C358.027 139.254 359.953 139.738 361.855 140.316C363.762 140.895 365.629 141.562 367.469 142.324C369.305 143.086 371.102 143.934 372.855 144.875C374.609 145.812 376.312 146.832 377.969 147.938C379.621 149.043 381.215 150.227 382.754 151.488C384.293 152.75 385.762 154.086 387.168 155.492C388.578 156.898 389.91 158.371 391.172 159.91C392.434 161.449 393.617 163.043 394.723 164.699C395.828 166.352 396.848 168.059 397.785 169.812C398.723 171.566 399.574 173.363 400.336 175.203C401.094 177.039 401.766 178.91 402.344 180.816C402.918 182.719 403.402 184.648 403.789 186.598C404.18 188.551 404.469 190.516 404.664 192.496C404.859 194.477 404.957 196.461 404.957 198.449C404.957 200.441 404.859 202.426 404.664 204.406C404.469 206.383 404.18 208.352 403.789 210.301C403.402 212.254 402.918 214.18 402.344 216.086C401.766 217.988 401.094 219.859 400.336 221.699C399.574 223.535 398.723 225.332 397.785 227.086C396.848 228.844 395.828 230.547 394.723 232.199C393.617 233.855 392.434 235.453 391.172 236.988C389.91 238.527 388.578 240 387.168 241.406C385.762 242.812 384.293 244.148 382.754 245.41C381.215 246.672 379.621 247.855 377.969 248.961C376.312 250.066 374.609 251.09 372.855 252.027C371.102 252.965 369.305 253.812 367.469 254.574C365.629 255.336 363.762 256.008 361.855 256.586C359.953 257.16 358.027 257.645 356.074 258.031C354.125 258.422 352.16 258.711 350.18 258.906C348.203 259.102 346.219 259.199 344.227 259.199H0.0976562V324H344.227C346.281 324 348.336 323.949 350.387 323.848C352.437 323.746 354.484 323.598 356.531 323.395C358.574 323.195 360.613 322.941 362.645 322.641C364.676 322.34 366.699 321.988 368.715 321.586C370.727 321.187 372.73 320.738 374.723 320.238C376.715 319.738 378.695 319.191 380.66 318.594C382.625 317.996 384.574 317.352 386.512 316.66C388.445 315.969 390.359 315.23 392.258 314.441C394.156 313.656 396.031 312.824 397.891 311.945C399.746 311.066 401.578 310.145 403.391 309.176C405.203 308.207 406.988 307.195 408.75 306.137C410.512 305.082 412.246 303.98 413.957 302.84C415.664 301.699 417.344 300.516 418.992 299.293C420.641 298.07 422.262 296.805 423.848 295.5C425.438 294.199 426.992 292.855 428.512 291.477C430.035 290.098 431.523 288.68 432.973 287.227C434.426 285.773 435.844 284.285 437.223 282.766C438.602 281.242 439.941 279.688 441.246 278.098C442.547 276.508 443.813 274.891 445.035 273.238C446.258 271.59 447.441 269.91 448.582 268.203C449.723 266.492 450.824 264.758 451.879 262.996C452.934 261.234 453.945 259.445 454.914 257.633C455.883 255.82 456.805 253.988 457.684 252.129C458.562 250.273 459.395 248.395 460.18 246.496C460.965 244.598 461.707 242.68 462.398 240.746C463.09 238.812 463.734 236.863 464.328 234.895C464.926 232.93 465.473 230.949 465.973 228.957C466.473 226.965 466.922 224.957 467.324 222.945C467.723 220.93 468.074 218.906 468.375 216.871C468.676 214.84 468.93 212.801 469.129 210.758C469.332 208.711 469.48 206.664 469.582 204.609C469.684 202.559 469.734 200.504 469.734 198.449C469.734 196.395 469.684 194.34 469.582 192.289C469.48 190.238 469.332 188.188 469.129 186.145C468.93 184.098 468.676 182.059 468.375 180.027C468.074 177.996 467.723 175.973 467.324 173.957C466.922 171.941 466.473 169.938 465.973 167.945C465.473 165.949 464.926 163.973 464.328 162.004C463.734 160.039 463.09 158.09 462.398 156.152C461.707 154.219 460.965 152.301 460.18 150.402C459.395 148.504 458.562 146.629 457.684 144.77C456.805 142.914 455.883 141.078 454.914 139.266C453.945 137.453 452.934 135.668 451.879 133.906C450.824 132.141 449.723 130.406 448.582 128.699C447.441 126.988 446.258 125.309 445.035 123.66C443.813 122.008 442.547 120.391 441.246 118.801C439.941 117.215 438.602 115.66 437.223 114.137C435.844 112.613 434.426 111.125 432.973 109.672C431.523 108.219 430.035 106.805 428.512 105.422C426.992 104.043 425.438 102.703 423.848 101.398C422.262 100.094 420.641 98.832 418.992 97.6055C417.344 96.3828 415.664 95.1992 413.957 94.0586C412.246 92.918 410.512 91.8203 408.75 90.7617C406.988 89.707 405.203 88.6953 403.391 87.7266C401.578 86.7578 399.746 85.832 397.891 84.9531C396.031 84.0742 394.156 83.2422 392.258 82.457C390.359 81.6719 388.445 80.9297 386.512 80.2383C384.574 79.5469 382.625 78.9023 380.66 78.3047C378.695 77.7109 376.715 77.1602 374.723 76.6641C372.73 76.1641 370.727 75.7148 368.715 75.3125C366.699 74.9102 364.676 74.5586 362.645 74.2578C360.613 73.957 358.574 73.707 356.531 73.5039C354.484 73.3047 352.437 73.1523 350.387 73.0508C348.336 72.9492 346.281 72.8984 344.227 72.8984H81.0703Z" fill="#1B9BCB"/>
<path d="M251.109 113.398V97.1992H267.305V113.398H251.109Z" fill="#1785AE"/>
<path d="M283.5 113.398V97.1992H299.695V113.398H283.5Z" fill="#1785AE"/>
<path d="M315.887 113.398V97.1992H332.082V113.398H315.887Z" fill="#1785AE"/>
<path d="M72.9727 97.1992H234.918V113.398H72.9727V97.1992Z" fill="#1785AE"/>
<path d="M145.848 40.5L105.363 0L40.5859 64.8008L0.0976562 105.301L40.5859 145.801L105.363 210.602L145.848 170.102L81.0703 105.301L145.848 40.5Z" fill="#2BACDB"/>
</svg>
