<svg width="324" height="325" viewBox="0 0 324 325" fill="none" xmlns="http://www.w3.org/2000/svg">
<path d="M92.793 256.617L68.3672 232.191L231.207 69.3477L255.633 93.7734L92.793 256.617Z" fill="white"/>
<path d="M68.3672 93.7734L92.793 69.3477L255.633 232.191L231.207 256.617L68.3672 93.7734Z" fill="white"/>
<path d="M162 11.0781C78.2383 11.0781 10.0938 79.2227 10.0938 162.984C10.0938 246.742 78.2383 314.887 162 314.887C245.762 314.887 313.906 246.742 313.906 162.984C313.906 79.2227 245.762 11.0781 162 11.0781ZM162 324.969C72.6797 324.969 0.0117188 252.301 0.0117188 162.984C0.0117188 73.6602 72.6797 0.992188 162 0.992188C251.32 0.992188 323.988 73.6602 323.988 162.984C323.988 252.301 251.32 324.969 162 324.969Z" fill="white"/>
</svg>
