<svg width="324" height="324" viewBox="0 0 324 324" fill="none" xmlns="http://www.w3.org/2000/svg">
<path d="M318.773 26.1289V167.227C318.773 178.781 309.426 188.129 297.871 188.129H245.613L207.051 226.691C204.949 228.793 202.133 229.934 199.215 229.934C193.09 229.934 188.129 224.977 188.129 218.852V188.129H146.324C134.77 188.129 125.418 178.781 125.418 167.227V26.1289C125.418 14.5742 134.77 5.22656 146.324 5.22656H297.871C309.426 5.22656 318.773 14.5742 318.773 26.1289Z" fill="#E6E9ED"/>
<path d="M219.484 156.773C225.219 156.773 229.934 161.469 229.934 167.227C229.934 172.98 225.219 177.676 219.484 177.676C213.746 177.676 209.031 172.98 209.031 167.227C209.031 161.469 213.746 156.773 219.484 156.773Z" fill="#FF826E"/>
<path d="M261.289 62.7109V78.3867C261.289 95.168 246.98 103.414 237.508 108.863C236.039 109.68 234.121 110.781 232.344 111.887C230.812 112.824 229.934 114.539 229.934 116.336V135.871H209.031V114.969C209.031 94.0664 240.387 88.8398 240.387 78.3867V62.7109C240.387 54.0352 233.387 47.0313 224.711 47.0313C220.363 47.0313 216.441 48.8086 213.625 51.625C210.809 54.4414 209.031 58.3633 209.031 62.7109V73.1602H188.129V63.9531C188.129 45.418 201.457 28.8047 219.914 26.4336C242.203 23.5781 261.289 40.9688 261.289 62.7109Z" fill="#FF826E"/>
<path d="M94.0664 141.098C99.8008 141.098 104.516 145.793 104.516 151.547C104.516 154.426 103.371 157.039 101.434 158.918C99.5547 160.855 96.9414 162 94.0664 162H52.2578C46.5 162 41.8047 157.305 41.8047 151.547C41.8047 148.672 42.9492 146.059 44.8906 144.18C46.7656 142.238 49.3789 141.098 52.2578 141.098H94.0664Z" fill="#FCD770"/>
<path d="M141.098 250.84C141.098 256.227 140.465 261.391 139.281 266.414C134.828 266.047 123.277 264.371 114.969 256.066C101.637 242.734 94.0664 235.16 78.3867 235.16C76.6094 235.16 74.8945 235.324 73.2617 235.59L73.1602 235.16C67.9336 224.711 57.75 219.484 47.0312 219.484C32.6016 219.484 20.9023 231.18 20.9023 245.613V250.84L21.3711 252.309C15.1055 254.086 9.51172 257.309 5.96094 260.617C5.49219 257.434 5.22656 254.187 5.22656 250.84C5.22656 220.629 24.9844 195.027 52.2578 186.191V162H94.0664V186.191C121.336 195.027 141.098 220.629 141.098 250.84Z" fill="#FFEAA7"/>
<path d="M47.0312 52.2578C61.4648 52.2578 73.1602 63.9531 73.1602 78.3867C73.1602 92.8203 61.4648 104.516 47.0312 104.516C32.6016 104.516 20.9023 92.8203 20.9023 78.3867C20.9023 63.9531 32.6016 52.2578 47.0312 52.2578Z" fill="#69D6F4"/>
<path d="M94.0664 99.2891C99.8008 99.2891 104.516 103.984 104.516 109.742C104.516 115.5 99.8008 120.195 94.0664 120.195C88.3281 120.195 83.6133 115.5 83.6133 109.742C83.6133 103.984 88.3281 99.2891 94.0664 99.2891Z" fill="#69D6F4"/>
<path d="M88.8398 20.9023C97.5156 20.9023 104.516 27.9062 104.516 36.582C104.516 45.2578 97.5156 52.2578 88.8398 52.2578C80.1641 52.2578 73.1602 45.2578 73.1602 36.582C73.1602 27.9062 80.1641 20.9023 88.8398 20.9023Z" fill="#69D6F4"/>
<path d="M78.3867 188.129C84.125 188.129 88.8398 192.824 88.8398 198.582C88.8398 204.336 84.125 209.031 78.3867 209.031C72.6523 209.031 67.9336 204.336 67.9336 198.582C67.9336 192.824 72.6523 188.129 78.3867 188.129Z" fill="#E6E9ED"/>
<path d="M73.2617 235.59V235.629C55.75 238.551 47.0312 256.066 47.0312 256.066L46.7656 256.535C43.2773 253.289 38.5625 250.84 31.3555 250.84C27.9648 250.84 24.6172 251.371 21.3711 252.309L20.9023 250.84V245.613C20.9023 231.18 32.6016 219.484 47.0312 219.484C57.75 219.484 67.9336 224.711 73.1602 235.16L73.2617 235.59Z" fill="#E6E9ED"/>
<path d="M46.7656 256.535L47.0312 256.066C47.0312 256.066 55.75 238.551 73.2617 235.629V235.59C74.8945 235.324 76.6094 235.16 78.3867 235.16C94.0664 235.16 101.637 242.734 114.969 256.066C123.277 264.371 134.828 266.047 139.281 266.414C132.258 296.402 105.312 318.773 73.1602 318.773C38.9883 318.773 10.6562 293.48 5.96094 260.617C9.51172 257.309 15.1055 254.086 21.3711 252.309C24.6172 251.371 27.9648 250.84 31.3555 250.84C38.5625 250.84 43.2773 253.289 46.7656 256.535Z" fill="#69D6F4"/>
<path d="M52.2578 146.324C49.3789 146.324 47.0312 148.672 47.0312 151.547C47.0312 154.426 49.3789 156.773 52.2578 156.773H94.0664C96.9414 156.773 99.2891 154.426 99.2891 151.547C99.2891 148.672 96.9414 146.324 94.0664 146.324H52.2578ZM94.0664 167.227H52.2578C43.6016 167.227 36.582 160.203 36.582 151.547C36.582 142.895 43.6016 135.871 52.2578 135.871H94.0664C102.719 135.871 109.742 142.895 109.742 151.547C109.742 160.203 102.719 167.227 94.0664 167.227Z" fill="black"/>
<path d="M73.1602 276.969H62.7109C55.6875 276.969 51.9297 271.66 48.6055 266.965C44.6445 261.371 40.8867 256.066 31.3555 256.066C22.4766 256.066 13.3516 260.555 8.92188 264.984L1.53125 257.594C7.30859 251.82 19.1055 245.613 31.3555 245.613C46.2969 245.613 52.8281 254.84 57.1367 260.941C59.5859 264.395 61.1602 266.516 62.7109 266.516H73.1602V276.969Z" fill="black"/>
<path d="M141.098 271.742C140.363 271.742 123.113 271.598 111.273 259.758C98.3711 246.859 91.9023 240.387 78.3867 240.387C61.0547 240.387 51.7891 258.227 51.707 258.41L42.3594 253.719C42.8477 252.758 54.5234 229.934 78.3867 229.934C96.2266 229.934 105.148 238.855 118.664 252.348C127.48 261.188 140.953 261.289 141.098 261.289V271.742Z" fill="black"/>
<path d="M26.1289 250.84H15.6758V245.613C15.6758 228.324 29.7422 214.258 47.0312 214.258C60.5039 214.258 72.0195 221.199 77.8359 232.812L68.4883 237.508C64.4844 229.488 56.4648 224.711 47.0312 224.711C35.5 224.711 26.1289 234.078 26.1289 245.613V250.84Z" fill="black"/>
<path d="M47.0312 57.4844C35.5 57.4844 26.1289 66.8555 26.1289 78.3867C26.1289 89.9219 35.5 99.2891 47.0312 99.2891C58.5664 99.2891 67.9336 89.9219 67.9336 78.3867C67.9336 66.8555 58.5664 57.4844 47.0312 57.4844ZM47.0312 109.742C29.7422 109.742 15.6758 95.6758 15.6758 78.3867C15.6758 61.0977 29.7422 47.0312 47.0312 47.0312C64.3242 47.0312 78.3867 61.0977 78.3867 78.3867C78.3867 95.6758 64.3242 109.742 47.0312 109.742Z" fill="black"/>
<path d="M47.0312 94.0664C38.3789 94.0664 31.3555 87.043 31.3555 78.3867H41.8047C41.8047 81.2656 44.1523 83.6133 47.0312 83.6133V94.0664Z" fill="black"/>
<path d="M88.8398 26.1289C83.082 26.1289 78.3867 30.8242 78.3867 36.582C78.3867 42.3359 83.082 47.0312 88.8398 47.0312C94.5937 47.0312 99.2891 42.3359 99.2891 36.582C99.2891 30.8242 94.5937 26.1289 88.8398 26.1289ZM88.8398 57.4844C77.3047 57.4844 67.9336 48.1133 67.9336 36.582C67.9336 25.0469 77.3047 15.6758 88.8398 15.6758C100.371 15.6758 109.742 25.0469 109.742 36.582C109.742 48.1133 100.371 57.4844 88.8398 57.4844Z" fill="black"/>
<path d="M214.258 130.645H224.711V116.316C224.711 112.68 226.527 109.375 229.59 107.477C231.363 106.352 233.344 105.211 234.855 104.352C243.816 99.1875 256.066 92.168 256.066 78.3867V62.7109C256.066 53.707 252.187 45.1328 245.387 39.1719C238.531 33.1289 229.672 30.457 220.566 31.6211C205.051 33.6211 193.355 47.5234 193.355 63.9766V67.9336H203.805V62.7109C203.805 51.1758 213.176 41.8047 224.711 41.8047C236.242 41.8047 245.613 51.1758 245.613 62.7109V78.3867C245.613 85.5742 238.773 89.9609 231.508 94.5742C223.035 99.9844 214.258 105.598 214.258 114.969V130.645ZM235.16 141.098H203.805V114.969C203.805 99.8633 216.586 91.7187 225.895 85.7578C229.078 83.7344 234.996 79.9375 235.16 78.3867V62.7109C235.16 56.9531 230.465 52.2578 224.711 52.2578C218.953 52.2578 214.258 56.9531 214.258 62.7109V78.3867H182.902V63.9766C182.902 42.2969 198.52 23.9258 219.219 21.25C231.18 19.6992 243.266 23.375 252.289 31.3125C261.332 39.2734 266.516 50.707 266.516 62.7109V78.3867C266.516 98.207 249.98 107.699 240.102 113.395C238.652 114.211 236.793 115.293 235.121 116.336L235.16 141.098Z" fill="black"/>
<path d="M219.484 162C216.605 162 214.258 164.348 214.258 167.227C214.258 170.105 216.605 172.453 219.484 172.453C222.363 172.453 224.711 170.105 224.711 167.227C224.711 164.348 222.363 162 219.484 162ZM219.484 182.902C210.828 182.902 203.805 175.883 203.805 167.227C203.805 158.57 210.828 151.547 219.484 151.547C228.141 151.547 235.16 158.57 235.16 167.227C235.16 175.883 228.141 182.902 219.484 182.902Z" fill="black"/>
<path d="M146.324 10.4531C137.668 10.4531 130.645 17.4727 130.645 26.1289V167.227C130.645 175.883 137.668 182.902 146.324 182.902H193.355V218.852C193.355 222.078 195.988 224.711 199.215 224.711C200.746 224.711 202.277 224.078 203.355 222.996L243.449 182.902H297.871C306.527 182.902 313.547 175.883 313.547 167.227V26.1289C313.547 17.4727 306.527 10.4531 297.871 10.4531H146.324ZM199.215 235.16C190.23 235.16 182.902 227.852 182.902 218.852V193.355H146.324C131.91 193.355 120.195 181.637 120.195 167.227V26.1289C120.195 11.7188 131.91 0 146.324 0H297.871C312.281 0 324 11.7188 324 26.1289V167.227C324 181.637 312.281 193.355 297.871 193.355H247.777L210.746 230.383C207.707 233.426 203.52 235.16 199.215 235.16Z" fill="black"/>
<path d="M73.1602 324C32.8242 324 0 291.176 0 250.84C0 220.281 18.7383 193.293 47.0312 182.516V162H57.4844V190.008L53.8711 191.191C27.9062 199.582 10.4531 223.547 10.4531 250.84C10.4531 285.418 38.582 313.547 73.1602 313.547C107.742 313.547 135.871 285.418 135.871 250.84C135.871 223.547 118.418 199.582 92.4531 191.191L88.8398 190.008V162H99.2891V182.516C127.582 193.293 146.324 220.281 146.324 250.84C146.324 291.176 113.496 324 73.1602 324Z" fill="black"/>
<path d="M94.0664 104.516C91.1875 104.516 88.8398 106.863 88.8398 109.742C88.8398 112.621 91.1875 114.969 94.0664 114.969C96.9414 114.969 99.2891 112.621 99.2891 109.742C99.2891 106.863 96.9414 104.516 94.0664 104.516ZM94.0664 125.418C85.4102 125.418 78.3867 118.398 78.3867 109.742C78.3867 101.086 85.4102 94.0664 94.0664 94.0664C102.719 94.0664 109.742 101.086 109.742 109.742C109.742 118.398 102.719 125.418 94.0664 125.418Z" fill="black"/>
<path d="M78.3867 193.355C75.5078 193.355 73.1602 195.703 73.1602 198.582C73.1602 201.457 75.5078 203.805 78.3867 203.805C81.2656 203.805 83.6133 201.457 83.6133 198.582C83.6133 195.703 81.2656 193.355 78.3867 193.355ZM78.3867 214.258C69.7305 214.258 62.7109 207.234 62.7109 198.582C62.7109 189.926 69.7305 182.902 78.3867 182.902C87.043 182.902 94.0664 189.926 94.0664 198.582C94.0664 207.234 87.043 214.258 78.3867 214.258Z" fill="black"/>
</svg>
