<svg width="636" height="316" viewBox="0 0 636 316" fill="none" xmlns="http://www.w3.org/2000/svg">
<path d="M342.5 96.5L342.347 96.976L342.422 97H342.5V96.5ZM541.721 127.357L540.889 121.879L536.111 125.121L540.894 127.918L541.721 127.357ZM321 86.5L323.325 91.7847L326.739 87.1289L321 86.5ZM328.5 92L328.204 92.4032L328.27 92.4512L328.347 92.476L328.5 92ZM326.329 91.0282L328.204 92.4032L328.796 91.5968L326.921 90.2218L326.329 91.0282ZM328.347 92.476L330.097 93.0385L330.403 92.0865L328.653 91.524L328.347 92.476ZM333.597 94.1635L337.097 95.2885L337.403 94.3365L333.903 93.2115L333.597 94.1635ZM340.597 96.4135L342.347 96.976L342.653 96.024L340.903 95.4615L340.597 96.4135ZM342.5 97C343.122 97 343.732 97.0371 344.329 97.1091L344.449 96.1163C343.811 96.0395 343.162 96 342.5 96V97ZM347.874 97.9802C349.005 98.4054 350.095 98.9608 351.147 99.6304L351.684 98.7868C350.579 98.0837 349.428 97.4959 348.226 97.0441L347.874 97.9802ZM354.086 101.868C354.988 102.67 355.861 103.554 356.709 104.508L357.456 103.844C356.586 102.865 355.686 101.952 354.75 101.12L354.086 101.868ZM359.063 107.409C359.796 108.391 360.509 109.419 361.205 110.483L362.041 109.936C361.336 108.857 360.611 107.811 359.864 106.811L359.063 107.409ZM363.187 113.678C363.82 114.749 364.439 115.842 365.047 116.949L365.923 116.468C365.312 115.354 364.687 114.251 364.048 113.169L363.187 113.678ZM366.824 120.274C367.408 121.393 367.983 122.516 368.55 123.633L369.441 123.18C368.873 122.061 368.297 120.935 367.71 119.811L366.824 120.274ZM370.256 127.002C370.836 128.147 371.41 129.276 371.982 130.377L372.87 129.916C372.3 128.819 371.727 127.694 371.148 126.55L370.256 127.002ZM373.764 133.719C374.398 134.868 375.032 135.971 375.669 137.011L376.522 136.488C375.894 135.465 375.268 134.376 374.64 133.236L373.764 133.719ZM377.791 140.193C378.605 141.299 379.436 142.286 380.291 143.12L380.989 142.405C380.183 141.618 379.388 140.675 378.596 139.6L377.791 140.193ZM383.495 145.414C384.121 145.699 384.764 145.896 385.427 145.995L385.573 145.005C385.012 144.922 384.458 144.754 383.909 144.504L383.495 145.414ZM385.427 145.995C385.925 146.068 386.551 146.201 387.301 146.389L387.544 145.419C386.778 145.227 386.117 145.086 385.573 145.005L385.427 145.995ZM391.173 147.501C392.316 147.856 393.578 148.263 394.949 148.716L395.263 147.767C393.888 147.313 392.62 146.903 391.47 146.546L391.173 147.501ZM398.751 149.991C399.961 150.401 401.23 150.834 402.555 151.288L402.879 150.341C401.554 149.888 400.283 149.454 399.072 149.044L398.751 149.991ZM406.357 152.591C407.589 153.014 408.859 153.449 410.163 153.894L410.486 152.948C409.183 152.503 407.913 152.068 406.682 151.645L406.357 152.591ZM413.976 155.192C415.225 155.615 416.5 156.044 417.799 156.479L418.117 155.531C416.819 155.097 415.545 154.667 414.297 154.244L413.976 155.192ZM421.602 157.744C422.855 158.158 424.127 158.575 425.415 158.993L425.724 158.042C424.437 157.624 423.167 157.208 421.915 156.795L421.602 157.744ZM429.245 160.225C430.514 160.629 431.796 161.034 433.089 161.437L433.387 160.482C432.095 160.08 430.815 159.676 429.549 159.272L429.245 160.225ZM436.927 162.618C438.201 163.006 439.485 163.391 440.776 163.773L441.059 162.814C439.771 162.433 438.49 162.048 437.217 161.662L436.927 162.618ZM444.64 164.9C445.926 165.268 447.217 165.633 448.512 165.992L448.779 165.028C447.487 164.67 446.199 164.306 444.916 163.938L444.64 164.9ZM452.392 167.047C453.688 167.392 454.987 167.731 456.287 168.062L456.534 167.093C455.238 166.763 453.943 166.425 452.65 166.08L452.392 167.047ZM460.188 169.033C461.496 169.35 462.803 169.658 464.108 169.956L464.331 168.982C463.03 168.684 461.727 168.377 460.424 168.061L460.188 169.033ZM468.04 170.827C469.357 171.108 470.671 171.378 471.979 171.636L472.172 170.655C470.87 170.398 469.561 170.129 468.249 169.849L468.04 170.827ZM475.934 172.38C477.268 172.618 478.596 172.842 479.913 173.051L480.07 172.063C478.759 171.855 477.438 171.632 476.11 171.395L475.934 172.38ZM483.9 173.637C485.242 173.818 486.573 173.982 487.89 174.126L487.999 173.132C486.691 172.989 485.369 172.826 484.034 172.646L483.9 173.637ZM491.902 174.506C493.267 174.615 494.613 174.7 495.94 174.76L495.985 173.761C494.67 173.702 493.335 173.617 491.982 173.509L491.902 174.506ZM499.981 174.863C501.354 174.87 502.702 174.845 504.021 174.788L503.977 173.789C502.675 173.845 501.344 173.87 499.985 173.863L499.981 174.863ZM508.053 174.497C509.429 174.356 510.768 174.173 512.065 173.945L511.891 172.96C510.62 173.184 509.305 173.364 507.951 173.503L508.053 174.497ZM516.029 173.066C517.376 172.7 518.666 172.274 519.894 171.783L519.523 170.854C518.334 171.33 517.08 171.744 515.766 172.101L516.029 173.066ZM523.571 170.004C524.164 169.66 524.736 169.295 525.287 168.91L524.713 168.09C524.186 168.459 523.638 168.809 523.069 169.139L523.571 170.004ZM525.287 168.91C525.829 168.53 526.357 168.152 526.871 167.773L526.279 166.968C525.771 167.341 525.249 167.715 524.713 168.09L525.287 168.91ZM529.91 165.422C530.942 164.579 531.909 163.74 532.815 162.906L532.137 162.17C531.247 162.991 530.295 163.816 529.278 164.647L529.91 165.422ZM535.572 160.182C536.491 159.204 537.329 158.234 538.09 157.272L537.306 156.652C536.563 157.59 535.744 158.539 534.843 159.497L535.572 160.182ZM540.35 154.109C541.081 152.962 541.708 151.83 542.241 150.717L541.339 150.285C540.824 151.361 540.217 152.457 539.506 153.572L540.35 154.109ZM543.674 147.1C544.083 145.803 544.37 144.537 544.554 143.307L543.565 143.159C543.389 144.337 543.114 145.552 542.721 146.8L543.674 147.1ZM544.81 139.407C544.786 138.053 544.646 136.757 544.423 135.528L543.439 135.707C543.653 136.886 543.787 138.128 543.81 139.425L544.81 139.407ZM543.435 131.759C542.985 130.447 542.462 129.246 541.924 128.169L541.029 128.616C541.551 129.659 542.055 130.819 542.489 132.083L543.435 131.759Z" fill="#0B1E60"/>
<path d="M179.638 307.403L162.338 301.456L174.367 295.915L179.638 307.403Z" fill="#BBCF24"/>
<path d="M179.638 307.403H188.796L177.003 301.659L179.638 307.403Z" fill="#E4EC37"/>
<path d="M174.367 295.915L153.534 283.401L162.338 301.456L174.367 295.915Z" fill="#829726"/>
<path d="M169.638 293.074L173.59 271.721L153.534 283.401L169.638 293.074Z" fill="#6F8327"/>
<path d="M173.59 271.721L149.147 252.995L156.01 281.958L173.59 271.721Z" fill="#E4EC37"/>
<path d="M169.371 268.489L197.224 239.079L151.188 241.514L149.147 252.995L169.371 268.489Z" fill="#BBCF24"/>
<path d="M197.224 239.079L185.45 213.131L146.324 223.116L151.188 241.514L197.224 239.079Z" fill="#829726"/>
<path d="M185.45 213.131L194.883 178.247L132.063 208.197L146.324 223.116L185.45 213.131Z" fill="#6F8327"/>
<path d="M194.883 178.247L216.672 204.143L212.482 213.873L185.45 213.131L194.883 178.247Z" fill="#627526"/>
<path d="M185.45 213.131L197.224 239.079L209.104 226.104L212.482 213.873L185.45 213.131Z" fill="#6F8327"/>
<path d="M216.672 204.143L228.701 190.356L194.883 178.247L216.672 204.143Z" fill="#576322"/>
<path d="M132.063 208.197V175.625L162.88 165.758L194.883 178.247L132.063 208.197Z" fill="#BBCF24"/>
<path d="M132.063 175.625L113.667 157.051L163.562 150.349L162.88 165.758L132.063 175.625Z" fill="#829726"/>
<path d="M163.562 150.349L188.492 165.758H162.88L163.562 150.349Z" fill="#6F8327"/>
<path d="M188.492 165.758L194.883 178.247L162.88 165.758H188.492Z" fill="#829726"/>
<path d="M113.667 157.051L117.244 194.074L132.063 175.625L113.667 157.051Z" fill="#6F8327"/>
<path d="M117.244 194.074L132.063 208.197V175.625L117.244 194.074Z" fill="#627526"/>
<path d="M113.667 147.858L105.775 127.981L89.3531 139.74L113.667 147.858Z" fill="#BBCF24"/>
<path d="M105.775 127.981L64.3491 123.858L94.2009 136.267L105.775 127.981Z" fill="#829726"/>
<path d="M86.6501 133.13L73.8098 137.92L64.3491 123.858L86.6501 133.13Z" fill="#6F8327"/>
<path d="M85.9756 126.01L54.3472 83.1765L64.3491 123.858L85.9756 126.01Z" fill="#627526"/>
<path d="M81.996 120.622L104.761 97.2321L54.3472 83.1765L81.996 120.622Z" fill="#6F8327"/>
<path d="M104.761 97.2321L52.6098 43.3615L54.3472 83.1765L104.761 97.2321Z" fill="#627526"/>
<path d="M61.7741 113.386L45.9673 98.1788L54.3472 83.1765L61.7741 113.386Z" fill="#829726"/>
<path d="M45.9673 98.1788L53.2666 58.4144L54.3472 83.1765L45.9673 98.1788Z" fill="#BBCF24"/>
<path d="M52.6098 43.3615L75.4321 20.0221L80.7596 72.4394L52.6098 43.3615Z" fill="#829726"/>
<path d="M75.4321 20.0221L29.3432 19.2461L55.9712 39.9243L75.4321 20.0221Z" fill="#E4EC37"/>
<path d="M48.7328 34.3044L28.802 39.9243L29.3432 19.2461L48.7328 34.3044Z" fill="#BBCF24"/>
<path d="M28.802 39.9243L8.39314 34.2484L28.802 28.4365V39.9243ZM104.761 97.2321L125.44 108.721L148.957 77.3646L104.761 97.2321Z" fill="#829726"/>
<path d="M96.8253 105.387L125.44 108.721L104.761 97.2321L96.8253 105.387ZM148.957 77.3646L108.951 61.4157L104.761 97.2321L148.957 77.3646Z" fill="#627526"/>
<path d="M108.951 61.4157L80.7596 72.4394L104.761 97.2321L108.951 61.4157Z" fill="#BBCF24"/>
<path d="M108.951 61.4157L75.4321 20.0221L80.7596 72.4394L108.951 61.4157Z" fill="#6F8327"/>
<path d="M75.4321 20.0221L106.653 14.9209L108.951 61.4157L75.4321 20.0221Z" fill="#627526"/>
<path d="M108.951 61.4157L134.838 40.3122L106.653 14.9209L108.951 61.4157Z" fill="#BBCF24"/>
<path d="M134.838 40.3122L144.363 13.4342L116.156 23.482L134.838 40.3122Z" fill="#829726"/>
<path d="M137.783 31.9991L162.317 27.4912L144.363 13.4342L137.783 31.9991Z" fill="#6F8327"/>
<path d="M162.317 27.4912L179.771 11.8129L151.129 18.7328L162.317 27.4912Z" fill="#627526"/>
<path d="M172.087 18.7141L199.541 21.21L179.771 11.8129L172.087 18.7141Z" fill="#E4EC37"/>
<path d="M186.482 20.0221L190.462 31.9991L199.541 21.21L186.482 20.0221Z" fill="#BBCF24"/>
<path d="M190.462 31.9991L177.949 29.2485L188.179 25.1286L190.462 31.9991ZM155.184 17.7528L153.824 8.97433L162.317 16.0288L155.184 17.7528Z" fill="#829726"/>
<path d="M153.824 8.97434L165.45 9.98766L159.637 13.8022L153.824 8.97434ZM138.92 15.3728L119.539 8.06769L114.207 21.726L116.156 23.482L138.92 15.3728ZM134.838 40.3122L148.957 77.3646L108.951 61.4157L134.838 40.3122Z" fill="#6F8327"/>
<path d="M148.957 77.3646L177.949 70.2968L134.838 40.3122L148.957 77.3646Z" fill="#829726"/>
<path d="M177.949 70.2968L188.288 49.116L153.812 53.5092L177.949 70.2968Z" fill="#6F8327"/>
<path d="M162.277 52.4292L172.087 33.7084L188.288 49.116L162.277 52.4292Z" fill="#627526"/>
<path d="M172.087 33.7084L198.696 46.2321L188.288 49.116L172.087 33.7084Z" fill="#6F8327"/>
<path d="M198.696 46.2321L182.666 60.6357L188.288 49.116L198.696 46.2321Z" fill="#829726"/>
<path d="M194.123 50.34L201.129 64.9289L186.482 57.2065L194.123 50.34ZM321.154 247.811L355.821 241.514L333.853 210.631L321.154 247.811Z" fill="#BBCF24"/>
<path d="M321.154 247.811L331.15 258.188L355.821 241.514L321.154 247.811Z" fill="#E4EC37"/>
<path d="M321.154 247.811L306.012 213.873L333.853 210.631L321.154 247.811Z" fill="#829726"/>
<path d="M306.012 213.873L311.688 190.075H329.529L333.853 210.631L306.012 213.873Z" fill="#6F8327"/>
<path d="M355.821 241.514L371.742 190.631L333.853 210.631L355.821 241.514Z" fill="#829726"/>
<path d="M371.742 190.631L352.797 164.406L329.529 190.075L333.853 210.631L371.742 190.631ZM311.688 190.075L299.253 164.406L329.529 158.169V190.075H311.688Z" fill="#627526"/>
<path d="M299.253 164.406L261.949 159.571L294.118 139.74L299.253 164.406Z" fill="#627526"/>
<path d="M261.949 159.571L242.846 137.92L294.118 139.74L261.949 159.571Z" fill="#6F8327"/>
<path d="M242.846 137.92L258.165 106.559L294.118 139.74L242.846 137.92ZM294.118 139.74L324.393 121.966L329.529 158.169L299.253 164.406L294.118 139.74ZM329.529 158.169L352.797 164.406L329.529 190.075V158.169ZM371.742 190.631L400.351 152.073L352.797 164.406L371.742 190.631Z" fill="#829726"/>
<path d="M400.351 152.073L358.723 137.92L352.797 164.406L400.351 152.073Z" fill="#6F8327"/>
<path d="M324.393 121.966L358.723 137.92L352.797 164.406L329.529 158.169L324.393 121.966Z" fill="#627526"/>
<path d="M258.165 106.559L299.253 94.2736L294.118 139.74L258.165 106.559Z" fill="#BBCF24"/>
<path d="M299.253 94.2736L324.393 121.966L294.118 139.74L299.253 94.2736Z" fill="#E4EC37"/>
<path d="M376.574 143.988L354.145 104.464L358.723 137.92L376.574 143.988Z" fill="#BBCF24"/>
<path d="M354.145 104.464L324.393 121.966L358.723 137.92L354.145 104.464Z" fill="#829726"/>
<path d="M354.145 104.464L324.393 106.559V121.966L354.145 104.464Z" fill="#6F8327"/>
<path d="M324.393 106.559L299.253 94.2736L324.393 121.966V106.559Z" fill="#627526"/>
<path d="M268.5 93L269.952 85L278.5 89.5L268.5 93Z" fill="#829726"/>
<path d="M269.884 85.1631L283.373 70.2968L278.5 89.5L269.884 85.1631Z" fill="#6F8327"/>
<path d="M279.5 84L310.081 70.5381L293.874 54.5826L283.373 70.2968L279.5 84Z" fill="#627526"/>
<path d="M283.373 70.2968L274.225 61.889L293.874 54.5825L283.373 70.2968Z" fill="#6F8327"/>
<path d="M278.87 75.2594L265.058 76.502L269.884 85.1631L278.87 75.2594Z" fill="#829726"/>
<path d="M265.058 76.502L268.5 93L269.884 85.1631L265.058 76.502ZM274.225 61.889L280.59 73.3634L283.373 70.2968L274.225 61.889ZM277.033 56.6092L286.684 54.5826L277.033 41.1415V56.6092Z" fill="#BBCF24"/>
<path d="M277.033 56.6092L274.375 46.3521L277.033 41.1415V56.6092ZM272.425 54.5826V47.9L266.152 50.532L272.425 54.5826Z" fill="#E4EC37"/>
<path d="M272.425 54.5825L266.152 56.0598V50.5319L272.425 54.5825ZM310.081 70.5381L328.582 78.7672L326.162 47.4894L310.081 70.5381Z" fill="#BBCF24"/>
<path d="M310.081 70.5381L293.874 54.5825L326.162 47.4894L310.081 70.5381Z" fill="#829726"/>
<path d="M310.081 70.5381L314.972 77.6353L310.019 78.7672L304.031 72.8581L310.081 70.5381Z" fill="#BBCF24"/>
<path d="M310.019 78.7672L318.446 85.1631L314.972 77.6353L310.019 78.7672Z" fill="#E4EC37"/>
<path d="M318.446 85.1631L321.893 84.1898L314.972 77.6353L318.446 85.1631Z" fill="#BBCF24"/>
<path d="M321.893 84.1898L317.161 88.539L318.446 85.1631L321.893 84.1898Z" fill="#829726"/>
<path d="M317.161 88.539L316.996 84.0631L318.446 85.1631L317.161 88.539ZM328.582 78.7673L331.826 89.731L337.234 80.2459L328.582 78.7673Z" fill="#BBCF24"/>
<path d="M331.826 89.731L324.689 77.0366L328.582 78.7673L331.826 89.731ZM326.162 47.4894L339.583 37.1083L346.22 65.0316L326.162 47.4894Z" fill="#829726"/>
<path d="M346.22 65.0316L328.582 78.7672L326.162 47.4894L346.22 65.0316Z" fill="#E4EC37"/>
<path d="M337.234 80.2459L346.22 65.0316L328.582 78.7673L337.234 80.2459Z" fill="#829726"/>
<path d="M337.234 80.2459L355.5 94L346.22 65.0316L337.234 80.2459ZM355.5 94L364 108.5L372.474 100.408L355.5 94Z" fill="#6F8327"/>
<path d="M421.977 125.21L393.73 108.12L413.691 130.158L421.977 125.21Z" fill="#6F8327"/>
<path d="M393.73 108.12L430.062 117.112L421.977 125.21L393.73 108.12ZM413.691 130.158L384.403 143.988L393.73 108.12L413.691 130.158Z" fill="#627526"/>
<path d="M384.403 143.988L368 117L393.73 108.12L384.403 143.988Z" fill="#829726"/>
<path d="M368 117L364 108.12L372.474 100.408L393.73 108.12L368 117Z" fill="#BBCF24"/>
<path d="M339.583 37.1083L355.6 21.4087L329.529 16.0022L339.583 37.1083Z" fill="#829726"/>
<path d="M329.529 16.0022L310.081 23.2673L334.557 26.5553L329.529 16.0022Z" fill="#6F8327"/>
<path d="M310.081 23.2673L296.147 36.755L317.721 33.3031L325.962 25.4006L310.081 23.2673Z" fill="#627526"/>
<path d="M296.147 36.755L311.055 45.2641L317.721 33.303L296.147 36.755ZM355.6 21.4087L358.723 54.5825L346.22 65.0316L339.583 37.1083L355.6 21.4087Z" fill="#6F8327"/>
<path d="M358.723 91.083L374.266 74.6527L358.723 54.5826L346.22 65.0316L355.5 94" fill="#627526"/>
<path d="M372.474 100.408L382.511 87.4297L374.266 74.6527L355.5 94L372.474 100.408Z" fill="#829726"/>
<path d="M382.511 87.4297L416.436 94.2735L393.73 108.12L372.474 100.408L382.511 87.4297Z" fill="#E4EC37"/>
<path d="M416.436 94.2735L430.062 117.112L393.73 108.12L416.436 94.2735ZM356.409 30.0111L394.455 19.1367L375.433 49.276L358.723 54.5825L356.409 30.0111Z" fill="#BBCF24"/>
<path d="M375.433 49.276L391.431 61.889L374.266 74.6527L358.723 54.5825L375.433 49.276Z" fill="#829726"/>
<path d="M391.431 61.889L382.511 87.4297L374.266 74.6527L391.431 61.889ZM430.062 117.112L455.496 130.158L472.121 93.4389L430.062 117.112ZM455.496 130.158L453.794 147.015L465.961 143.988L455.496 130.158Z" fill="#6F8327"/>
<path d="M453.794 147.015L463.707 157.581L465.961 143.988L453.794 147.015Z" fill="#627526"/>
<path d="M465.961 143.988L478 124.737L455.496 130.158L465.961 143.988Z" fill="#829726"/>
<path d="M478 124.737L472.121 93.4389L455.496 130.158L478 124.737Z" fill="#BBCF24"/>
<path d="M472.121 93.4389L440.763 66.2329L430.062 117.112L472.121 93.4389Z" fill="#829726"/>
<path d="M416.436 94.2735L440.763 66.2329L430.062 117.112L416.436 94.2735Z" fill="#6F8327"/>
<path d="M391.431 61.889L416.436 94.2735L382.511 87.4297L391.431 61.889Z" fill="#627526"/>
<path d="M391.431 61.889L440.763 66.2329L416.436 94.2735L391.431 61.889ZM394.455 19.1367L429.14 33.303L375.433 49.276L394.455 19.1367Z" fill="#829726"/>
<path d="M429.14 33.3031L470.228 8.83967L402.287 22.3353L429.14 33.3031Z" fill="#6F8327"/>
<path d="M470.228 8.83967L523.412 50.532L429.14 33.3031L470.228 8.83967Z" fill="#627526"/>
<path d="M429.14 33.3031L391.431 61.889L375.433 49.276L429.14 33.3031Z" fill="#6F8327"/>
<path d="M440.763 66.2329L429.14 33.3031L391.431 61.889L440.763 66.2329ZM440.763 66.2329L485.636 63.129L472.121 93.4389L440.763 66.2329Z" fill="#627526"/>
<path d="M485.636 63.129L429.14 33.3031L440.763 66.2329L485.636 63.129Z" fill="#6F8327"/>
<path d="M485.636 63.129L523.412 50.532L429.14 33.3031L485.636 63.129ZM478 124.737L512.668 112.53L495.334 95.1082L472.121 93.4389L478 124.737ZM512.668 112.53L541.173 123.723L543.078 91.6723L512.668 112.53Z" fill="#829726"/>
<path d="M495.334 95.1082L543.078 91.6723L512.668 112.53L495.334 95.1082ZM495.334 95.1082L485.635 63.129L472.121 93.4389L495.334 95.1082Z" fill="#BBCF24"/>
<path d="M495.334 95.1082L523.412 50.532L485.635 63.129L495.334 95.1082Z" fill="#6F8327"/>
<path d="M543.078 91.6723L523.412 50.532L495.334 95.1082L543.078 91.6723Z" fill="#627526"/>
<path d="M393.007 208.199L380.21 218.334L390.485 221.982L393.007 208.199Z" fill="#E4EC37"/>
<path d="M380.21 218.334L385.414 236.367L390.485 221.982L380.21 218.334Z" fill="#BBCF24"/>
<path d="M385.414 236.367L394.675 224.417L390.485 221.982L385.414 236.367Z" fill="#829726"/>
<path d="M394.675 224.417L393.007 208.199L390.485 221.982L394.675 224.417ZM480.176 16.6368L559.095 17.8168L523.412 50.532L480.176 16.6368Z" fill="#6F8327"/>
<path d="M559.095 17.8168L588.773 35.5337L552.143 39.0403L546.149 29.6858L559.095 17.8168Z" fill="#829726"/>
<path d="M588.773 35.5337L612.618 24.5846L568.443 23.3966L588.773 35.5337Z" fill="#6F8327"/>
<path d="M552.143 39.0403L544.903 58.4424L523.412 50.532L546.149 29.6858L552.143 39.0403Z" fill="#627526"/>
<path d="M544.903 58.4424L557.472 76.486L543.078 91.6723L523.412 50.532L544.903 58.4424Z" fill="#6F8327"/>
<path d="M557.472 76.486L568.443 61.889L544.903 58.4424L557.472 76.486Z" fill="#829726"/>
<path d="M549.11 47.1707L568.443 61.889L544.903 58.4425L549.11 47.1707ZM541.173 123.724L504.956 138.587L512.668 112.53L541.173 123.724Z" fill="#BBCF24"/>
<path d="M504.956 138.587L486.467 121.756L512.668 112.53L504.956 138.587Z" fill="#6F8327"/>
<path d="M523.412 131.011L531.832 150.271L519.205 154.539L504.956 138.587L523.412 131.011Z" fill="#829726"/>
<path d="M519.205 154.539L517.909 171.425L512.484 147.015L519.205 154.539Z" fill="#BBCF24"/>
<path d="M512.668 180.625L527.873 190.643L516.917 173.168L512.668 180.625Z" fill="#BBCF24"/>
<path d="M506.615 140.443L508.343 158.169L515.455 160.375L512.484 147.015L506.615 140.443ZM536.476 182.517L549.393 185.347L542.051 169.425L536.476 182.517Z" fill="#829726"/>
<path d="M549.393 185.347L554.171 170.5L542.051 169.425L549.393 185.347Z" fill="#6F8327"/>
<path d="M554.171 170.5L552.683 158.169L542.051 169.425L554.171 170.5Z" fill="#627526"/>
<path d="M536.476 182.517L533.562 173.168L540.989 171.92L536.476 182.517ZM537.276 253.435L539.429 227.66L556.612 239.014L537.276 253.435Z" fill="#BBCF24"/>
<path d="M537.276 253.435L554.171 254.422L556.612 239.014L537.276 253.435Z" fill="#829726"/>
<path d="M554.171 254.422L567.272 247.528L556.612 239.014L554.171 254.422Z" fill="#6F8327"/>
<path d="M567.272 247.528L587.276 258.188L582.384 229.012L567.272 247.528Z" fill="#6F8327"/>
<path d="M556.612 239.014L582.384 229.012L567.272 247.528L556.612 239.014ZM587.276 258.188L620.253 244.284L582.384 229.012L587.276 258.188Z" fill="#829726"/>
<path d="M620.253 244.284L617.279 222.516L582.384 229.012L620.253 244.284Z" fill="#6F8327"/>
<path d="M617.279 222.516L608.666 203.112L598.807 225.954L617.279 222.516Z" fill="#BBCF24"/>
<path d="M602.258 217.958L578.889 209.8L582.384 229.012L598.807 225.954L602.258 217.958Z" fill="#627526"/>
<path d="M578.889 209.8L590.573 204.391L593.913 215.045L578.889 209.8Z" fill="#BBCF24"/>
<path d="M578.889 209.8L561.422 218.604L573.56 232.435L582.384 229.012L578.889 209.8Z" fill="#6F8327"/>
<path d="M561.422 218.604L539.429 227.66L556.612 239.014L573.56 232.435L561.422 218.604ZM587.276 258.188L590.573 267.059L608.866 263.713L587.276 258.188Z" fill="#627526"/>
<path d="M608.866 263.713L620.253 244.284L587.276 258.188L608.866 263.713ZM587.829 176.525L601.571 188.354L607.542 174.902L587.829 176.525Z" fill="#6F8327"/>
<path d="M601.571 188.354L607.542 196.326V174.902L601.571 188.354Z" fill="#829726"/>
<path d="M607.542 196.326L621.741 187.213L607.542 179.207V196.326Z" fill="#6F8327"/>
<path d="M621.741 197.213L628.256 208.568L614.642 201.72L621.741 197.213Z" fill="#627526"/>
</svg>
