<svg width="636" height="316" viewBox="0 0 636 316" fill="none" xmlns="http://www.w3.org/2000/svg">
<path d="M179.638 307.403L162.338 301.456L174.367 295.915L179.638 307.403Z" fill="#BBCF24"/>
<path d="M179.638 307.403H188.796L177.003 301.659L179.638 307.403Z" fill="#E4EC37"/>
<path d="M174.367 295.915L153.534 283.401L162.338 301.456L174.367 295.915Z" fill="#829726"/>
<path d="M169.638 293.074L173.59 271.721L153.534 283.401L169.638 293.074Z" fill="#6F8327"/>
<path d="M173.59 271.721L149.147 252.995L156.01 281.958L173.59 271.721Z" fill="#E4EC37"/>
<path d="M169.371 268.489L197.224 239.079L151.188 241.514L149.147 252.995L169.371 268.489Z" fill="#BBCF24"/>
<path d="M197.224 239.079L185.45 213.131L146.324 223.116L151.188 241.514L197.224 239.079Z" fill="#829726"/>
<path d="M185.45 213.131L194.883 178.247L132.063 208.197L146.324 223.116L185.45 213.131Z" fill="#6F8327"/>
<path d="M194.883 178.247L216.672 204.143L212.482 213.873L185.45 213.131L194.883 178.247Z" fill="#627526"/>
<path d="M185.45 213.131L197.224 239.079L209.104 226.104L212.482 213.873L185.45 213.131Z" fill="#6F8327"/>
<path d="M216.672 204.143L228.701 190.356L194.883 178.247L216.672 204.143Z" fill="#576322"/>
<path d="M132.063 208.197V175.625L162.88 165.758L194.883 178.247L132.063 208.197Z" fill="#BBCF24"/>
<path d="M132.063 175.625L113.667 157.051L163.562 150.349L162.88 165.758L132.063 175.625Z" fill="#829726"/>
<path d="M163.562 150.349L188.492 165.758H162.88L163.562 150.349Z" fill="#6F8327"/>
<path d="M188.492 165.758L194.883 178.247L162.88 165.758H188.492Z" fill="#829726"/>
<path d="M113.667 157.051L117.244 194.074L132.063 175.625L113.667 157.051Z" fill="#6F8327"/>
<path d="M117.244 194.074L132.063 208.197V175.625L117.244 194.074Z" fill="#627526"/>
<path d="M113.667 147.858L105.775 127.981L89.3531 139.74L113.667 147.858Z" fill="#BBCF24"/>
<path d="M105.775 127.981L64.3491 123.858L94.2009 136.267L105.775 127.981Z" fill="#829726"/>
<path d="M86.6501 133.13L73.8098 137.92L64.3491 123.858L86.6501 133.13Z" fill="#6F8327"/>
<path d="M85.9756 126.01L54.3472 83.1765L64.3491 123.858L85.9756 126.01Z" fill="#627526"/>
<path d="M81.996 120.622L104.761 97.2321L54.3472 83.1765L81.996 120.622Z" fill="#6F8327"/>
<path d="M104.761 97.2321L52.6098 43.3615L54.3472 83.1765L104.761 97.2321Z" fill="#627526"/>
<path d="M61.7741 113.386L45.9673 98.1788L54.3472 83.1765L61.7741 113.386Z" fill="#829726"/>
<path d="M45.9673 98.1788L53.2666 58.4144L54.3472 83.1765L45.9673 98.1788Z" fill="#BBCF24"/>
<path d="M52.6098 43.3615L75.4321 20.0221L80.7596 72.4394L52.6098 43.3615Z" fill="#829726"/>
<path d="M75.4321 20.0221L29.3432 19.2461L55.9712 39.9243L75.4321 20.0221Z" fill="#E4EC37"/>
<path d="M48.7328 34.3044L28.802 39.9243L29.3432 19.2461L48.7328 34.3044Z" fill="#BBCF24"/>
<path d="M28.802 39.9243L8.39314 34.2484L28.802 28.4365V39.9243ZM104.761 97.2321L125.44 108.721L148.957 77.3646L104.761 97.2321Z" fill="#829726"/>
<path d="M96.8253 105.387L125.44 108.721L104.761 97.2321L96.8253 105.387ZM148.957 77.3646L108.951 61.4157L104.761 97.2321L148.957 77.3646Z" fill="#627526"/>
<path d="M108.951 61.4157L80.7596 72.4394L104.761 97.2321L108.951 61.4157Z" fill="#BBCF24"/>
<path d="M108.951 61.4157L75.4321 20.0221L80.7596 72.4394L108.951 61.4157Z" fill="#6F8327"/>
<path d="M75.4321 20.0221L106.653 14.9209L108.951 61.4157L75.4321 20.0221Z" fill="#627526"/>
<path d="M108.951 61.4157L134.838 40.3122L106.653 14.9209L108.951 61.4157Z" fill="#BBCF24"/>
<path d="M134.838 40.3122L144.363 13.4342L116.156 23.482L134.838 40.3122Z" fill="#829726"/>
<path d="M137.783 31.9991L162.317 27.4912L144.363 13.4342L137.783 31.9991Z" fill="#6F8327"/>
<path d="M162.317 27.4912L179.771 11.8129L151.129 18.7328L162.317 27.4912Z" fill="#627526"/>
<path d="M172.087 18.7141L199.541 21.21L179.771 11.8129L172.087 18.7141Z" fill="#E4EC37"/>
<path d="M186.482 20.0221L190.462 31.9991L199.541 21.21L186.482 20.0221Z" fill="#BBCF24"/>
<path d="M190.462 31.9991L177.949 29.2485L188.179 25.1286L190.462 31.9991ZM155.184 17.7528L153.824 8.97433L162.317 16.0288L155.184 17.7528Z" fill="#829726"/>
<path d="M153.824 8.97434L165.45 9.98766L159.637 13.8022L153.824 8.97434ZM138.92 15.3728L119.539 8.06769L114.207 21.726L116.156 23.482L138.92 15.3728ZM134.838 40.3122L148.957 77.3646L108.951 61.4157L134.838 40.3122Z" fill="#6F8327"/>
<path d="M148.957 77.3646L177.949 70.2968L134.838 40.3122L148.957 77.3646Z" fill="#829726"/>
<path d="M177.949 70.2968L188.288 49.116L153.812 53.5092L177.949 70.2968Z" fill="#6F8327"/>
<path d="M162.277 52.4292L172.087 33.7084L188.288 49.116L162.277 52.4292Z" fill="#627526"/>
<path d="M172.087 33.7084L198.696 46.2321L188.288 49.116L172.087 33.7084Z" fill="#6F8327"/>
<path d="M198.696 46.2321L182.666 60.6357L188.288 49.116L198.696 46.2321Z" fill="#829726"/>
<path d="M194.123 50.34L201.129 64.9289L186.482 57.2065L194.123 50.34ZM321.154 247.811L355.821 241.514L333.853 210.631L321.154 247.811Z" fill="#BBCF24"/>
<path d="M321.154 247.811L331.15 258.188L355.821 241.514L321.154 247.811Z" fill="#E4EC37"/>
<path d="M321.154 247.811L306.012 213.873L333.853 210.631L321.154 247.811Z" fill="#829726"/>
<path d="M306.012 213.873L311.688 190.075H329.529L333.853 210.631L306.012 213.873Z" fill="#6F8327"/>
<path d="M355.821 241.514L371.742 190.631L333.853 210.631L355.821 241.514Z" fill="#829726"/>
<path d="M371.742 190.631L352.797 164.406L329.529 190.075L333.853 210.631L371.742 190.631ZM311.688 190.075L299.253 164.406L329.529 158.169V190.075H311.688Z" fill="#627526"/>
<path d="M299.253 164.406L261.949 159.571L294.118 139.74L299.253 164.406Z" fill="#627526"/>
<path d="M261.949 159.571L242.846 137.92L294.118 139.74L261.949 159.571Z" fill="#6F8327"/>
<path d="M242.846 137.92L258.165 106.559L294.118 139.74L242.846 137.92ZM294.118 139.74L324.393 121.966L329.529 158.169L299.253 164.406L294.118 139.74ZM329.529 158.169L352.797 164.406L329.529 190.075V158.169ZM371.742 190.631L400.351 152.073L352.797 164.406L371.742 190.631Z" fill="#829726"/>
<path d="M400.351 152.073L358.723 137.92L352.797 164.406L400.351 152.073Z" fill="#6F8327"/>
<path d="M324.393 121.966L358.723 137.92L352.797 164.406L329.529 158.169L324.393 121.966Z" fill="#627526"/>
<path d="M258.165 106.559L299.253 94.2736L294.118 139.74L258.165 106.559Z" fill="#BBCF24"/>
<path d="M299.253 94.2736L324.393 121.966L294.118 139.74L299.253 94.2736Z" fill="#E4EC37"/>
<path d="M376.574 143.988L354.145 104.464L358.723 137.92L376.574 143.988Z" fill="#BBCF24"/>
<path d="M354.145 104.464L324.393 121.966L358.723 137.92L354.145 104.464Z" fill="#829726"/>
<path d="M354.145 104.464L324.393 106.559V121.966L354.145 104.464Z" fill="#6F8327"/>
<path d="M324.393 106.559L299.253 94.2736L324.393 121.966V106.559Z" fill="#627526"/>
<path d="M267.028 103.909L269.884 85.1631L290.712 96.8281L267.028 103.909Z" fill="#829726"/>
<path d="M269.884 85.1631L283.373 70.2968L278.87 90.195L269.884 85.1631Z" fill="#6F8327"/>
<path d="M280.59 82.5925L310.081 70.5381L293.874 54.5826L283.373 70.2968L280.59 82.5925Z" fill="#627526"/>
<path d="M283.373 70.2968L274.225 61.889L293.874 54.5825L283.373 70.2968Z" fill="#6F8327"/>
<path d="M278.87 75.2594L265.058 76.502L269.884 85.1631L278.87 75.2594Z" fill="#829726"/>
<path d="M265.058 76.502L268.622 93.4389L269.884 85.1631L265.058 76.502ZM274.225 61.889L280.59 73.3634L283.373 70.2968L274.225 61.889ZM277.033 56.6092L286.684 54.5826L277.033 41.1415V56.6092Z" fill="#BBCF24"/>
<path d="M277.033 56.6092L274.375 46.3521L277.033 41.1415V56.6092ZM272.425 54.5826V47.9L266.152 50.532L272.425 54.5826Z" fill="#E4EC37"/>
<path d="M272.425 54.5825L266.152 56.0598V50.5319L272.425 54.5825ZM310.081 70.5381L328.582 78.7672L326.162 47.4894L310.081 70.5381Z" fill="#BBCF24"/>
<path d="M310.081 70.5381L293.874 54.5825L326.162 47.4894L310.081 70.5381Z" fill="#829726"/>
<path d="M310.081 70.5381L314.972 77.6353L310.019 78.7672L304.031 72.8581L310.081 70.5381Z" fill="#BBCF24"/>
<path d="M310.019 78.7672L318.446 85.1631L314.972 77.6353L310.019 78.7672Z" fill="#E4EC37"/>
<path d="M318.446 85.1631L321.893 84.1898L314.972 77.6353L318.446 85.1631Z" fill="#BBCF24"/>
<path d="M321.893 84.1898L317.161 88.539L318.446 85.1631L321.893 84.1898Z" fill="#829726"/>
<path d="M317.161 88.539L316.996 84.0631L318.446 85.1631L317.161 88.539ZM328.582 78.7673L331.826 89.731L337.234 80.2459L328.582 78.7673Z" fill="#BBCF24"/>
<path d="M331.826 89.731L324.689 77.0366L328.582 78.7673L331.826 89.731ZM326.162 47.4894L339.583 37.1083L346.22 65.0316L326.162 47.4894Z" fill="#829726"/>
<path d="M346.22 65.0316L328.582 78.7672L326.162 47.4894L346.22 65.0316Z" fill="#E4EC37"/>
<path d="M337.234 80.2459L346.22 65.0316L328.582 78.7673L337.234 80.2459Z" fill="#829726"/>
<path d="M337.234 80.2459L358.723 91.083L346.22 65.0316L337.234 80.2459ZM358.723 91.083L354.145 104.464L372.474 100.408L358.723 91.083Z" fill="#6F8327"/>
<path d="M358.723 112.53L372.474 100.408L354.145 104.464L358.723 112.53Z" fill="#627526"/>
<path d="M421.977 125.21L393.73 108.12L413.691 130.158L421.977 125.21Z" fill="#6F8327"/>
<path d="M393.73 108.12L430.062 117.112L421.977 125.21L393.73 108.12ZM413.691 130.158L384.403 143.988L393.73 108.12L413.691 130.158Z" fill="#627526"/>
<path d="M384.403 143.988L366.833 117.006L393.73 108.12L384.403 143.988Z" fill="#829726"/>
<path d="M366.833 117.006L364.544 107.399L372.474 100.408L393.73 108.12L366.833 117.006Z" fill="#BBCF24"/>
<path d="M339.583 37.1083L355.6 21.4087L329.529 16.0022L339.583 37.1083Z" fill="#829726"/>
<path d="M329.529 16.0022L310.081 23.2673L334.557 26.5553L329.529 16.0022Z" fill="#6F8327"/>
<path d="M310.081 23.2673L296.147 36.755L317.721 33.3031L325.962 25.4006L310.081 23.2673Z" fill="#627526"/>
<path d="M296.147 36.755L311.055 45.2641L317.721 33.303L296.147 36.755ZM355.6 21.4087L358.723 54.5825L346.22 65.0316L339.583 37.1083L355.6 21.4087Z" fill="#6F8327"/>
<path d="M358.723 91.083L374.266 74.6527L358.723 54.5826L346.22 65.0316L358.723 91.083Z" fill="#627526"/>
<path d="M372.474 100.408L382.511 87.4297L374.266 74.6527L358.723 91.083L372.474 100.408Z" fill="#829726"/>
<path d="M382.511 87.4297L416.436 94.2735L393.73 108.12L372.474 100.408L382.511 87.4297Z" fill="#E4EC37"/>
<path d="M416.436 94.2735L430.062 117.112L393.73 108.12L416.436 94.2735ZM356.409 30.0111L394.455 19.1367L375.433 49.276L358.723 54.5825L356.409 30.0111Z" fill="#BBCF24"/>
<path d="M375.433 49.276L391.431 61.889L374.266 74.6527L358.723 54.5825L375.433 49.276Z" fill="#829726"/>
<path d="M391.431 61.889L382.511 87.4297L374.266 74.6527L391.431 61.889ZM430.062 117.112L455.496 130.158L472.121 93.4389L430.062 117.112ZM455.496 130.158L453.794 147.015L465.961 143.988L455.496 130.158Z" fill="#6F8327"/>
<path d="M453.794 147.015L463.707 157.581L465.961 143.988L453.794 147.015Z" fill="#627526"/>
<path d="M465.961 143.988L478 124.737L455.496 130.158L465.961 143.988Z" fill="#829726"/>
<path d="M478 124.737L472.121 93.4389L455.496 130.158L478 124.737Z" fill="#BBCF24"/>
<path d="M472.121 93.4389L440.763 66.2329L430.062 117.112L472.121 93.4389Z" fill="#829726"/>
<path d="M416.436 94.2735L440.763 66.2329L430.062 117.112L416.436 94.2735Z" fill="#6F8327"/>
<path d="M391.431 61.889L416.436 94.2735L382.511 87.4297L391.431 61.889Z" fill="#627526"/>
<path d="M391.431 61.889L440.763 66.2329L416.436 94.2735L391.431 61.889ZM394.455 19.1367L429.14 33.303L375.433 49.276L394.455 19.1367Z" fill="#829726"/>
<path d="M429.14 33.3031L470.228 8.83967L402.287 22.3353L429.14 33.3031Z" fill="#6F8327"/>
<path d="M470.228 8.83967L523.412 50.532L429.14 33.3031L470.228 8.83967Z" fill="#627526"/>
<path d="M429.14 33.3031L391.431 61.889L375.433 49.276L429.14 33.3031Z" fill="#6F8327"/>
<path d="M440.763 66.2329L429.14 33.3031L391.431 61.889L440.763 66.2329ZM440.763 66.2329L485.636 63.129L472.121 93.4389L440.763 66.2329Z" fill="#627526"/>
<path d="M485.636 63.129L429.14 33.3031L440.763 66.2329L485.636 63.129Z" fill="#6F8327"/>
<path d="M485.636 63.129L523.412 50.532L429.14 33.3031L485.636 63.129ZM478 124.737L512.668 112.53L495.334 95.1082L472.121 93.4389L478 124.737ZM512.668 112.53L541.173 123.723L543.078 91.6723L512.668 112.53Z" fill="#829726"/>
<path d="M495.334 95.1082L543.078 91.6723L512.668 112.53L495.334 95.1082ZM495.334 95.1082L485.635 63.129L472.121 93.4389L495.334 95.1082Z" fill="#BBCF24"/>
<path d="M495.334 95.1082L523.412 50.532L485.635 63.129L495.334 95.1082Z" fill="#6F8327"/>
<path d="M543.078 91.6723L523.412 50.532L495.334 95.1082L543.078 91.6723Z" fill="#627526"/>
<path d="M393.007 208.199L380.21 218.334L390.485 221.982L393.007 208.199Z" fill="#E4EC37"/>
<path d="M380.21 218.334L385.414 236.367L390.485 221.982L380.21 218.334Z" fill="#BBCF24"/>
<path d="M385.414 236.367L394.675 224.417L390.485 221.982L385.414 236.367Z" fill="#829726"/>
<path d="M394.675 224.417L393.007 208.199L390.485 221.982L394.675 224.417ZM480.176 16.6368L559.095 17.8168L523.412 50.532L480.176 16.6368Z" fill="#6F8327"/>
<path d="M559.095 17.8168L588.773 35.5337L552.143 39.0403L546.149 29.6858L559.095 17.8168Z" fill="#829726"/>
<path d="M588.773 35.5337L612.618 24.5846L568.443 23.3966L588.773 35.5337Z" fill="#6F8327"/>
<path d="M552.143 39.0403L544.903 58.4424L523.412 50.532L546.149 29.6858L552.143 39.0403Z" fill="#627526"/>
<path d="M544.903 58.4424L557.472 76.486L543.078 91.6723L523.412 50.532L544.903 58.4424Z" fill="#6F8327"/>
<path d="M557.472 76.486L568.443 61.889L544.903 58.4424L557.472 76.486Z" fill="#829726"/>
<path d="M549.11 47.1707L568.443 61.889L544.903 58.4425L549.11 47.1707ZM541.173 123.724L504.956 138.587L512.668 112.53L541.173 123.724Z" fill="#BBCF24"/>
<path d="M504.956 138.587L486.467 121.756L512.668 112.53L504.956 138.587Z" fill="#6F8327"/>
<path d="M523.412 131.011L531.832 150.271L519.205 154.539L504.956 138.587L523.412 131.011Z" fill="#829726"/>
<path d="M519.205 154.539L517.909 171.425L512.484 147.015L519.205 154.539Z" fill="#BBCF24"/>
<path d="M517.909 171.425L512.668 180.625L515.455 160.375L517.909 171.425Z" fill="#E4EC37"/>
<path d="M512.668 180.625L527.873 190.643L516.917 173.168L512.668 180.625Z" fill="#BBCF24"/>
<path d="M506.615 140.443L508.343 158.169L515.455 160.375L512.484 147.015L506.615 140.443ZM536.476 182.517L549.393 185.347L542.051 169.425L536.476 182.517Z" fill="#829726"/>
<path d="M549.393 185.347L554.171 170.5L542.051 169.425L549.393 185.347Z" fill="#6F8327"/>
<path d="M554.171 170.5L552.683 158.169L542.051 169.425L554.171 170.5Z" fill="#627526"/>
<path d="M536.476 182.517L533.562 173.168L540.989 171.92L536.476 182.517ZM537.276 253.435L539.429 227.66L556.612 239.014L537.276 253.435Z" fill="#BBCF24"/>
<path d="M537.276 253.435L554.171 254.422L556.612 239.014L537.276 253.435Z" fill="#829726"/>
<path d="M554.171 254.422L567.272 247.528L556.612 239.014L554.171 254.422Z" fill="#6F8327"/>
<path d="M567.272 247.528L587.276 258.188L582.384 229.012L567.272 247.528Z" fill="#6F8327"/>
<path d="M556.612 239.014L582.384 229.012L567.272 247.528L556.612 239.014ZM587.276 258.188L620.253 244.284L582.384 229.012L587.276 258.188Z" fill="#829726"/>
<path d="M620.253 244.284L617.279 222.516L582.384 229.012L620.253 244.284Z" fill="#6F8327"/>
<path d="M617.279 222.516L608.666 203.112L598.807 225.954L617.279 222.516Z" fill="#BBCF24"/>
<path d="M602.258 217.958L578.889 209.8L582.384 229.012L598.807 225.954L602.258 217.958Z" fill="#627526"/>
<path d="M578.889 209.8L590.573 204.391L593.913 215.045L578.889 209.8Z" fill="#BBCF24"/>
<path d="M578.889 209.8L561.422 218.604L573.56 232.435L582.384 229.012L578.889 209.8Z" fill="#6F8327"/>
<path d="M561.422 218.604L539.429 227.66L556.612 239.014L573.56 232.435L561.422 218.604ZM587.276 258.188L590.573 267.059L608.866 263.713L587.276 258.188Z" fill="#627526"/>
<path d="M608.866 263.713L620.253 244.284L587.276 258.188L608.866 263.713ZM587.829 176.525L601.571 188.354L607.542 174.902L587.829 176.525Z" fill="#6F8327"/>
<path d="M601.571 188.354L607.542 196.326V174.902L601.571 188.354Z" fill="#829726"/>
<path d="M607.542 196.326L621.741 187.213L607.542 179.207V196.326Z" fill="#6F8327"/>
<path d="M621.741 197.213L628.256 208.568L614.642 201.72L621.741 197.213Z" fill="#627526"/>
</svg>
