<svg width="231" height="231" viewBox="0 0 231 231" fill="none" xmlns="http://www.w3.org/2000/svg">
<path d="M230.266 115.133C230.266 178.719 178.719 230.266 115.133 230.266C77.0781 230.266 43.3398 211.809 22.3828 183.359C14.6367 172.855 8.64453 160.984 4.81641 148.176C1.67578 137.707 0 126.613 0 115.133C0 51.5469 51.5469 0 115.133 0C178.719 0 230.266 51.5469 230.266 115.133Z" fill="#FAC180"/>
<path d="M50.3984 85.0234C77.1875 95.7383 105.645 101.594 134.348 103.988C160.984 106.207 188.195 104.59 214.371 110.82C219.859 112.129 225.176 113.844 230.25 115.98C230.25 115.703 230.258 115.422 230.258 115.141C230.258 95.8633 225.512 77.6836 217.133 61.7188C206.313 62.8906 195.555 64.6328 184.777 66.1758C160.207 69.6875 135.746 71.4023 111.352 65.6641C89.9414 60.6172 68.8008 50.9414 52.4375 36.0391C49.1641 33.0508 45.6602 29.6602 42.3125 25.957C29.5781 36.3633 19.125 49.4414 11.7852 64.3438C23.5117 72.957 36.8594 79.6094 50.3984 85.0234Z" fill="#FDCF85"/>
<path d="M10.9922 164.277C29.4336 203.281 69.1289 230.266 115.133 230.266C161.137 230.266 200.832 203.281 219.273 164.277H10.9922Z" fill="#E83F56"/>
<path d="M180.371 64.3438C180.371 65.4961 180.316 66.6445 180.203 67.7891C180.09 68.9375 179.922 70.0742 179.695 71.2031C179.473 72.332 179.191 73.4492 178.859 74.5508C178.523 75.6523 178.137 76.7344 177.695 77.7969C177.254 78.8633 176.762 79.9023 176.219 80.918C175.676 81.9336 175.086 82.918 174.445 83.875C173.809 84.832 173.121 85.7578 172.391 86.6484C171.66 87.5391 170.891 88.3906 170.074 89.2031C169.262 90.0195 168.41 90.7891 167.52 91.5195C166.629 92.25 165.703 92.9375 164.746 93.5742C163.789 94.2148 162.805 94.8047 161.789 95.3477C160.773 95.8906 159.734 96.3828 158.668 96.8242C157.605 97.2656 156.523 97.6523 155.422 97.9883C154.32 98.3203 153.203 98.6016 152.074 98.8242C150.945 99.0508 149.809 99.2187 148.66 99.332C147.516 99.4453 146.367 99.5 145.215 99.5C144.063 99.5 142.914 99.4453 141.77 99.332C140.625 99.2187 139.488 99.0508 138.355 98.8242C137.227 98.6016 136.113 98.3203 135.012 97.9883C133.91 97.6523 132.824 97.2656 131.762 96.8242C130.699 96.3828 129.66 95.8906 128.645 95.3477C127.629 94.8047 126.641 94.2148 125.684 93.5742C124.727 92.9375 123.805 92.25 122.914 91.5195C122.023 90.7891 121.172 90.0195 120.355 89.2031C119.543 88.3906 118.77 87.5391 118.039 86.6484C117.309 85.7578 116.625 84.832 115.984 83.875C115.344 82.918 114.754 81.9336 114.211 80.918C113.668 79.9023 113.176 78.8633 112.734 77.7969C112.297 76.7344 111.906 75.6523 111.574 74.5508C111.238 73.4492 110.961 72.332 110.734 71.2031C110.512 70.0742 110.344 68.9375 110.23 67.7891C110.117 66.6445 110.059 65.4961 110.059 64.3438C110.059 63.1914 110.117 62.043 110.23 60.8984C110.344 59.7539 110.512 58.6172 110.734 57.4844C110.961 56.3555 111.238 55.2422 111.574 54.1406C111.906 53.0391 112.297 51.9531 112.734 50.8906C113.176 49.8281 113.668 48.7891 114.211 47.7734C114.754 46.7578 115.344 45.7695 115.984 44.8125C116.625 43.8555 117.309 42.9336 118.039 42.043C118.77 41.1523 119.543 40.3008 120.355 39.4844C121.172 38.6719 122.023 37.8984 122.914 37.168C123.805 36.4375 124.727 35.7539 125.684 35.1133C126.641 34.4727 127.629 33.8828 128.645 33.3398C129.66 32.7969 130.699 32.3047 131.762 31.8633C132.824 31.4258 133.91 31.0352 135.012 30.7031C136.113 30.3672 137.227 30.0898 138.355 29.8633C139.488 29.6406 140.625 29.4727 141.77 29.3594C142.914 29.2461 144.063 29.1875 145.215 29.1875C146.367 29.1875 147.516 29.2461 148.66 29.3594C149.809 29.4727 150.945 29.6406 152.074 29.8633C153.203 30.0898 154.32 30.3672 155.422 30.7031C156.523 31.0352 157.605 31.4258 158.668 31.8633C159.734 32.3047 160.773 32.7969 161.789 33.3398C162.805 33.8828 163.789 34.4727 164.746 35.1133C165.703 35.7539 166.629 36.4375 167.52 37.168C168.41 37.8984 169.262 38.6719 170.074 39.4844C170.891 40.3008 171.66 41.1523 172.391 42.043C173.121 42.9336 173.809 43.8555 174.445 44.8125C175.086 45.7695 175.676 46.7578 176.219 47.7734C176.762 48.7891 177.254 49.8281 177.695 50.8906C178.137 51.9531 178.523 53.0391 178.859 54.1406C179.191 55.2422 179.473 56.3555 179.695 57.4844C179.922 58.6172 180.09 59.7539 180.203 60.8984C180.316 62.043 180.371 63.1914 180.371 64.3438Z" fill="white" fill-opacity="0.2471"/>
<path d="M190.516 64.3438C190.516 65.8281 190.445 67.3086 190.297 68.7852C190.152 70.2617 189.938 71.7266 189.645 73.1836C189.355 74.6367 188.996 76.0742 188.566 77.4961C188.137 78.9141 187.637 80.3086 187.066 81.6797C186.5 83.0508 185.867 84.3906 185.168 85.6992C184.469 87.0078 183.707 88.2773 182.883 89.5117C182.059 90.7461 181.176 91.9375 180.234 93.082C179.293 94.2305 178.297 95.3281 177.25 96.3789C176.199 97.4258 175.102 98.4219 173.953 99.3633C172.809 100.305 171.617 101.187 170.383 102.012C169.148 102.836 167.879 103.598 166.57 104.297C165.262 104.996 163.922 105.629 162.551 106.195C161.18 106.766 159.785 107.266 158.367 107.695C156.945 108.125 155.508 108.484 154.055 108.773C152.598 109.066 151.133 109.281 149.656 109.426C148.18 109.574 146.699 109.645 145.215 109.645C143.73 109.645 142.254 109.574 140.777 109.426C139.301 109.281 137.832 109.066 136.379 108.773C134.922 108.484 133.484 108.125 132.066 107.695C130.645 107.266 129.25 106.766 127.879 106.195C126.508 105.629 125.168 104.996 123.859 104.297C122.551 103.598 121.281 102.836 120.047 102.012C118.812 101.187 117.625 100.305 116.477 99.3633C115.332 98.4219 114.23 97.4258 113.184 96.3789C112.133 95.3281 111.141 94.2305 110.199 93.082C109.258 91.9375 108.375 90.7461 107.551 89.5117C106.727 88.2773 105.965 87.0078 105.266 85.6992C104.566 84.3906 103.93 83.0508 103.363 81.6797C102.797 80.3086 102.297 78.9141 101.867 77.4961C101.434 76.0742 101.074 74.6367 100.785 73.1836C100.496 71.7266 100.277 70.2617 100.133 68.7852C99.9883 67.3086 99.9141 65.8281 99.9141 64.3438C99.9141 62.8594 99.9883 61.3828 100.133 59.9062C100.277 58.4297 100.496 56.9609 100.785 55.5078C101.074 54.0508 101.434 52.6133 101.867 51.1953C102.297 49.7734 102.797 48.3789 103.363 47.0078C103.93 45.6367 104.566 44.2969 105.266 42.9883C105.965 41.6797 106.727 40.4102 107.551 39.1758C108.375 37.9414 109.258 36.7539 110.199 35.6055C111.141 34.4609 112.133 33.3594 113.184 32.3125C114.23 31.2617 115.332 30.2695 116.477 29.3281C117.625 28.3867 118.812 27.5039 120.047 26.6797C121.281 25.8555 122.551 25.0937 123.859 24.3945C125.168 23.6953 126.508 23.0586 127.879 22.4922C129.25 21.9258 130.645 21.4258 132.066 20.9961C133.484 20.5625 134.922 20.2031 136.379 19.9141C137.832 19.625 139.301 19.4062 140.777 19.2617C142.254 19.1172 143.73 19.043 145.215 19.043C146.699 19.043 148.18 19.1172 149.656 19.2617C151.133 19.4062 152.598 19.625 154.055 19.9141C155.508 20.2031 156.945 20.5625 158.367 20.9961C159.785 21.4258 161.18 21.9258 162.551 22.4922C163.922 23.0586 165.262 23.6953 166.57 24.3945C167.879 25.0937 169.148 25.8555 170.383 26.6797C171.617 27.5039 172.809 28.3867 173.953 29.3281C175.102 30.2695 176.199 31.2617 177.25 32.3125C178.297 33.3594 179.293 34.4609 180.234 35.6055C181.176 36.7539 182.059 37.9414 182.883 39.1758C183.707 40.4102 184.469 41.6797 185.168 42.9883C185.867 44.2969 186.5 45.6367 187.066 47.0078C187.637 48.3789 188.137 49.7734 188.566 51.1953C188.996 52.6133 189.355 54.0508 189.645 55.5078C189.938 56.9609 190.152 58.4297 190.297 59.9062C190.445 61.3828 190.516 62.8594 190.516 64.3438Z" fill="white" fill-opacity="0.2471"/>
<path d="M170.695 64.3438C170.695 65.1797 170.656 66.0117 170.574 66.8438C170.492 67.6719 170.367 68.4961 170.207 69.3164C170.043 70.1328 169.84 70.9414 169.598 71.7422C169.355 72.5391 169.074 73.3242 168.758 74.0938C168.438 74.8672 168.082 75.6211 167.688 76.3555C167.293 77.0937 166.863 77.8086 166.402 78.5C165.938 79.1953 165.441 79.8633 164.91 80.5078C164.383 81.1523 163.824 81.7734 163.234 82.3633C162.645 82.9531 162.023 83.5117 161.379 84.043C160.734 84.5703 160.066 85.0664 159.371 85.5312C158.68 85.9961 157.961 86.4219 157.227 86.8164C156.492 87.2109 155.738 87.5664 154.965 87.8867C154.195 88.2031 153.41 88.4844 152.613 88.7266C151.813 88.9687 151.004 89.1719 150.188 89.3359C149.367 89.4961 148.543 89.6211 147.715 89.7031C146.883 89.7852 146.051 89.8242 145.215 89.8242C144.383 89.8242 143.547 89.7852 142.719 89.7031C141.887 89.6211 141.063 89.4961 140.246 89.3359C139.426 89.1719 138.617 88.9687 137.82 88.7266C137.02 88.4844 136.234 88.2031 135.465 87.8867C134.695 87.5664 133.941 87.2109 133.203 86.8164C132.469 86.4219 131.754 85.9961 131.059 85.5312C130.367 85.0664 129.695 84.5703 129.051 84.043C128.406 83.5117 127.789 82.9531 127.199 82.3633C126.609 81.7734 126.047 81.1523 125.52 80.5078C124.988 79.8633 124.492 79.1953 124.031 78.5C123.566 77.8086 123.137 77.0937 122.746 76.3555C122.352 75.6211 121.996 74.8672 121.676 74.0938C121.355 73.3242 121.074 72.5391 120.832 71.7422C120.59 70.9414 120.387 70.1328 120.227 69.3164C120.063 68.4961 119.941 67.6719 119.859 66.8438C119.777 66.0117 119.734 65.1797 119.734 64.3438C119.734 63.5117 119.777 62.6758 119.859 61.8477C119.941 61.0156 120.063 60.1914 120.227 59.375C120.387 58.5547 120.59 57.7461 120.832 56.9492C121.074 56.1484 121.355 55.3633 121.676 54.5938C121.996 53.8242 122.352 53.0703 122.746 52.332C123.137 51.5977 123.566 50.8828 124.031 50.1875C124.492 49.4961 124.988 48.8242 125.52 48.1797C126.047 47.5352 126.609 46.918 127.199 46.3281C127.789 45.7383 128.406 45.1797 129.051 44.6484C129.695 44.1172 130.367 43.6211 131.059 43.1602C131.754 42.6953 132.469 42.2656 133.203 41.875C133.941 41.4805 134.695 41.125 135.465 40.8047C136.234 40.4844 137.02 40.2031 137.82 39.9609C138.617 39.7187 139.426 39.5156 140.246 39.3555C141.063 39.1914 141.887 39.0703 142.719 38.9883C143.547 38.9062 144.383 38.8633 145.215 38.8633C146.051 38.8633 146.883 38.9062 147.715 38.9883C148.543 39.0703 149.367 39.1914 150.188 39.3555C151.004 39.5156 151.813 39.7187 152.613 39.9609C153.41 40.2031 154.195 40.4844 154.965 40.8047C155.738 41.125 156.492 41.4805 157.227 41.875C157.961 42.2656 158.68 42.6953 159.371 43.1602C160.066 43.6211 160.734 44.1172 161.379 44.6484C162.023 45.1797 162.645 45.7383 163.234 46.3281C163.824 46.918 164.383 47.5352 164.91 48.1797C165.441 48.8242 165.938 49.4961 166.402 50.1875C166.863 50.8828 167.293 51.5977 167.688 52.332C168.082 53.0703 168.438 53.8242 168.758 54.5938C169.074 55.3633 169.355 56.1484 169.598 56.9492C169.84 57.7461 170.043 58.5547 170.207 59.375C170.367 60.1914 170.492 61.0156 170.574 61.8477C170.656 62.6797 170.695 63.5117 170.695 64.3438Z" fill="#FFF48F"/>
<path d="M230.25 113.852H201.328V122.254H196.527V94.6445H169.512V142.066H165.309V73.6328L129.293 94.6445V129.457H117.289V80.2305H81.2773V112.047H71.6719V72.7305L50.6602 59.2266V88.0391H47.0586V78.4336H29.6484V111.449H0.0625C0.027343 112.668 0 113.898 0 115.133C0 178.719 51.5469 230.266 115.133 230.266C178.719 230.266 230.266 178.719 230.266 115.133C230.266 114.711 230.258 114.285 230.25 113.852Z" fill="#36566C"/>
<path d="M200.727 147.473V169.082H195.922V151.672H195.316V152.273H165.309V178.684H155.098V125.855H137.094V142.664H114.285V170.879H110.078V149.863H80.0664V164.875V116.848L53.0508 134.855V152.863H48.8477V122.246H23.6367V134.855H15.8281V127.047H0.613281C6.57813 185.031 55.5703 230.25 115.133 230.25C167.492 230.25 211.684 195.293 225.652 147.453H200.727V147.473Z" fill="#3C6589"/>
<path d="M28.5039 190.969C49.6055 215.059 80.5898 230.266 115.133 230.266C149.676 230.266 180.66 215.051 201.762 190.969H28.5039Z" fill="#B8D15C"/>
<path d="M133.129 190.969H97.207C94.9688 194.145 92.6953 197.297 90.5117 200.52C90.3008 200.824 90.1055 201.141 89.8945 201.449C86.3125 207.719 82.6836 213.965 79.0391 220.195C78.4141 221.414 77.7852 222.621 77.1602 223.84C89.0469 227.992 101.828 230.266 115.133 230.266C128.004 230.266 140.387 228.156 151.941 224.258C145.621 213.172 138.836 202.359 133.129 190.969Z" fill="#F6D164"/>
<path d="M200.391 192.469C204.309 188.152 207.898 183.531 211.133 178.656H165.309V178.684H155.098V178.656H19.0977C22.3281 183.531 25.9219 188.145 29.8398 192.469H200.391Z" fill="#729549"/>
<path d="M66.4297 181.879C66.4297 186.898 62.3594 190.969 57.3398 190.969C53.7383 190.969 50.6445 188.867 49.1719 185.844C47.8008 186.664 46.2109 187.141 44.4961 187.141C39.7227 187.141 35.8203 183.461 35.4414 178.785C35.1523 178.863 34.8672 178.918 34.5664 178.965C33.1328 182.086 29.9805 184.262 26.3164 184.262C24.9102 184.262 23.5742 183.937 22.3828 183.359C14.6367 172.855 8.64453 160.984 4.81641 148.176C5.52344 147.996 6.25391 147.906 7.01172 147.906C11.1562 147.906 14.6484 150.676 15.7383 154.469C17.3828 152.836 19.6484 151.824 22.1562 151.824C27.1758 151.824 31.2461 155.887 31.2461 160.914C31.2461 160.984 31.2383 161.047 31.2266 161.121C31.8594 160.984 32.5 160.914 33.168 160.914C37.9414 160.914 41.8516 164.586 42.2227 169.262C42.9531 169.07 43.7109 168.965 44.4961 168.965C48.0977 168.965 51.1914 171.059 52.6641 174.09C54.0352 173.27 55.625 172.789 57.3398 172.789C62.3594 172.789 66.4297 176.859 66.4297 181.879Z" fill="#729549"/>
<path d="M164.043 181.879C164.043 186.898 168.113 190.969 173.133 190.969C176.734 190.969 179.828 188.867 181.301 185.844C182.672 186.664 184.262 187.141 185.977 187.141C190.75 187.141 194.652 183.461 195.031 178.785C195.316 178.863 195.605 178.918 195.906 178.965C197.34 182.086 200.488 184.262 204.156 184.262C205.562 184.262 206.898 183.937 208.09 183.359C215.836 172.855 221.828 160.984 225.652 148.176C224.949 147.996 224.219 147.906 223.461 147.906C219.316 147.906 215.824 150.676 214.734 154.469C213.09 152.836 210.824 151.824 208.316 151.824C203.297 151.824 199.227 155.887 199.227 160.914C199.227 160.984 199.234 161.047 199.246 161.121C198.613 160.984 197.973 160.914 197.305 160.914C192.531 160.914 188.621 164.586 188.25 169.262C187.52 169.07 186.762 168.965 185.977 168.965C182.375 168.965 179.281 171.059 177.809 174.09C176.438 173.27 174.848 172.789 173.133 172.789C168.113 172.789 164.043 176.859 164.043 181.879Z" fill="#729549"/>
<path d="M39.8477 200.418C41.5898 200.418 41.5898 197.711 39.8477 197.711C38.1055 197.711 38.1055 200.418 39.8477 200.418Z" fill="#566C39"/>
<path d="M52.457 200.418C54.1992 200.418 54.1992 197.711 52.457 197.711C50.7148 197.711 50.707 200.418 52.457 200.418Z" fill="#566C39"/>
<path d="M53.3594 204.922C53.168 204.922 52.9883 204.922 52.8008 204.922C51.0586 204.922 51.0586 207.629 52.8008 207.629C52.9883 207.629 53.168 207.629 53.3594 207.629C55.1016 207.629 55.1016 204.922 53.3594 204.922C53.168 204.922 52.9883 204.922 52.8008 204.922C51.0586 204.922 51.0586 207.629 52.8008 207.629C52.9883 207.629 53.168 207.629 53.3594 207.629C55.1016 207.629 55.1016 204.922 53.3594 204.922Z" fill="#566C39"/>
<path d="M66.4102 199.969C66.4102 200.266 66.4102 200.57 66.4102 200.871C66.4102 201.574 67.0352 202.262 67.7656 202.223C68.4961 202.187 69.1172 201.629 69.1172 200.871C69.1172 200.57 69.1172 200.266 69.1172 199.969C69.1172 199.262 68.4961 198.578 67.7656 198.613C67.0352 198.648 66.4102 199.211 66.4102 199.969Z" fill="#566C39"/>
<path d="M64.1641 212.125C65.9063 212.125 65.9063 209.418 64.1641 209.418C62.4219 209.418 62.4141 212.125 64.1641 212.125Z" fill="#566C39"/>
<path d="M78.5703 207.629C80.3125 207.629 80.3125 204.922 78.5703 204.922C76.8281 204.922 76.8281 207.629 78.5703 207.629Z" fill="#566C39"/>
<path d="M74.0665 215.727C73.7657 215.727 73.461 215.727 73.1641 215.727C72.4571 215.727 71.7735 216.348 71.8087 217.082C71.8438 217.812 72.4024 218.434 73.1641 218.434C73.461 218.434 73.7657 218.434 74.0665 218.434C74.7696 218.434 75.4532 217.812 75.418 217.082C75.3829 216.34 74.8243 215.727 74.0665 215.727Z" fill="#566C39"/>
<path d="M156.969 216.125C156.668 215.824 156.363 215.52 156.066 215.223C155.551 214.707 154.664 214.707 154.152 215.223C153.637 215.734 153.637 216.621 154.152 217.133C154.449 217.434 154.758 217.738 155.055 218.039C155.57 218.551 156.453 218.551 156.969 218.039C157.48 217.516 157.48 216.637 156.969 216.125Z" fill="#566C39"/>
<path d="M155.109 207.629C156.852 207.629 156.852 204.922 155.109 204.922C153.367 204.922 153.355 207.629 155.109 207.629Z" fill="#566C39"/>
<path d="M167.707 204.922C169.449 204.922 169.449 202.215 167.707 202.215C165.965 202.215 165.965 204.922 167.707 204.922Z" fill="#566C39"/>
<path d="M164.105 210.32C163.809 210.32 163.504 210.32 163.203 210.32C162.5 210.32 161.813 210.941 161.852 211.676C161.887 212.406 162.445 213.027 163.203 213.027C163.504 213.027 163.809 213.027 164.105 213.027C164.813 213.027 165.496 212.406 165.461 211.676C165.434 210.941 164.863 210.32 164.105 210.32Z" fill="#566C39"/>
<path d="M180.316 200.418C180.129 200.418 179.945 200.418 179.758 200.418C178.016 200.418 178.016 203.125 179.758 203.125C179.945 203.125 180.129 203.125 180.316 203.125C182.059 203.125 182.059 200.418 180.316 200.418C180.129 200.418 179.945 200.418 179.758 200.418C178.016 200.418 178.016 203.125 179.758 203.125C179.945 203.125 180.129 203.125 180.316 203.125C182.059 203.125 182.059 200.418 180.316 200.418Z" fill="#566C39"/>
<path d="M191.121 199.523C192.863 199.523 192.863 196.816 191.121 196.816C189.379 196.816 189.379 199.523 191.121 199.523Z" fill="#566C39"/>
<path d="M171.309 212.125C173.051 212.125 173.051 209.418 171.309 209.418C169.566 209.418 169.566 212.125 171.309 212.125Z" fill="#566C39"/>
</svg>
