<svg width="377" height="320" viewBox="0 0 377 320" fill="none" xmlns="http://www.w3.org/2000/svg">
<path d="M264.145 129.486C265.797 129.361 267.055 127.947 266.977 126.287C265.617 97.7321 272.094 77.1422 277.766 64.8961C283.906 51.6305 290.453 45.0211 290.52 44.9508C291.711 43.7672 291.723 41.8258 290.535 40.6305C289.348 39.4313 287.414 39.4196 286.215 40.6031C285.922 40.8922 278.965 47.861 272.359 62.0016C266.336 74.9156 259.445 96.5992 260.867 126.576C260.945 128.267 262.375 129.568 264.063 129.486H264.145Z" fill="#2E7032"/>
<path d="M263.313 129.443C261.672 129.275 260.449 127.826 260.578 126.17C262.727 97.6618 257.891 69.5016 252.563 57.1071C246.789 43.6735 240.43 36.8844 240.367 36.8141C239.207 35.5875 239.25 33.6539 240.477 32.4899C241.691 31.3297 243.621 31.3688 244.789 32.5875C245.074 32.8844 251.836 40.0367 258.039 54.3649C263.707 67.4391 268.934 96.7008 266.676 126.627C266.551 128.314 265.082 129.58 263.398 129.451L263.313 129.443Z" fill="#2E7032"/>
<path d="M293.824 17.9156C274.098 27.0563 267.16 45.5172 285.07 48.3258C274.266 61.4938 294.172 70.4664 313.906 61.3297C333.633 52.1891 332.109 22.1266 347.477 19.4273C334.477 11.4039 313.559 8.77891 293.824 17.9156Z" fill="#48B74F"/>
<path d="M285.07 48.3258C285.07 48.3258 286.793 47.236 289.223 45.4781C290.449 44.6071 291.859 43.5797 293.348 42.4586C294.863 41.3688 296.426 40.1461 298.031 38.9938C298.82 38.3961 299.609 37.7946 300.406 37.2399C301.195 36.6735 301.957 36.0953 302.723 35.5758C303.477 35.0485 304.215 34.5406 304.91 34.0602C305.609 33.5719 306.289 33.1656 306.91 32.7516C307.527 32.3414 308.117 32.0211 308.637 31.7086C309.164 31.4039 309.617 31.1266 310.012 30.9547C310.797 30.5641 311.254 30.318 311.254 30.318C311.254 30.318 310.754 30.3727 309.863 30.5094C309.414 30.568 308.883 30.693 308.293 30.8844C307.699 31.0602 307.004 31.236 306.305 31.5485C305.602 31.8375 304.809 32.1266 304.039 32.5406C303.258 32.9352 302.418 33.3336 301.613 33.8375C300.793 34.3219 299.93 34.8024 299.121 35.3844C298.289 35.9313 297.461 36.5133 296.641 37.1071C295.828 37.7164 295.047 38.3531 294.266 38.9664C293.477 39.5797 292.773 40.2516 292.051 40.8649C290.641 42.1266 289.379 43.361 288.348 44.4664C286.258 46.6578 285.07 48.3258 285.07 48.3258Z" fill="#2E7032"/>
<path d="M228.516 3.1461C254.477 10.7516 266.418 32.1969 244.883 38.9508C260.609 53.1656 237.758 67.8766 211.797 60.2672C185.832 52.6617 182.172 15.3805 162.762 14.8883C177.289 2.61875 202.547 -4.46328 228.516 3.1461Z" fill="#48B74F"/>
<path d="M244.883 38.9508C244.883 38.9508 243.066 37.2008 240.059 34.943C238.563 33.8102 236.77 32.5524 234.797 31.275C233.793 30.6617 232.789 29.9703 231.715 29.3688C230.637 28.7555 229.559 28.1227 228.449 27.5367C227.336 26.9508 226.215 26.3883 225.09 25.8609C223.988 25.2984 222.852 24.8531 221.758 24.4C220.684 23.9195 219.582 23.5719 218.555 23.2242C217.543 22.8414 216.527 22.6227 215.609 22.3766C214.703 22.107 213.828 21.9938 213.07 21.8688C212.309 21.7281 211.641 21.6539 211.078 21.6539C209.973 21.6149 209.352 21.6188 209.352 21.6188C209.352 21.6188 209.957 21.8102 211 22.1149C211.523 22.2399 212.145 22.4742 212.848 22.7399C213.555 23.0055 214.348 23.2711 215.195 23.6539C216.043 24.0289 216.965 24.3883 217.922 24.8492C218.875 25.3024 219.887 25.7633 220.922 26.2867C221.957 26.7789 223.016 27.3336 224.094 27.8883C225.18 28.4234 226.266 29.0094 227.352 29.6031C229.547 30.7281 231.695 31.9508 233.75 33.0406C235.793 34.1539 237.703 35.1852 239.336 36.0758C242.625 37.8453 244.883 38.9508 244.883 38.9508Z" fill="#2E7032"/>
<path d="M33.1953 319.392H230.688V120.72H33.1953V319.392Z" fill="#707678"/>
<path d="M29.5391 128.267H234.344V118.888H29.5391V128.267Z" fill="#303235"/>
<path d="M1.29688 319.392H127.773V227.255H1.29688V319.392Z" fill="#8D8D94"/>
<path d="M2.33984 211.341H15.8398V225.63H2.33984V211.341ZM31.6836 225.63H18.1836V211.341H31.6836V225.63ZM47.5234 225.63H34.0234V211.341H47.5234V225.63ZM63.3633 225.63H49.8633V211.341H63.3633V225.63ZM79.207 225.63H65.707V211.341H79.207V225.63ZM95.0469 225.63H81.5469V211.341H95.0469V225.63ZM110.883 225.63H97.3867V211.341H110.883V225.63ZM126.73 225.63H113.223V211.341H126.73V225.63ZM0 210.17V226.802C0 227.447 0.527344 227.974 1.17188 227.974H127.898C128.543 227.974 129.07 227.447 129.07 226.802V210.17C129.07 209.525 128.543 208.998 127.898 208.998H1.17188C0.527344 208.998 0 209.525 0 210.17Z" fill="#040606"/>
<path d="M16.2148 319.392H112.855V253.318H16.2148V319.392Z" fill="#303235"/>
<path d="M11.9727 255.353H117.098V249.693H11.9727V255.353Z" fill="#303235"/>
<path d="M107.555 184.408H156.336V195.838H107.555V184.408Z" fill="#B0B2B3"/>
<path d="M110.773 180.67H153.039V151.173H110.773V180.67Z" fill="#303235"/>
<path d="M115.441 177.412H148.375V154.431H115.441V177.412Z" fill="#4CBBB9"/>
<path d="M107.66 185.896H156.152V180.24H107.66V185.896Z" fill="#303235"/>
<path d="M40.8359 184.408H89.6133V195.838H40.8359V184.408Z" fill="#B0B2B3"/>
<path d="M44.0586 180.67H86.3242V151.173H44.0586V180.67Z" fill="#303235"/>
<path d="M48.7266 177.412H81.6562V154.431H48.7266V177.412Z" fill="#4CBBB9"/>
<path d="M40.9414 185.896H89.4336V180.24H40.9414V185.896Z" fill="#303235"/>
<path d="M309.926 215.369H356.992L345.57 95.5719H322.723L309.926 215.369Z" fill="#B0B2B3"/>
<path d="M318.23 137.638L319.547 125.291H348.406L349.578 137.638H318.23Z" fill="#4CBBB9"/>
<path d="M321.137 110.431L322.188 100.603H346.051L346.988 110.431H321.137Z" fill="#4CBBB9"/>
<path d="M240.469 215.369H287.535L276.113 95.5719H253.266L240.469 215.369Z" fill="#B0B2B3"/>
<path d="M248.77 137.638L250.094 125.291H278.949L280.125 137.638H248.77Z" fill="#4CBBB9"/>
<path d="M251.68 110.431L252.73 100.603H276.594L277.531 110.431H251.68Z" fill="#4CBBB9"/>
<path d="M231.168 168.048V210.115L303.82 168.048V210.115L376.48 168.048V319.392H158.512V210.115L231.168 168.048Z" fill="#B0B2B3"/>
<path d="M376.48 168.048V184.509L303.82 226.576V210.115L376.48 168.048Z" fill="#303235"/>
<path d="M303.82 168.048V184.509L231.168 226.576V210.115L303.82 168.048Z" fill="#303235"/>
<path d="M231.168 168.048V184.509L158.512 226.576V210.115L231.168 168.048Z" fill="#303235"/>
<path d="M170.562 265.154H219.344V276.584H170.562V265.154Z" fill="#707678"/>
<path d="M173.785 261.412H216.051V231.92H173.785V261.412Z" fill="#303235"/>
<path d="M178.453 258.15H211.383V235.173H178.453V258.15Z" fill="#4CBBB9"/>
<path d="M170.672 266.642H219.164V260.982H170.672V266.642Z" fill="#303235"/>
<path d="M315.648 265.154H364.43V276.584H315.648V265.154Z" fill="#707678"/>
<path d="M318.867 261.412H361.137V231.92H318.867V261.412Z" fill="#303235"/>
<path d="M323.535 258.15H356.465V235.173H323.535V258.15Z" fill="#4CBBB9"/>
<path d="M315.754 266.642H364.25V260.982H315.754V266.642Z" fill="#303235"/>
<path d="M240.938 266.591L253.047 267.892L235.898 299.06L225.609 286.291L240.938 266.591Z" fill="white"/>
<path d="M256.844 301.404L258.141 289.291L225.695 286.396L235.98 299.162L256.844 301.404Z" fill="white"/>
<path d="M256.254 300.17L255.438 307.775L275.398 297.271L258.121 282.771L257.305 290.396" fill="white"/>
<path d="M286.617 246.584L280.336 257.029L259.312 228.334L275.223 224.377L286.617 246.584Z" fill="white"/>
<path d="M248.359 246.345L258.793 252.634L275.094 224.412L259.18 228.365L248.359 246.345Z" fill="white"/>
<path d="M249.727 246.338L243.18 242.388L244.285 264.931L264.711 255.361L258.145 251.408" fill="white"/>
<path d="M280.648 300.322L274.238 289.966L309.352 284.341L305.605 300.31L280.648 300.322Z" fill="white"/>
<path d="M298.328 266.369L287.977 272.787L305.633 300.177L309.379 284.213L298.328 266.369Z" fill="white"/>
<path d="M297.711 267.591L304.211 263.568L283.664 254.259L282.848 276.81L289.363 272.775" fill="white"/>
<path d="M94.6992 284.611C94.6992 299.107 82.9453 310.861 68.4492 310.861C53.9492 310.861 42.1992 299.107 42.1992 284.611C42.1992 270.115 53.9492 258.361 68.4492 258.361C82.9453 258.361 94.6992 270.115 94.6992 284.611Z" fill="#6AB17C"/>
<path d="M68.8633 295.806H68.836C62.5117 295.783 53.2031 288.013 68.836 271.877C68.8711 271.838 68.9102 271.798 68.9453 271.759C84.375 288.111 75.2031 295.806 68.8633 295.806Z" fill="#82D5DA"/>
<path d="M68.8633 295.806H68.8359V271.877C68.8711 271.838 68.9102 271.798 68.9453 271.759C84.375 288.111 75.2031 295.806 68.8633 295.806Z" fill="#61CBDA"/>
<path d="M54.8828 268.849C58.1953 265.537 62.7695 263.486 67.8242 263.486C77.9336 263.486 86.125 271.681 86.125 281.791" stroke="#DDDBDD" stroke-width="1.02892" stroke-miterlimit="10" stroke-linecap="round" stroke-linejoin="round"/>
<path d="M92.6875 281.795H79.5625L86.125 289.849L92.6875 281.795Z" fill="#DDDAC1"/>
<path d="M82.0156 300.373C78.7031 303.685 74.125 305.736 69.0742 305.736C58.9648 305.736 50.7695 297.541 50.7695 287.431" stroke="#DDDAC1" stroke-width="1.02892" stroke-miterlimit="10" stroke-linecap="round" stroke-linejoin="round"/>
<path d="M44.2109 287.423H57.332L50.7695 279.373L44.2109 287.423Z" fill="#DDDAC1"/>
</svg>
