<svg width="110" height="236" viewBox="0 0 110 236" fill="none" xmlns="http://www.w3.org/2000/svg">
<path d="M99.0234 76.3516H68.793V65.332C68.793 63.5508 70.2383 62.1055 72.0234 62.1055H95.7969C97.5781 62.1055 99.0234 63.5508 99.0234 65.332V76.3516Z" fill="#F9A72B"/>
<path d="M73.1445 81.8867H94.6719V76.3516H73.1445V81.8867Z" fill="#ABE1D4"/>
<path d="M73.1445 79.1172H94.6719V76.3516H73.1445V79.1172Z" fill="#80D3CD"/>
<path d="M105.277 111.828H62.5391C60.0664 111.828 58.0664 109.824 58.0664 107.352V99.5273C58.0664 89.7852 65.9688 81.8867 75.7188 81.8867H92.1016C101.852 81.8867 109.754 89.7852 109.754 99.5273V107.352C109.754 109.824 107.75 111.828 105.277 111.828Z" fill="#ABE1D4"/>
<path d="M105.289 165.672H62.5312C60.0625 165.672 58.0664 163.672 58.0664 161.207V152.324C58.0664 149.859 60.0625 147.859 62.5312 147.859H105.289C107.754 147.859 109.754 149.859 109.754 152.324V161.207C109.754 163.672 107.754 165.672 105.289 165.672Z" fill="#ABE1D4"/>
<path d="M63.8008 156.766C63.8008 155.012 65.2227 153.594 66.9727 153.594H100.844C102.598 153.594 104.02 155.012 104.02 156.766C104.02 158.52 102.598 159.938 100.844 159.938H66.9727C65.2227 159.938 63.8008 158.52 63.8008 156.766Z" fill="#80D3CD"/>
<path d="M105.289 183.48H62.5312C60.0625 183.48 58.0664 181.48 58.0664 179.016V170.133C58.0664 167.668 60.0625 165.672 62.5312 165.672H105.289C107.754 165.672 109.754 167.668 109.754 170.133V179.016C109.754 181.48 107.754 183.48 105.289 183.48Z" fill="#ABE1D4"/>
<path d="M63.8008 174.574C63.8008 172.824 65.2227 171.402 66.9727 171.402H100.844C102.598 171.402 104.02 172.824 104.02 174.574C104.02 176.328 102.598 177.746 100.844 177.746H66.9727C65.2227 177.746 63.8008 176.328 63.8008 174.574Z" fill="#80D3CD"/>
<path d="M105.289 201.289H62.5312C60.0625 201.289 58.0664 199.289 58.0664 196.824V187.941C58.0664 185.477 60.0625 183.48 62.5312 183.48H105.289C107.754 183.48 109.754 185.477 109.754 187.941V196.824C109.754 199.289 107.754 201.289 105.289 201.289Z" fill="#ABE1D4"/>
<path d="M63.8008 192.383C63.8008 190.633 65.2227 189.211 66.9727 189.211H100.844C102.598 189.211 104.02 190.633 104.02 192.383C104.02 194.137 102.598 195.555 100.844 195.555H66.9727C65.2227 195.555 63.8008 194.137 63.8008 192.383Z" fill="#80D3CD"/>
<path d="M97.707 235.727H70.1133C63.457 235.727 58.0664 230.336 58.0664 223.684V205.75C58.0664 203.285 60.0625 201.289 62.5312 201.289H105.289C107.754 201.289 109.754 203.285 109.754 205.75V223.684C109.754 230.336 104.359 235.727 97.707 235.727Z" fill="#ABE1D4"/>
<path d="M63.8008 221.562V211.492C63.8008 209.023 65.8047 207.02 68.2773 207.02H99.543C102.016 207.02 104.02 209.023 104.02 211.492V221.562C104.02 226.219 100.242 229.992 95.582 229.992H72.2383C67.5781 229.992 63.8008 226.219 63.8008 221.562Z" fill="#80D3CD"/>
<path d="M65.9961 91.3438C64.625 93.0469 63.8008 95.2109 63.8008 97.5703V102.922C63.8008 104.672 65.2227 106.094 66.9727 106.094H100.844C102.598 106.094 104.02 104.672 104.02 102.922V97.5703C104.02 95.2109 103.191 93.0469 101.82 91.3438H65.9961Z" fill="#80D3CD"/>
<path d="M65.9961 91.3438H101.82C99.9961 89.0742 97.1992 87.6172 94.0625 87.6172H73.7578C70.6172 87.6172 67.8203 89.0742 65.9961 91.3438Z" fill="white"/>
<path d="M88.4609 88.7109H79.3594V79.1172H88.4609V88.7109Z" fill="white"/>
<path d="M90.8984 62.1055V70.6172C90.8984 71.3086 91.4609 71.8711 92.1523 71.8711C92.8477 71.8711 93.4102 71.3086 93.4102 70.6172V62.1055H90.8984Z" fill="#F89C22"/>
<path d="M82.6562 62.1055V70.6172C82.6562 71.3086 83.2148 71.8711 83.9102 71.8711C84.6016 71.8711 85.1641 71.3086 85.1641 70.6172V62.1055H82.6562Z" fill="#F89C22"/>
<path d="M74.4102 62.1055V70.6172C74.4102 71.3086 74.9727 71.8711 75.6641 71.8711C76.3555 71.8711 76.918 71.3086 76.918 70.6172V62.1055H74.4102Z" fill="#F89C22"/>
<path d="M92.2578 235.617V233.594C95.4297 233.594 98.0156 230.246 98.0156 226.129V203.559C98.0156 202.402 97.3281 201.426 96.5156 201.426V199.406C97.3281 199.406 98.0156 198.43 98.0156 197.277V185.879C98.0156 184.727 97.3281 183.75 96.5156 183.75V181.73C97.3281 181.73 98.0156 180.75 98.0156 179.598V168.203C98.0156 167.047 97.3281 166.07 96.5156 166.07V164.051C97.3281 164.051 98.0156 163.074 98.0156 161.918V150.52C98.0156 149.363 97.3281 148.391 96.5156 148.391H95.2344V110.598H96.5117C97.3242 110.598 98.0156 109.617 98.0156 108.457V94.3047C98.0156 88.0156 94.0156 82.8945 89.1055 82.8945V80.875C95.1328 80.875 100.039 86.9023 100.039 94.3047V108.457C100.039 110.453 98.8438 112.121 97.2578 112.527V146.461C98.8438 146.863 100.039 148.531 100.039 150.52V161.918C100.039 163.172 99.5625 164.297 98.8164 165.059C99.5625 165.82 100.039 166.949 100.039 168.203V179.598C100.039 180.852 99.5625 181.977 98.8164 182.738C99.5625 183.5 100.039 184.625 100.039 185.879V197.277C100.039 198.531 99.5625 199.656 98.8164 200.418C99.5625 201.18 100.039 202.305 100.039 203.559V226.129C100.039 231.359 96.5469 235.617 92.2578 235.617Z" fill="#ABE1D4"/>
<path d="M62.1953 147.859H106.246V111.828H62.1953V147.859Z" fill="#83C443"/>
<path d="M62.1953 147.859H106.246V144.996H62.1953V147.859Z" fill="#63AB40"/>
<path d="M62.1953 114.691H106.246V111.824H62.1953V114.691Z" fill="#63AB40"/>
<path d="M90.5117 125.461H90.7031C90.9648 125.461 91.2305 125.465 91.4922 125.469C91.9492 125.473 92.4023 125.434 92.8867 125.516L90.9727 122.676C90.9297 122.617 90.8945 122.559 90.8516 122.496C90.7773 122.379 90.6992 122.254 90.6094 122.145C90.3398 121.813 90 121.645 89.5977 121.645L86.8945 121.715C86.6211 121.715 86.6133 121.523 86.6133 121.453L86.5898 120.797L86.5547 120.859C86.418 121.098 86.2813 121.332 86.1445 121.566C85.7383 122.262 85.3359 122.961 84.9258 123.656C85.1367 124.016 85.3477 124.379 85.5586 124.738L86.6172 126.57C86.6172 126.504 86.6133 126.441 86.6094 126.379L86.5859 125.824C86.5781 125.648 86.6562 125.559 86.8359 125.551L89.6094 125.48C89.9102 125.473 90.2109 125.461 90.5117 125.461Z" fill="white"/>
<path d="M93.4844 130.191C93.6562 129.891 93.8281 129.594 94.0039 129.301C94.1875 128.992 94.2969 128.715 94.3398 128.438C94.3828 128.137 94.3555 127.848 94.2539 127.578C94.1602 127.328 94.0117 127.09 93.8086 126.875C93.4297 126.469 93 126.266 92.4961 126.258C91.9219 126.242 91.3438 126.25 90.7695 126.242C90.6914 126.41 90.5859 126.59 90.4844 126.77L88.3711 130.406L92.1758 132.445L93.4844 130.191Z" fill="white"/>
<path d="M81.2891 133.332L80.6133 133.371C80.2461 133.395 79.8789 133.418 79.5156 133.441L79.4609 133.477C79.3203 133.73 79.1797 133.984 79.0391 134.238L77.8789 136.312L78.4766 135.965C78.5156 135.941 78.5625 135.918 78.6172 135.918C78.7344 135.918 78.793 136.012 78.8164 136.039C78.8516 136.098 78.8906 136.16 78.9297 136.219L79.5625 137.227C79.7617 137.547 79.9453 137.836 80.1328 138.125L80.168 138.184C80.2383 138.289 80.3008 138.387 80.3789 138.465C80.6172 138.707 80.9102 138.832 81.25 138.836C81.8047 138.844 82.3594 138.844 82.9141 138.844L85.3711 138.855C85.2656 138.75 85.1719 138.633 85.0859 138.496L84.3203 137.32C84.2031 137.141 84.0859 136.965 83.9688 136.781C83.7812 136.484 83.5938 136.184 83.4062 135.887L82.1758 133.945C82.1602 133.918 82.1172 133.848 82.1367 133.758C82.1602 133.668 82.2344 133.625 82.2617 133.609L82.9297 133.234L82.0078 133.289C81.7695 133.301 81.5273 133.316 81.2891 133.332Z" fill="white"/>
<path d="M84.9727 136.879L85.2109 137.246C85.3867 137.512 85.5586 137.773 85.7305 138.043C85.9922 138.449 86.3633 138.711 86.8711 138.832C87.0391 138.871 87.2266 138.891 87.4727 138.891H87.5977C87.8125 138.887 88.0156 138.848 88.2031 138.773C88.6484 138.602 88.9961 138.309 89.2305 137.895C89.4609 137.5 89.6797 137.102 89.9023 136.703L91.0625 134.625L91.1055 134.543L87.2617 132.574L85.1953 136.273C85.1016 136.441 85.0039 136.613 84.9062 136.781L84.9727 136.879Z" fill="white"/>
<path d="M76.4648 125.812L77.0547 125.785C77.3437 125.77 77.6328 125.758 77.9258 125.746C78.125 125.738 78.3242 125.734 78.5273 125.73L81.4414 125.672C81.7188 125.672 81.7227 125.871 81.7227 125.945L81.7344 126.668L81.7422 126.652L82.3789 125.41C82.6758 124.836 82.9766 124.254 83.2734 123.68C82.9727 123.227 82.6758 122.773 82.3828 122.316L81.4688 120.906L81.4805 121.566C81.4805 121.742 81.3984 121.828 81.2227 121.836C81.1172 121.84 81.0117 121.844 80.9062 121.844L80.3594 121.855C79.8164 121.867 79.2695 121.879 78.7227 121.895H78.6445C78.4844 121.898 78.3359 121.898 78.1953 121.945C77.8984 122.043 77.6758 122.211 77.5234 122.445C77.3555 122.695 77.2031 122.957 77.0469 123.215L75.4297 125.898C75.6172 125.859 75.8086 125.836 76.0078 125.832C76.1602 125.828 76.3125 125.82 76.4648 125.812Z" fill="white"/>
<path d="M79.8555 130.086L78.7695 128.422C78.3633 127.797 77.957 127.168 77.5547 126.539C77.0039 126.566 76.457 126.594 75.9141 126.617C75.4961 126.637 75.1289 126.785 74.8008 127.066C74.6055 127.238 74.4375 127.457 74.2774 127.754C74.1485 127.996 74.082 128.25 74.082 128.516C74.0781 128.898 74.1836 129.262 74.3945 129.598C74.5781 129.887 74.7695 130.176 74.957 130.465L76.4805 132.805L80.1797 130.586C80.0742 130.418 79.9649 130.254 79.8555 130.086Z" fill="white"/>
<path d="M68.793 65.332V65.1992C68.793 63.4883 70.1797 62.1055 71.8906 62.1055H72.0234C70.2383 62.1055 68.793 63.5508 68.793 65.332Z" fill="#BDD8D7"/>
<path d="M74.4922 76.3516H68.793V65.332C68.793 63.5508 70.2383 62.1055 72.0234 62.1055H74.4102V70.6172C74.4102 71.3086 74.9727 71.8711 75.6641 71.8711C76.3555 71.8711 76.918 71.3086 76.918 70.6172V62.1055H79.0898V69.3125C79.0898 71.6094 77.2266 73.4688 74.9336 73.4688H74.4922V76.3516Z" fill="#BCA24C"/>
<path d="M73.1445 81.8828H74.4922V79.1172H73.1445V81.8828Z" fill="#84C5BD"/>
<path d="M74.4922 79.1172H73.1445V76.3516H74.4922V79.1172Z" fill="#67BCB9"/>
<path d="M75.6641 71.8711C74.9727 71.8711 74.4102 71.3086 74.4102 70.6172V62.1055H76.918V70.6172C76.918 71.3086 76.3555 71.8711 75.6641 71.8711Z" fill="#BC9A45"/>
<path d="M68.7578 235.684C62.7813 235.242 58.0664 230.27 58.0664 224.184V223.684C58.0664 229.937 62.832 235.074 68.9258 235.668C68.8711 235.672 68.8164 235.68 68.7578 235.684ZM58.0664 205.75V205.566C58.0664 203.203 59.9805 201.289 62.3477 201.289C59.9805 201.289 58.0664 199.371 58.0664 197.008V196.824C58.0664 199.289 60.0625 201.289 62.5312 201.289H79.0898H62.5312C60.0625 201.289 58.0664 203.285 58.0664 205.75ZM58.0664 187.941V187.758C58.0664 185.395 59.9805 183.48 62.3477 183.48C59.9805 183.48 58.0664 181.562 58.0664 179.199V179.016C58.0664 181.48 60.0625 183.48 62.5312 183.48H79.0898H62.5312C60.0625 183.48 58.0664 185.477 58.0664 187.941ZM58.0664 170.133V169.949C58.0664 167.586 59.9805 165.672 62.3477 165.672C59.9805 165.672 58.0664 163.754 58.0664 161.391V161.207C58.0664 163.672 60.0625 165.672 62.5312 165.672H78.2383H62.5312C60.0625 165.672 58.0664 167.668 58.0664 170.133ZM58.0664 152.324V152.141C58.0664 149.777 59.9805 147.859 62.3477 147.859H62.1953V111.824V147.859H62.5312C60.0625 147.859 58.0664 149.859 58.0664 152.324Z" fill="#BDD8D7"/>
<path d="M78.2383 165.672H62.5312C60.0625 165.672 58.0664 163.672 58.0664 161.207V152.324C58.0664 149.859 60.0625 147.859 62.5312 147.859H79.0781C79.0859 147.945 79.0898 148.035 79.0898 148.125V153.594H66.9727C65.2227 153.594 63.8008 155.012 63.8008 156.766C63.8008 158.52 65.2227 159.938 66.9727 159.938H79.0898V163.16C79.0898 164.102 78.7734 164.973 78.2383 165.672Z" fill="#84C5BD"/>
<path d="M79.0898 159.938H66.9727C65.2227 159.938 63.8008 158.52 63.8008 156.766C63.8008 155.012 65.2227 153.594 66.9727 153.594H79.0898V159.938Z" fill="#67BCB9"/>
<path d="M79.0898 183.48H62.5312C60.0625 183.48 58.0664 181.48 58.0664 179.016V170.133C58.0664 167.668 60.0625 165.672 62.5312 165.672H78.2383C77.4844 166.664 76.2891 167.305 74.9414 167.305C77.2148 167.305 79.0625 169.133 79.0898 171.402H66.9727C65.2227 171.402 63.8008 172.824 63.8008 174.574C63.8008 176.328 65.2227 177.746 66.9727 177.746H79.0898V183.48Z" fill="#84C5BD"/>
<path d="M79.0898 177.746H66.9727C65.2227 177.746 63.8008 176.328 63.8008 174.574C63.8008 172.824 65.2227 171.402 66.9727 171.402H79.0898C79.0898 171.418 79.0898 171.434 79.0898 171.445V177.746Z" fill="#67BCB9"/>
<path d="M79.0898 201.289H62.5312C60.0625 201.289 58.0664 199.289 58.0664 196.824V187.941C58.0664 185.477 60.0625 183.48 62.5312 183.48H79.0898V186.484C79.0898 187.527 78.7031 188.484 78.0625 189.211H66.9727C65.2227 189.211 63.8008 190.633 63.8008 192.383C63.8008 194.137 65.2227 195.555 66.9727 195.555H79.0898V201.289Z" fill="#84C5BD"/>
<path d="M79.0898 195.555H66.9727C65.2227 195.555 63.8008 194.137 63.8008 192.383C63.8008 190.633 65.2227 189.211 66.9727 189.211H78.0625C77.3008 190.078 76.1875 190.625 74.9414 190.625C77.2305 190.625 79.0898 192.48 79.0898 194.77V195.555Z" fill="#67BCB9"/>
<path d="M68.9258 235.668C62.832 235.074 58.0664 229.937 58.0664 223.684V205.75C58.0664 203.285 60.0625 201.289 62.5312 201.289H79.0898V207.02H68.2773C65.8047 207.02 63.8008 209.023 63.8008 211.492V221.562C63.8008 226.219 67.5781 229.992 72.2383 229.992H77.668C75.9141 233.125 72.6875 235.324 68.9258 235.668Z" fill="#84C5BD"/>
<path d="M77.668 229.992H72.2383C67.5781 229.992 63.8008 226.219 63.8008 221.562V211.492C63.8008 209.023 65.8047 207.02 68.2773 207.02H79.0898V224.543C79.0898 226.523 78.5742 228.383 77.668 229.992Z" fill="#67BCB9"/>
<path d="M62.4961 111.824H62.3555C59.9844 111.824 58.0664 109.906 58.0664 107.535V107.352C58.0664 109.809 60.043 111.805 62.4961 111.824ZM58.0664 99.5273V98.8008C58.0664 89.625 65.3789 82.1758 74.4922 81.9102V81.9258C65.3164 82.5547 58.0664 90.1953 58.0664 99.5273Z" fill="#BDD8D7"/>
<path d="M74.4922 111.824H62.4961C60.043 111.805 58.0664 109.809 58.0664 107.352V99.5273C58.0664 90.1953 65.3164 82.5547 74.4922 81.9258V87.6172H73.7578C70.6172 87.6172 67.8203 89.0742 65.9961 91.3438C64.625 93.0469 63.8008 95.2109 63.8008 97.5703V102.922C63.8008 104.672 65.2227 106.094 66.9727 106.094H74.4922V111.824Z" fill="#84C5BD"/>
<path d="M74.4922 106.094H66.9727C65.2227 106.094 63.8008 104.672 63.8008 102.922V97.5703C63.8008 95.2109 64.625 93.0469 65.9961 91.3438H74.4922V106.094Z" fill="#67BCB9"/>
<path d="M74.4922 91.3438H65.9961C67.8203 89.0742 70.6172 87.6172 73.7578 87.6172H74.4922V91.3438Z" fill="#BDD9D7"/>
<path d="M62.1953 147.859V111.828V114.691H74.4922V120.656H74.9414C76.1602 120.656 77.2539 121.18 78.0117 122.02C77.8047 122.117 77.6406 122.258 77.5234 122.445C77.3555 122.695 77.2031 122.957 77.0469 123.215L75.4297 125.898C75.6172 125.859 75.8086 125.836 76.0078 125.832C76.1602 125.828 76.3125 125.82 76.4648 125.812L77.0547 125.785C77.3437 125.77 77.6328 125.758 77.9258 125.746C78.125 125.738 78.3242 125.734 78.5273 125.73L79.0898 125.723V128.91L78.7695 128.422C78.3633 127.797 77.957 127.168 77.5547 126.539C77.0039 126.566 76.457 126.594 75.9141 126.617C75.4961 126.637 75.1289 126.785 74.8008 127.066C74.6055 127.238 74.4375 127.457 74.2773 127.754C74.1484 127.996 74.082 128.25 74.082 128.516C74.0781 128.898 74.1836 129.262 74.3945 129.598C74.5781 129.887 74.7695 130.176 74.957 130.465L76.4805 132.805L79.0898 131.242V134.148C79.0703 134.18 79.0547 134.211 79.0391 134.238L77.8789 136.312L78.4766 135.965C78.5156 135.941 78.5625 135.918 78.6172 135.918C78.7344 135.918 78.793 136.012 78.8164 136.039C78.8516 136.098 78.8906 136.16 78.9297 136.219L79.0898 136.473V139.836C79.0898 142.125 77.2305 143.98 74.9414 143.98C75.9805 143.98 76.9336 144.363 77.6602 144.996H62.1953V147.859Z" fill="#69B25F"/>
<path d="M79.0781 147.859H62.1953V144.996H77.6602C78.4727 145.699 79.0078 146.719 79.0781 147.859Z" fill="#54A05A"/>
<path d="M74.4922 114.691H62.1953V111.824H74.4922V114.691Z" fill="#54A05A"/>
<path d="M79.0898 136.473L78.9297 136.219C78.8906 136.16 78.8516 136.098 78.8164 136.039C78.793 136.012 78.7344 135.918 78.6172 135.918C78.5625 135.918 78.5156 135.941 78.4766 135.965L77.8789 136.312L79.0391 134.238C79.0547 134.211 79.0703 134.18 79.0898 134.148V136.473Z" fill="#BDD9D7"/>
<path d="M75.4297 125.898L77.0469 123.215C77.2031 122.957 77.3555 122.695 77.5234 122.445C77.6406 122.258 77.8047 122.117 78.0117 122.02C78.6797 122.754 79.0898 123.73 79.0898 124.801V125.723L78.5273 125.73C78.3242 125.734 78.125 125.738 77.9258 125.746C77.6328 125.758 77.3437 125.77 77.0547 125.785L76.4648 125.812C76.3125 125.82 76.1602 125.828 76.0078 125.832C75.8086 125.836 75.6172 125.859 75.4297 125.898Z" fill="#BDD9D7"/>
<path d="M76.4805 132.805L74.957 130.465C74.7695 130.176 74.5781 129.887 74.3945 129.598C74.1836 129.262 74.0781 128.898 74.082 128.516C74.082 128.25 74.1485 127.996 74.2774 127.754C74.4375 127.457 74.6055 127.238 74.8008 127.066C75.1289 126.785 75.4961 126.637 75.9141 126.617C76.457 126.594 77.0039 126.566 77.5547 126.539C77.957 127.168 78.3633 127.797 78.7695 128.422L79.0899 128.91V131.242L76.4805 132.805Z" fill="#BDD9D7"/>
<path d="M55.9883 20.25H15.1133V4.21484C15.1133 2.43359 16.5586 0.988281 18.3438 0.988281H52.7578C54.5391 0.988281 55.9883 2.43359 55.9883 4.21484V20.25Z" fill="#83C443"/>
<path d="M50.1016 27.7344H20.9961V20.25H50.1016V27.7344Z" fill="#ABE1D4"/>
<path d="M50.1016 23.9922V20.25H20.9961V23.9922H50.1016Z" fill="#80D3CD"/>
<path d="M66.0156 68.2109H5.08203C2.60938 68.2109 0.609375 66.2109 0.609375 63.7383V45.375C0.609375 35.6328 8.51172 27.7344 18.2617 27.7344H52.8398C62.5898 27.7344 70.4922 35.6328 70.4922 45.375V63.7383C70.4922 66.2109 68.4883 68.2109 66.0156 68.2109Z" fill="#ABE1D4"/>
<path d="M66.0273 141.008H5.07031C2.60547 141.008 0.609375 139.012 0.609375 136.547V121.395C0.609375 118.93 2.60547 116.93 5.07031 116.93H66.0273C68.4922 116.93 70.4922 118.93 70.4922 121.395V136.547C70.4922 139.012 68.4922 141.008 66.0273 141.008Z" fill="#ABE1D4"/>
<path d="M8.36328 128.969C8.36328 126.602 10.2852 124.68 12.6523 124.68H58.4453C60.8164 124.68 62.7383 126.602 62.7383 128.969C62.7383 131.34 60.8164 133.258 58.4453 133.258H12.6523C10.2852 133.258 8.36328 131.34 8.36328 128.969Z" fill="#80D3CD"/>
<path d="M66.0273 165.086H5.07031C2.60547 165.086 0.609375 163.09 0.609375 160.625V145.473C0.609375 143.008 2.60547 141.008 5.07031 141.008H66.0273C68.4922 141.008 70.4922 143.008 70.4922 145.473V160.625C70.4922 163.09 68.4922 165.086 66.0273 165.086Z" fill="#ABE1D4"/>
<path d="M8.36328 153.047C8.36328 150.68 10.2852 148.758 12.6523 148.758H58.4453C60.8164 148.758 62.7383 150.68 62.7383 153.047C62.7383 155.418 60.8164 157.336 58.4453 157.336H12.6523C10.2852 157.336 8.36328 155.418 8.36328 153.047Z" fill="#80D3CD"/>
<path d="M66.0273 189.168H5.07031C2.60547 189.168 0.609375 187.168 0.609375 184.703V169.551C0.609375 167.086 2.60547 165.086 5.07031 165.086H66.0273C68.4922 165.086 70.4922 167.086 70.4922 169.551V184.703C70.4922 187.168 68.4922 189.168 66.0273 189.168Z" fill="#ABE1D4"/>
<path d="M8.36328 177.129C8.36328 174.758 10.2852 172.84 12.6523 172.84H58.4453C60.8164 172.84 62.7383 174.758 62.7383 177.129C62.7383 179.496 60.8164 181.414 58.4453 181.414H12.6523C10.2852 181.414 8.36328 179.496 8.36328 177.129Z" fill="#80D3CD"/>
<path d="M58.4453 235.727H12.6562C6 235.727 0.609375 230.336 0.609375 223.684V193.629C0.609375 191.164 2.60547 189.168 5.07031 189.168H66.0273C68.4922 189.168 70.4922 191.164 70.4922 193.629V223.684C70.4922 230.336 65.0977 235.727 58.4453 235.727Z" fill="#ABE1D4"/>
<path d="M8.36328 219.543V201.391C8.36328 198.918 10.3633 196.918 12.8359 196.918H58.2617C60.7344 196.918 62.7383 198.918 62.7383 201.391V219.543C62.7383 224.199 58.9609 227.977 54.3008 227.977H16.7969C12.1367 227.977 8.36328 224.199 8.36328 219.543Z" fill="#80D3CD"/>
<path d="M11.332 40.5195C9.47656 42.8242 8.36328 45.75 8.36328 48.9375V56.1719C8.36328 58.5391 10.2852 60.4609 12.6523 60.4609H58.4453C60.8164 60.4609 62.7383 58.5391 62.7383 56.1719V48.9375C62.7383 45.7461 61.6211 42.8242 59.7695 40.5195H11.332Z" fill="#80D3CD"/>
<path d="M11.332 40.5195H59.7695C57.3008 37.4492 53.5195 35.4844 49.2734 35.4844H21.8242C17.582 35.4844 13.8008 37.4492 11.332 40.5195Z" fill="white"/>
<path d="M41.7031 36.9609H29.3984V23.9922H41.7031V36.9609Z" fill="white"/>
<path d="M45 0.988281V12.4961C45 13.4336 45.7578 14.1953 46.6953 14.1953C47.6328 14.1953 48.3906 13.4336 48.3906 12.4961V0.988281H45Z" fill="#63AB40"/>
<path d="M33.8555 0.988281V12.4961C33.8555 13.4336 34.6133 14.1953 35.5508 14.1953C36.4844 14.1953 37.2461 13.4336 37.2461 12.4961V0.988281H33.8555Z" fill="#63AB40"/>
<path d="M22.707 0.988281V12.4961C22.707 13.4336 23.4648 14.1953 24.4023 14.1953C25.3398 14.1953 26.1016 13.4336 26.1016 12.4961V0.988281H22.707Z" fill="#63AB40"/>
<path d="M46.832 235.223V233.199C51.3242 233.199 54.9766 228.512 54.9766 222.75V192.238C54.9766 190.48 53.8867 189 52.5938 189V186.977C53.8867 186.977 54.9766 185.496 54.9766 183.742V168.336C54.9766 166.582 53.8867 165.098 52.5938 165.098V163.074C53.8867 163.074 54.9766 161.594 54.9766 159.84V144.43C54.9766 142.676 53.8867 141.195 52.5938 141.195V139.176C53.8867 139.176 54.9766 137.691 54.9766 135.938V120.527C54.9766 118.773 53.8867 117.293 52.5938 117.293H51.2188V66.9062H52.5859C53.8828 66.9062 54.9766 65.418 54.9766 63.6602V44.5234C54.9766 35.8242 49.4102 28.7422 42.5742 28.7422V26.7227C50.5273 26.7227 56.9961 34.707 56.9961 44.5234V63.6602C56.9961 66.3008 55.3633 68.4961 53.2383 68.8711V115.328C55.3633 115.699 56.9961 117.891 56.9961 120.527V135.938C56.9961 137.68 56.2852 139.227 55.1875 140.184C56.2852 141.141 56.9961 142.687 56.9961 144.43V159.84C56.9961 161.582 56.2852 163.129 55.1875 164.086C56.2852 165.043 56.9961 166.594 56.9961 168.336V183.742C56.9961 185.484 56.2852 187.031 55.1875 187.988C56.2852 188.945 56.9961 190.496 56.9961 192.238V222.75C56.9961 229.625 52.4375 235.223 46.832 235.223Z" fill="#ABE1D4"/>
<path d="M65.75 116.93H6.19141V68.2109H65.75V116.93Z" fill="#83C443"/>
<path d="M6.19141 113.055V116.93H65.75V113.055H6.19141Z" fill="#63AB40"/>
<path d="M6.19141 72.0859H65.75V68.2109H6.19141V72.0859Z" fill="#63AB40"/>
<path d="M44.957 86.5781H45.2266C45.6016 86.5781 45.9805 86.582 46.3555 86.5859C47.0078 86.5937 47.6562 86.5391 48.3438 86.6523L45.6094 82.6016C45.5547 82.5156 45.5 82.4297 45.4453 82.3438C45.332 82.1719 45.2227 82 45.0938 81.8398C44.7109 81.3672 44.2266 81.125 43.6484 81.125L39.793 81.2266C39.3984 81.2266 39.3906 80.957 39.3867 80.8555L39.3555 79.918L39.3047 80.0078C39.1094 80.3438 38.9141 80.6797 38.7188 81.0156C38.1406 82.0117 37.5625 83.0078 36.9805 84C37.2812 84.5117 37.582 85.0273 37.8789 85.5469L39.3945 88.1602C39.3906 88.0664 39.3867 87.9766 39.3828 87.8867L39.3477 87.0977C39.3359 86.8438 39.4531 86.7188 39.7031 86.7031L43.668 86.6055C44.0937 86.5937 44.5234 86.582 44.957 86.5781Z" fill="white"/>
<path d="M49.2031 93.332C49.4453 92.9063 49.6914 92.4805 49.9453 92.0586C50.207 91.6172 50.3594 91.2266 50.4219 90.8281C50.4844 90.4023 50.4414 89.9883 50.2969 89.5977C50.1641 89.2422 49.9531 88.9063 49.6641 88.5977C49.1211 88.0195 48.5078 87.7266 47.7852 87.7109C46.9648 87.6953 46.1406 87.7031 45.3203 87.6953C45.2109 87.9297 45.0625 88.1875 44.9141 88.4414L41.8984 93.6367L47.3281 96.5508L49.2031 93.332Z" fill="white"/>
<path d="M31.7812 97.8164L30.8164 97.8789C30.293 97.9102 29.7734 97.9414 29.2461 97.9727C29.1953 97.9727 29.1953 97.9727 29.168 98.0195C28.9727 98.3867 28.7695 98.75 28.5703 99.1133L26.918 102.074L27.7695 101.574C27.8242 101.543 27.8867 101.512 27.9688 101.512C28.1367 101.512 28.2227 101.645 28.2539 101.688C28.3086 101.77 28.3594 101.855 28.4141 101.941L29.3164 103.379C29.6016 103.836 29.8672 104.25 30.1328 104.66L30.1875 104.746C30.2812 104.895 30.375 105.039 30.4805 105.148C30.8203 105.492 31.2422 105.668 31.7305 105.676C32.5234 105.688 33.3164 105.691 34.1055 105.691L37.6133 105.711C37.4648 105.555 37.332 105.383 37.207 105.191L36.1133 103.516C35.9453 103.258 35.7773 103.004 35.6133 102.742C35.3398 102.32 35.0742 101.895 34.8047 101.465L33.0547 98.6914C33.0312 98.6563 32.9648 98.5547 32.9961 98.4258C33.0273 98.2969 33.1328 98.2344 33.1758 98.2148L34.125 97.6797L32.8125 97.7539C32.4688 97.7734 32.125 97.793 31.7812 97.8164Z" fill="white"/>
<path d="M37.043 102.883L37.3867 103.406C37.6328 103.785 37.8828 104.164 38.125 104.543C38.5 105.125 39.0313 105.496 39.7539 105.672C39.9961 105.73 40.2617 105.758 40.6172 105.758L40.793 105.754C41.0977 105.75 41.3906 105.695 41.6602 105.59C42.2969 105.344 42.7891 104.922 43.1289 104.336C43.4531 103.77 43.7656 103.199 44.082 102.629L45.7422 99.6641L45.8008 99.5508L40.3125 96.7344L37.3594 102.016C37.2266 102.262 37.0898 102.504 36.9492 102.742C36.9844 102.789 37.0156 102.836 37.043 102.883Z" fill="white"/>
<path d="M24.8945 87.082L25.7344 87.0391C26.1484 87.0195 26.5664 87 26.9805 86.9844C27.2656 86.9727 27.5508 86.9687 27.8398 86.9648L32 86.8789H32.0039C32.4023 86.8789 32.4062 87.1641 32.4062 87.2734L32.4219 88.3008L32.4336 88.2812L33.3398 86.5078C33.7656 85.6836 34.1914 84.8594 34.6211 84.0352C34.1914 83.3867 33.7656 82.7383 33.3438 82.0859L32.0391 80.0703L32.0547 81.0156C32.0586 81.2695 31.9414 81.3906 31.6875 81.4023C31.5391 81.4062 31.3906 81.4141 31.2383 81.4141L30.4609 81.4297C29.6797 81.4453 28.8984 81.4648 28.1211 81.4805L28.0078 81.4844C27.7813 81.4883 27.5664 81.4922 27.3672 81.5547C26.9453 81.6953 26.6211 81.9336 26.4062 82.2656C26.1719 82.6289 25.9492 83 25.7266 83.3672L23.4141 87.2031C23.6836 87.1445 23.9609 87.1133 24.2422 87.1055C24.4609 87.1055 24.6758 87.0938 24.8945 87.082Z" fill="white"/>
<path d="M29.7344 93.1836L28.1875 90.8047C27.6055 89.9102 27.0234 89.0156 26.4453 88.1172C25.6602 88.1602 24.8828 88.1953 24.1094 88.2305C23.5078 88.2539 22.9883 88.4648 22.5195 88.8711C22.2383 89.1172 22 89.4297 21.7734 89.8516C21.5899 90.1953 21.4922 90.5586 21.4922 90.9375C21.4844 91.4844 21.6367 92.0039 21.9414 92.4805C22.2031 92.8984 22.4766 93.3125 22.7422 93.7227L24.918 97.0664L30.1992 93.8945C30.0469 93.6602 29.8906 93.4219 29.7344 93.1836Z" fill="white"/>
</svg>
