<svg width="128" height="151" viewBox="0 0 128 151" fill="none" xmlns="http://www.w3.org/2000/svg">
<path d="M64.3359 150.535H1V13.6484H64.3359V150.535Z" fill="#F0442A"/>
<path d="M127.672 150.535H64.3359V43.6367H127.672V150.535Z" fill="#F9B11F"/>
<path d="M64.3359 30.3594H1V23.7891H64.3359V30.3594Z" fill="white"/>
<path d="M64.3359 45.6484H1V39.0781H64.3359V45.6484Z" fill="white"/>
<path d="M64.3359 60.9336H1V54.3672H64.3359V60.9336Z" fill="white"/>
<path d="M64.3359 76.2227H1V69.6562H64.3359V76.2227Z" fill="white"/>
<path d="M64.3359 91.5117H1V84.9414H64.3359V91.5117Z" fill="white"/>
<path d="M64.3359 106.801H1V100.23H64.3359V106.801Z" fill="white"/>
<path d="M64.2422 13.6484H0.988281L9 0.523438H56.6406L64.2422 13.6484Z" fill="#A79D9A"/>
<path d="M127.629 43.6367H64.375L72.3828 30.5117H120.027L127.629 43.6367Z" fill="#A79D9A"/>
<path d="M93.1641 59.4062H72.6406V51.4688H93.1641V59.4062Z" fill="white"/>
<path d="M93.1641 86.0625H72.6406V78.1211H93.1641V86.0625Z" fill="white"/>
<path d="M119.359 71.5547H98.8359V63.6172H119.359V71.5547Z" fill="white"/>
<path d="M119.359 98.9492H98.8359V91.0117H119.359V98.9492Z" fill="white"/>
<path d="M93.1641 112.715H72.6406V104.777H93.1641V112.715Z" fill="white"/>
<path d="M46.5977 150.535H18.7422V115.961H46.5977V150.535Z" fill="#655A58"/>
<path d="M109.93 150.535H82.0742V120.469H109.93V150.535Z" fill="#655A58"/>
</svg>
