<svg width="151" height="151" viewBox="0 0 151 151" fill="none" xmlns="http://www.w3.org/2000/svg">
<path d="M150.535 75.5273C150.535 116.953 116.953 150.535 75.5273 150.535C34.1055 150.535 0.523438 116.953 0.523438 75.5273C0.523438 34.1055 34.1055 0.523438 75.5273 0.523438C116.953 0.523438 150.535 34.1055 150.535 75.5273Z" fill="#EF2F4E"/>
<path d="M132.082 75.5273C132.082 106.766 106.766 132.09 75.5273 132.09C44.293 132.09 18.9688 106.766 18.9688 75.5273C18.9688 44.293 44.293 18.9688 75.5273 18.9688C106.766 18.9688 132.082 44.293 132.082 75.5273Z" fill="#AED5E5"/>
<path d="M77.4258 35.3945C77.4258 36.4414 76.5781 37.2891 75.5273 37.2891C74.4805 37.2891 73.6328 36.4414 73.6328 35.3945V26.6367C73.6328 25.5898 74.4805 24.7422 75.5273 24.7422C76.5781 24.7422 77.4258 25.5898 77.4258 26.6367V35.3945Z" fill="#1A2140"/>
<path d="M77.4258 124.508C77.4258 125.555 76.5781 126.406 75.5273 126.406C74.4805 126.406 73.6328 125.555 73.6328 124.508V115.754C73.6328 114.707 74.4805 113.855 75.5273 113.855C76.5781 113.855 77.4258 114.707 77.4258 115.754V124.508Z" fill="#1A2140"/>
<path d="M35.3516 73.6758C36.3945 73.6758 37.2461 74.5234 37.2461 75.5742C37.2461 76.6172 36.3945 77.4727 35.3516 77.4727H26.5898C25.5469 77.4727 24.6953 76.6172 24.6953 75.5742C24.6953 74.5234 25.5469 73.6758 26.5898 73.6758H35.3516Z" fill="#1A2140"/>
<path d="M124.461 73.6758C125.516 73.6758 126.363 74.5234 126.363 75.5742C126.363 76.6172 125.516 77.4727 124.461 77.4727H115.707C114.664 77.4727 113.812 76.6172 113.812 75.5742C113.812 74.5234 114.664 73.6758 115.707 73.6758H124.461Z" fill="#1A2140"/>
<path d="M42.1659 53.1016C43.0604 53.6484 43.3495 54.8125 42.8026 55.707C42.2596 56.6094 41.0956 56.8906 40.201 56.3438L32.7128 51.8047C31.8182 51.2578 31.5331 50.0938 32.076 49.1992C32.619 48.2969 33.787 48.0156 34.6815 48.5625L42.1659 53.1016Z" fill="#1A2140"/>
<path d="M118.347 99.3439C119.242 99.8869 119.527 101.051 118.984 101.953C118.441 102.844 117.273 103.137 116.375 102.586L108.894 98.0432C108 97.5002 107.711 96.3283 108.257 95.4416C108.8 94.5432 109.964 94.258 110.859 94.801L118.347 99.3439Z" fill="#1A2140"/>
<path d="M53.0543 108.933C53.6012 108.039 54.7692 107.754 55.6637 108.297C56.5622 108.84 56.8473 110.012 56.3043 110.906L51.7575 118.387C51.2106 119.281 50.0465 119.57 49.152 119.031C48.2575 118.488 47.9684 117.316 48.5153 116.422L53.0543 108.933Z" fill="#1A2140"/>
<path d="M99.2989 32.7576C99.838 31.8592 101.01 31.5779 101.904 32.1209C102.799 32.6639 103.088 33.8318 102.541 34.7264L98.002 42.2107C97.4552 43.1053 96.2872 43.3943 95.3927 42.8436C94.502 42.3045 94.213 41.1326 94.752 40.2381L99.2989 32.7576Z" fill="#1A2140"/>
<path d="M55.9084 40.4573C56.4592 41.344 56.1896 42.5198 55.3029 43.0706C54.4123 43.6291 53.2404 43.3518 52.6857 42.4612L48.0607 35.0237C47.506 34.1409 47.7795 32.969 48.6662 32.4143C49.5607 31.8635 50.7287 32.1331 51.2795 33.0237L55.9084 40.4573Z" fill="#1A2140"/>
<path d="M102.997 116.117C103.551 117.008 103.278 118.176 102.387 118.735C101.497 119.281 100.332 119.012 99.7778 118.125L95.1488 110.692C94.5981 109.801 94.8676 108.633 95.7543 108.074C96.6449 107.524 97.8168 107.793 98.3715 108.684L102.997 116.117Z" fill="#1A2140"/>
<path d="M40.4153 95.1953C41.3059 94.6367 42.4739 94.914 43.0246 95.8008C43.5832 96.6914 43.3137 97.8633 42.4153 98.414L34.9856 103.043C34.095 103.594 32.9231 103.324 32.3723 102.434C31.8176 101.543 32.095 100.375 32.9778 99.8164L40.4153 95.1953Z" fill="#1A2140"/>
<path d="M116.074 48.1057C116.965 47.5549 118.137 47.8245 118.687 48.7151C119.242 49.6018 118.965 50.7737 118.078 51.3245L110.644 55.9534C109.754 56.5081 108.586 56.2346 108.035 55.344C107.476 54.4534 107.754 53.2854 108.644 52.7346L116.074 48.1057Z" fill="#1A2140"/>
<path d="M77.9336 70.0625C77.9336 80.2109 76.8594 77.543 75.5273 77.543C74.1953 77.543 73.1172 80.2109 73.1172 70.0625C73.1172 59.9141 74.1953 40.7891 75.5273 40.7891C76.8594 40.7891 77.9336 59.9141 77.9336 70.0625Z" fill="#D27E1C"/>
<path d="M78.8945 78.8203C72.043 78.8203 73.8477 77.3594 73.8477 75.5703C73.8477 73.7813 72.043 72.332 78.8945 72.332C85.7422 72.332 98.6523 73.7813 98.6523 75.5703C98.6523 77.3594 85.7422 78.8203 78.8945 78.8203Z" fill="#D27E1C"/>
<path d="M81.125 74.8633C81.125 77.6523 78.8594 79.918 76.0664 79.918C73.2773 79.918 71.0117 77.6523 71.0117 74.8633C71.0117 72.0664 73.2773 69.8008 76.0664 69.8008C78.8594 69.8008 81.125 72.0664 81.125 74.8633Z" fill="#EF2F4E"/>
</svg>
