<svg width="259" height="259" viewBox="0 0 259 259" fill="none" xmlns="http://www.w3.org/2000/svg">
<path d="M254.137 134.933C254.137 175.984 233.391 212.187 201.809 233.625C182.743 246.574 159.719 254.136 134.934 254.136C132.255 254.136 129.602 254.051 126.973 253.875C118.434 253.312 110.141 251.851 102.188 249.582C69.9108 240.383 43.2272 217.922 28.399 188.472C20.2897 172.371 15.7272 154.191 15.7272 134.933C15.7272 73.6287 61.9967 23.1365 121.524 16.4763C125.926 15.9802 130.399 15.7263 134.934 15.7263C195.61 15.7263 245.684 61.0466 253.176 119.687C253.813 124.679 254.137 129.769 254.137 134.933Z" fill="#3B94BD"/>
<path d="M254.137 134.933C254.137 175.984 233.391 212.187 201.809 233.625L189.95 212.875L199.122 203.703V176.195L226.63 167.027L235.797 130.347L253.176 119.687C253.813 124.679 254.137 129.769 254.137 134.933Z" fill="#78C22B"/>
<path d="M162.442 70.7458L157.856 89.0857L125.762 112.008L112.008 102.84L93.6686 89.0857L79.9147 102.84V125.761L70.7467 134.933L47.8209 144.101L38.653 157.855V180.781L28.399 188.472C20.2897 172.371 15.7272 154.191 15.7272 134.933C15.7272 73.6287 61.9967 23.1365 121.524 16.4763L116.594 38.6521L144.102 47.8201L148.688 61.574L162.442 70.7458Z" fill="#78C22B"/>
<path d="M162.442 199.121L157.856 212.875L144.102 217.461V231.215L130.348 240.383L126.973 253.875C118.434 253.312 110.141 251.851 102.188 249.582L98.2545 222.043H89.0865L70.7467 208.289L61.5748 194.535L70.7467 180.781L79.9147 171.609L98.2545 162.441L112.008 171.609H121.18L139.52 189.949L157.856 185.367L162.442 199.121Z" fill="#78C22B"/>
<path d="M148.688 116.594V153.273L180.782 162.441L212.876 153.273V116.594H148.688Z" fill="#F3A112"/>
<path d="M148.688 116.594L180.782 107.422L212.876 116.594L180.782 125.761L148.688 116.594Z" fill="#F4B70F"/>
<path d="M180.782 125.761V162.441L212.876 153.273V116.594L180.782 125.761Z" fill="#F68B19"/>
<path d="M203.251 226.91L195.669 213.64L202.364 206.945C203.223 206.086 203.704 204.922 203.704 203.703V179.5L228.079 171.375C229.567 170.883 230.696 169.66 231.079 168.14L239.794 133.277L249.301 127.441C249.465 129.922 249.555 132.418 249.555 134.933C249.555 172.554 231.333 206 203.251 226.91ZM132.786 249.527L134.368 243.215L146.645 235.027C147.923 234.176 148.688 232.746 148.688 231.215V220.761L159.309 217.222C160.676 216.765 161.751 215.691 162.208 214.324L166.794 200.57C167.106 199.629 167.106 198.613 166.794 197.668L162.208 183.914C161.45 181.644 159.071 180.336 156.747 180.918L140.923 184.871L139.067 183.011C143.348 179.414 147.598 175.668 151.805 171.777L145.571 165.051C141.274 169.031 136.926 172.847 132.559 176.504L124.423 168.371C123.559 167.511 122.395 167.027 121.18 167.027H113.399L100.798 158.625C99.4303 157.715 97.6764 157.605 96.2038 158.34L77.8639 167.511C77.4225 167.73 77.0202 168.019 76.6725 168.371L67.5046 177.539C67.2936 177.75 67.0983 177.988 66.9303 178.238L57.7624 191.992C56.735 193.531 56.735 195.539 57.7624 197.078L66.9303 210.832C67.2194 211.265 67.5827 211.644 67.9967 211.957L72.2116 215.121C67.4967 217.148 62.8913 218.859 58.446 220.222C48.7819 211.543 40.5905 201.25 34.3092 189.769L41.403 184.449C42.5592 183.582 43.2389 182.226 43.2389 180.781V159.246L50.8483 147.828L72.4499 139.191C73.0241 138.957 73.5475 138.613 73.9889 138.176L83.1569 129.004C84.0163 128.144 84.5006 126.98 84.5006 125.761V104.738L94.0983 95.1364L109.258 106.508C109.325 106.558 109.395 106.605 109.465 106.652L123.219 115.824C124.805 116.879 126.88 116.847 128.426 115.742L160.52 92.8161C161.407 92.1833 162.044 91.2536 162.305 90.195L166.891 71.8591C167.36 69.9763 166.598 68.0036 164.985 66.9294L152.54 58.6325L148.454 46.3708C147.997 45.0036 146.923 43.9294 145.555 43.4724L121.965 35.6091L125.274 20.7224C128.462 20.4568 131.68 20.3122 134.934 20.3122C168.77 20.3122 199.223 35.0544 220.219 58.445C216.692 69.9763 210.86 82.5583 202.856 95.8943L210.719 100.613C217.817 88.7927 223.294 77.4763 227.087 66.8513C237.887 81.4333 245.317 98.656 248.208 117.355L233.403 126.437C232.38 127.066 231.641 128.07 231.352 129.234L222.794 163.472L197.669 171.847C195.798 172.472 194.536 174.222 194.536 176.195V201.804L186.712 209.633C185.247 211.093 184.946 213.351 185.969 215.148L195.657 232.101C178.04 243.152 157.223 249.554 134.934 249.554C134.215 249.554 133.505 249.539 132.786 249.527ZM86.3327 225.711C87.1296 226.304 88.0944 226.629 89.0866 226.629H94.278L96.61 242.957C85.8678 239.133 75.8561 233.754 66.8522 227.082C71.321 225.484 75.9108 223.586 80.5905 221.406L86.3327 225.711ZM131.93 188.843L136.278 193.191C137.415 194.332 139.067 194.789 140.63 194.398L154.852 190.843L157.61 199.121L154.235 209.25L142.653 213.109C140.782 213.734 139.52 215.488 139.52 217.461V228.761L127.805 236.57C126.856 237.199 126.176 238.164 125.899 239.269L123.473 248.98C117.606 248.394 111.872 247.371 106.298 245.929L102.794 221.394C102.469 219.136 100.536 217.461 98.2546 217.461H90.6139L89.7702 216.828C103.505 209.551 117.805 200.07 131.93 188.843ZM74.1256 205.093L67.0866 194.535L74.3092 183.703L82.6296 175.379L97.9264 167.73L109.465 175.426C110.219 175.926 111.106 176.195 112.008 176.195H119.282L125.411 182.324C110.641 193.992 95.7467 203.644 81.6335 210.726L74.1256 205.093ZM16.0944 217.093C10.8288 211.832 8.55143 203.738 9.31315 193.039C9.85221 185.523 11.946 176.847 15.4499 167.488C21.028 188.086 31.9069 206.968 47.403 222.465C47.5397 222.605 47.6842 222.738 47.8249 222.879C30.0163 226.23 20.7936 221.793 16.0944 217.093ZM115.61 21.9489L112.118 37.656C111.61 39.9489 112.915 42.2575 115.145 42.9997L140.477 51.445L144.337 63.0271C144.661 63.9919 145.298 64.8239 146.145 65.3904L157.212 72.7654L153.821 86.3357L125.673 106.437L114.657 99.0974L96.4225 85.4177C94.5944 84.0466 92.0397 84.2302 90.4303 85.8435L76.6725 99.5974C75.8131 100.457 75.3327 101.625 75.3327 102.84V123.863L68.1686 131.027L46.1178 139.843C45.2585 140.187 44.5241 140.785 44.0085 141.558L34.8366 155.312C34.3366 156.066 34.0671 156.953 34.0671 157.855V178.488L30.1686 181.41C23.8405 167.199 20.3131 151.468 20.3131 134.933C20.3131 78.3161 61.5788 31.1638 115.61 21.9489ZM193.04 9.31222C203.739 8.5505 211.833 10.8278 217.094 16.0935C221.798 20.7927 226.231 30.0193 222.88 47.8239C222.743 47.6833 222.606 47.5388 222.465 47.4021C206.969 31.906 188.087 21.0271 167.489 15.4489C176.852 11.945 185.524 9.85128 193.04 9.31222ZM230.403 56.1208C235.739 35.4763 233.399 19.4255 223.579 9.6091C216.352 2.37863 205.856 -0.793247 192.383 0.16769C180.458 1.01925 166.735 5.08956 151.587 12.2536C146.11 11.5232 140.551 11.1443 134.934 11.1443C101.868 11.1443 70.7819 24.0193 47.403 47.4021C24.0202 70.781 11.1452 101.867 11.1452 134.933C11.1452 140.551 11.5241 146.109 12.2546 151.586C5.0944 166.734 1.02018 180.457 0.168616 192.383C-0.796228 205.855 2.38346 216.351 9.61002 223.578C16.0006 229.972 25.0319 233.195 36.2585 233.195C42.2702 233.195 48.9186 232.258 56.1178 230.398C78.2546 248.738 105.825 258.722 134.934 258.722C168.001 258.722 199.087 245.843 222.465 222.465C245.848 199.086 258.723 167.996 258.723 134.933C258.723 105.824 248.743 78.2575 230.403 56.1208Z" fill="#100F0D"/>
<path d="M185.368 156.363V129.222L208.29 122.672V149.812L185.368 156.363ZM153.274 122.672L176.196 129.222V156.363L153.274 149.812V122.672ZM180.782 112.191L196.184 116.594L180.782 120.996L165.376 116.594L180.782 112.191ZM217.462 153.273V116.594C217.462 114.547 216.102 112.746 214.137 112.183L182.044 103.015C181.219 102.781 180.344 102.781 179.52 103.015L147.426 112.183C145.462 112.746 144.102 114.547 144.102 116.594V153.273C144.102 155.316 145.462 157.117 147.426 157.679L179.52 166.847C179.934 166.969 180.36 167.027 180.782 167.027C181.204 167.027 181.63 166.969 182.044 166.847L214.137 157.679C216.102 157.117 217.462 155.316 217.462 153.273Z" fill="#100F0D"/>
<path d="M139.52 75.3318H130.348V84.4998H139.52V75.3318Z" fill="#100F0D"/>
<path d="M79.9147 56.9919H70.7467V66.1599H79.9147V56.9919Z" fill="#100F0D"/>
<path d="M56.9928 112.008H47.8209V121.179H56.9928V112.008Z" fill="#100F0D"/>
<path d="M89.0865 189.949H98.2545V180.781H89.0865V189.949Z" fill="#100F0D"/>
<path d="M125.762 212.875H116.594V222.043H125.762V212.875Z" fill="#100F0D"/>
<path d="M212.876 194.535H222.044V185.367H212.876V194.535Z" fill="#100F0D"/>
</svg>
