<svg width="280" height="324" viewBox="0 0 280 324" fill="none" xmlns="http://www.w3.org/2000/svg">
<path d="M192.027 290.531L139.977 323.84L87.9258 290.531C33.4336 255.652 0.476562 195.398 0.476562 130.719V67.1289C53.5078 67.1289 103.816 43.5625 137.754 2.82031L139.977 0.160156L142.199 2.82031C176.137 43.5625 226.445 67.1289 279.477 67.1289V130.719C279.477 195.398 246.52 255.652 192.027 290.531Z" fill="#66CDE1"/>
<path d="M202.031 283.598C198.785 286.063 195.449 288.352 192.051 290.531L139.977 323.84L87.9062 290.531C33.457 255.652 0.476562 195.418 0.476562 130.695V67.1289C25.7617 67.1289 50.4141 61.7656 73.0156 51.7148V97.2109C73.0156 161.934 105.996 222.168 160.445 257.047L202.031 283.598Z" fill="#49B9DA"/>
<path d="M234.836 89.4492C234.836 87.7734 235.055 86.1367 235.402 84.5469C199.613 76.5469 166.613 58.8867 139.977 33.1875C113.34 58.8867 80.3398 76.5469 44.5508 84.5469C44.8984 86.1367 45.1172 87.7734 45.1172 89.4492C45.1172 101.789 35.1328 111.773 22.7969 111.773V130.719C22.7969 188.074 51.6328 240.805 99.957 271.719L120.645 284.973C124.48 278.215 131.652 273.613 139.977 273.613C148.281 273.613 155.477 278.215 159.312 284.973L179.996 271.719C228.32 240.805 257.156 188.074 257.156 130.719V111.773C244.82 111.773 234.836 101.789 234.836 89.4492Z" fill="#F6ED29"/>
<path d="M153.926 95.0312C153.926 102.75 147.695 108.984 139.977 108.984C132.262 108.984 126.027 102.75 126.027 95.0312C126.027 87.3164 132.262 81.0781 139.977 81.0781C147.695 81.0781 153.926 87.3164 153.926 95.0312Z" fill="#EF3A49"/>
<path d="M181.652 270.605C181.109 271 180.543 271.391 179.977 271.719L159.289 284.949C155.496 278.258 148.281 273.613 139.977 273.613C131.672 273.613 124.457 278.258 120.664 284.949L99.9805 271.719C51.6328 240.805 22.7969 188.051 22.7969 130.695V111.773C35.1328 111.773 45.1172 101.789 45.1172 89.4492C45.1172 87.7734 44.8984 86.1602 44.5508 84.5469C54.2734 82.3672 63.7539 79.4648 73.0156 75.8906V97.2109C73.0156 161.934 105.996 222.168 160.445 257.047L181.652 270.605Z" fill="#FAC329"/>
<path d="M223.676 173.16C223.676 217.918 188.477 254.539 144.27 256.762C142.832 256.871 141.438 256.871 139.977 256.871C138.516 256.871 137.121 256.871 135.684 256.762C91.4805 254.539 56.2773 217.918 56.2773 173.16C56.2773 168.648 56.6055 164.223 57.3438 159.93C58.5 164.07 62.1836 167.582 67.3711 167.582H69.9023C74.5195 167.582 78.3125 164.465 79.8828 160.102C82.957 151.449 91.2188 145.258 100.918 145.258C104.992 145.258 108.785 146.434 112.078 148.332C112.012 148.375 111.969 148.441 111.859 148.508C102.988 153.738 107.281 167.582 117.594 167.582H120.121C124.742 167.582 128.535 164.465 130.102 160.102C133.176 151.449 141.438 145.258 151.137 145.258C155.215 145.258 159.008 146.434 162.297 148.332C162.23 148.375 162.188 148.441 162.078 148.508C153.207 153.738 157.504 167.582 167.812 167.582H170.34C174.961 167.582 178.754 164.465 180.324 160.102C183.398 151.449 191.656 145.258 201.359 145.258C205.434 145.258 209.227 146.434 212.516 148.332C212.453 148.375 212.41 148.441 212.301 148.508C203.43 153.738 207.723 167.582 218.031 167.582H220.559C221.562 167.582 222.566 167.406 223.461 167.121C223.613 169.086 223.676 171.156 223.676 173.16Z" fill="#B5E7EF"/>
<path d="M157.438 255.02C153.145 255.934 148.805 256.547 144.27 256.762C142.832 256.871 141.438 256.871 139.977 256.871C138.516 256.871 137.121 256.871 135.684 256.762C91.4805 254.539 56.2773 217.918 56.2773 173.16C56.2773 168.648 56.6055 164.223 57.3438 159.93C58.5 164.07 62.1836 167.582 67.3711 167.582H69.9023C74.5195 167.582 78.3125 164.465 79.8828 160.102C80.4492 158.426 81.2148 156.879 82.1719 155.418C95.1211 195.66 121.383 230.973 157.438 255.02Z" fill="#66CDE1"/>
<path d="M218.883 201.066C207.875 232.262 178.82 255.02 144.27 256.762C142.832 256.871 141.438 256.871 139.977 256.871C138.801 256.871 137.645 256.871 136.469 256.805C100.523 255.301 70.3359 231.082 60.0703 198.102C61.8594 199.887 64.3633 201.066 67.3711 201.066H69.9023C74.5195 201.066 78.3125 197.949 79.8828 193.586C82.957 184.934 91.2188 178.742 100.918 178.742C104.992 178.742 108.785 179.918 112.078 181.816C112.012 181.859 111.969 181.926 111.859 181.992C102.988 187.223 107.281 201.066 117.594 201.066H120.121C124.742 201.066 128.535 197.949 130.102 193.586C133.176 184.934 141.438 178.742 151.137 178.742C155.215 178.742 159.008 179.918 162.297 181.816C162.23 181.859 162.188 181.926 162.078 181.992C153.207 187.223 157.504 201.066 167.812 201.066H170.34C174.961 201.066 178.754 197.949 180.324 193.586C183.398 184.934 191.656 178.742 201.359 178.742C205.434 178.742 209.227 179.918 212.516 181.816C212.453 181.859 212.41 181.926 212.301 181.992C203.43 187.223 207.723 201.066 218.031 201.066H218.883Z" fill="#66CDE1"/>
<path d="M157.438 255.02C153.145 255.934 148.738 256.547 144.27 256.762C142.832 256.871 141.438 256.871 139.977 256.871C138.801 256.871 137.645 256.871 136.469 256.805C100.523 255.301 70.3359 231.082 60.0703 198.102C61.8594 199.887 64.3633 201.066 67.3711 201.066H69.9023C74.5195 201.066 78.3125 197.949 79.8828 193.586C81.9961 187.613 86.5742 182.863 92.3281 180.465C106.781 210.223 129.102 236.117 157.438 255.02Z" fill="#49B9DA"/>
<path d="M212.516 215.301C212.453 215.344 212.41 215.41 212.301 215.473C212.234 215.52 212.191 215.52 212.125 215.582C209.336 217.242 207.941 219.812 207.547 222.492C193.16 242.246 170.273 255.41 144.27 256.762C142.875 256.871 141.438 256.871 139.977 256.871C138.516 256.871 137.121 256.871 135.684 256.762C113.082 255.586 92.832 245.492 78.4883 229.863C79.0547 229.035 79.5352 228.074 79.8828 227.07C82.957 218.418 91.2188 212.227 100.918 212.227C104.992 212.227 108.785 213.402 112.078 215.301C112.012 215.344 111.969 215.41 111.859 215.473C102.988 220.707 107.281 234.551 117.594 234.551H120.121C124.742 234.551 128.535 231.434 130.102 227.07C133.176 218.418 141.438 212.227 151.137 212.227C155.215 212.227 159.008 213.402 162.297 215.301C162.23 215.344 162.188 215.41 162.078 215.473C153.207 220.707 157.504 234.551 167.812 234.551H170.34C174.961 234.551 178.754 231.434 180.324 227.07C183.398 218.418 191.656 212.227 201.359 212.227C205.367 212.227 209.117 213.34 212.344 215.191C212.41 215.234 212.453 215.234 212.516 215.301Z" fill="#49B9DA"/>
<path d="M157.438 255.02C153.145 255.934 148.738 256.547 144.27 256.762C142.875 256.871 141.438 256.871 139.977 256.871C138.516 256.871 137.121 256.871 135.684 256.762C113.082 255.586 92.832 245.492 78.4883 229.863C79.0547 229.035 79.5352 228.074 79.8828 227.07C82.957 218.418 91.2188 212.227 100.918 212.227C104.992 212.227 108.785 213.402 112.078 215.301C112.012 215.344 111.969 215.41 111.859 215.473C102.988 220.707 107.281 234.551 117.594 234.551H120.121C123.305 234.551 126.094 233.09 127.988 230.758C136.859 239.738 146.734 247.891 157.438 255.02Z" fill="#3F97CC"/>
<path d="M262.738 89.4492C262.738 92.5234 260.23 95.0312 257.156 95.0312C254.086 95.0312 251.578 92.5234 251.578 89.4492C251.578 86.3789 254.086 83.8711 257.156 83.8711C260.23 83.8711 262.738 86.3789 262.738 89.4492Z" fill="#F2556C"/>
<path d="M145.559 295.938C145.559 299.012 143.051 301.516 139.977 301.516C136.902 301.516 134.398 299.012 134.398 295.938C134.398 292.863 136.902 290.355 139.977 290.355C143.051 290.355 145.559 292.863 145.559 295.938Z" fill="#EF3A49"/>
<path d="M28.3789 89.4492C28.3789 92.5234 25.8711 95.0312 22.7969 95.0312C19.7227 95.0312 17.2188 92.5234 17.2188 89.4492C17.2188 86.3789 19.7227 83.8711 22.7969 83.8711C25.8711 83.8711 28.3789 86.3789 28.3789 89.4492Z" fill="#EF3A49"/>
<path d="M145.559 61.5469C145.559 64.6211 143.051 67.1289 139.977 67.1289C136.902 67.1289 134.398 64.6211 134.398 61.5469C134.398 58.4727 136.902 55.9648 139.977 55.9648C143.051 55.9648 145.559 58.4727 145.559 61.5469Z" fill="#F2556C"/>
<path d="M145.559 128.516C145.559 131.59 143.051 134.098 139.977 134.098C136.902 134.098 134.398 131.59 134.398 128.516C134.398 125.441 136.902 122.934 139.977 122.934C143.051 122.934 145.559 125.441 145.559 128.516Z" fill="#F2556C"/>
<path d="M173.457 100.613C170.383 100.613 167.879 98.1055 167.879 95.0312C167.879 91.957 170.383 89.4492 173.457 89.4492C176.531 89.4492 179.039 91.957 179.039 95.0312C179.039 98.1055 176.531 100.613 173.457 100.613Z" fill="#F2556C"/>
<path d="M106.496 100.613C103.426 100.613 100.918 98.1055 100.918 95.0312C100.918 91.957 103.426 89.4492 106.496 89.4492C109.57 89.4492 112.078 91.957 112.078 95.0312C112.078 98.1055 109.57 100.613 106.496 100.613Z" fill="#F2556C"/>
<path d="M167.594 75.3047C165.414 77.4844 161.883 77.4844 159.703 75.3047C157.523 73.1211 157.523 69.5898 159.703 67.4102C161.883 65.2305 165.414 65.2305 167.594 67.4102C169.773 69.5898 169.773 73.1211 167.594 75.3047Z" fill="#F2556C"/>
<path d="M120.25 122.652C118.07 124.832 114.539 124.832 112.359 122.652C110.18 120.473 110.18 116.941 112.359 114.762C114.539 112.582 118.07 112.582 120.25 114.762C122.43 116.941 122.43 120.473 120.25 122.652Z" fill="#F2556C"/>
<path d="M159.703 122.652C157.523 120.473 157.523 116.941 159.703 114.762C161.883 112.582 165.414 112.582 167.594 114.762C169.773 116.941 169.773 120.473 167.594 122.652C165.414 124.832 161.883 124.832 159.703 122.652Z" fill="#F2556C"/>
<path d="M112.359 75.3047C110.18 73.1211 110.18 69.5898 112.359 67.4102C114.539 65.2305 118.07 65.2305 120.25 67.4102C122.43 69.5898 122.43 73.1211 120.25 75.3047C118.07 77.4844 114.539 77.4844 112.359 75.3047Z" fill="#F2556C"/>
</svg>
