<svg width="274" height="274" viewBox="0 0 274 274" fill="none" xmlns="http://www.w3.org/2000/svg">
<path d="M220.766 4.41797C247.621 4.41797 269.332 26.1328 269.332 52.9844C269.332 79.8398 247.621 101.555 220.766 101.555C193.91 101.555 172.195 79.8398 172.195 52.9844C172.195 26.1328 193.91 4.41797 220.766 4.41797Z" fill="#FFEAA7"/>
<path d="M225.18 269.336H145.703V198.691H225.18V269.336Z" fill="#D3A06C"/>
<path d="M264.918 225.184H185.441V154.539H264.918V225.184Z" fill="#D3A06C"/>
<path d="M123.629 234.012H119.211C119.211 220.715 110.953 208.848 98.5508 204.156L89.3242 200.727C85.6992 199.398 81.9414 198.691 78.1133 198.691H97.1367C121.508 198.691 141.289 178.906 141.289 154.539V110.383H158.949V181.031C158.949 187.223 157.898 193.172 155.949 198.691H145.703V226.371C144.43 225.613 142.875 225.184 141.289 225.184H140.547C138.203 225.184 135.941 226.113 134.27 227.785L126.766 235.289C125.922 234.496 124.871 234.012 123.629 234.012Z" fill="#656D78"/>
<path d="M70.6445 198.691H75.0586C65.2969 198.691 57.3984 206.59 57.3984 216.352V233.84C30.1992 231.582 8.82812 208.797 8.82812 181.031V110.383H26.4922V154.539C26.4922 178.906 46.2734 198.691 70.6445 198.691Z" fill="#656D78"/>
<path d="M238.426 154.539V172.199H211.934V154.539H238.426Z" fill="#B27946"/>
<path d="M198.688 198.691V216.352H172.195V198.691H198.688Z" fill="#B27946"/>
<path d="M154.535 92.7227H128.043V61.8164C128.043 59.3828 126.059 57.4023 123.629 57.4023H114.797C112.367 57.4023 110.383 59.3828 110.383 61.8164V92.7227H92.7227V30.9102C126.852 30.9102 154.535 58.5898 154.535 92.7227Z" fill="#FFEAA7"/>
<path d="M75.0586 30.9102V92.7227H57.3984V61.8164C57.3984 59.3828 55.4141 57.4023 52.9844 57.4023H44.1523C41.7187 57.4023 39.7383 59.3828 39.7383 61.8164V92.7227H13.2461C13.2461 58.5898 40.9258 30.9102 75.0586 30.9102Z" fill="#FFEAA7"/>
<path d="M128.043 61.8164V92.7227H110.383V61.8164C110.383 59.3828 112.367 57.4023 114.797 57.4023H123.629C126.059 57.4023 128.043 59.3828 128.043 61.8164Z" fill="#FCD770"/>
<path d="M92.7227 30.9102V92.7227H75.0586V26.4922C75.0586 24.0625 77.043 22.0781 79.4766 22.0781H88.3047C90.7383 22.0781 92.7227 24.0625 92.7227 26.4922V30.9102Z" fill="#FCD770"/>
<path d="M57.3984 61.8164V92.7227H39.7383V61.8164C39.7383 59.3828 41.7187 57.4023 44.1523 57.4023H52.9844C55.4141 57.4023 57.3984 59.3828 57.3984 61.8164Z" fill="#FCD770"/>
<path d="M163.367 97.1367V105.969C163.367 108.402 161.383 110.383 158.949 110.383H8.82812C6.39844 110.383 4.41406 108.402 4.41406 105.969V97.1367C4.41406 94.707 6.39844 92.7227 8.82812 92.7227H158.949C161.383 92.7227 163.367 94.707 163.367 97.1367Z" fill="#FCD770"/>
<path d="M126.766 235.289C127.559 236.133 128.043 237.187 128.043 238.43V264.922C128.043 267.352 126.059 269.336 123.629 269.336H83.8906C69.2812 269.336 57.3984 257.453 57.3984 242.844V216.352C57.3984 206.59 65.2969 198.691 75.0586 198.691C79.9219 198.691 84.3398 200.676 87.5625 203.848C90.7383 207.09 92.7227 211.504 92.7227 216.352V234.012H123.629C124.871 234.012 125.922 234.496 126.766 235.289Z" fill="#B4DD7F"/>
<path d="M98.5508 204.156C110.953 208.848 119.211 220.715 119.211 234.012H92.7227V216.352C92.7227 211.504 90.7383 207.09 87.5625 203.848C84.3398 200.676 79.9219 198.691 75.0586 198.691H78.1133C81.9414 198.691 85.6992 199.398 89.3242 200.727L98.5508 204.156Z" fill="#B4DD7F"/>
<path d="M145.703 226.371C148.359 227.926 150.121 230.754 150.121 234.012H154.535C159.398 234.012 163.367 237.98 163.367 242.844C163.367 247.707 161.383 252.121 158.207 255.348C154.984 258.523 150.57 260.504 145.703 260.504H128.043V238.43C128.043 237.187 127.559 236.133 126.766 235.289L134.27 227.785C135.941 226.113 138.203 225.184 140.547 225.184H141.289C142.875 225.184 144.43 225.613 145.703 226.371Z" fill="#F0D0B4"/>
<path d="M141.289 110.383V154.539C141.289 178.906 121.508 198.691 97.1367 198.691H70.6445C46.2734 198.691 26.4922 178.906 26.4922 154.539V110.383H141.289Z" fill="#F0D0B4"/>
<path d="M105.965 163.367L105.828 163.902C103.312 173.977 94.2734 181.031 83.8906 181.031C73.5078 181.031 64.4688 173.977 61.9531 163.902L61.8125 163.367H105.965Z" fill="#FF826E"/>
<path d="M68.2812 167.785H99.5C96.2734 173.164 90.4258 176.613 83.8906 176.613C77.3516 176.613 71.5078 173.164 68.2812 167.785ZM110.125 164.953L111.625 158.953H56.1562L57.6562 164.953C60.6758 177.027 71.4531 185.445 83.8906 185.445C96.3242 185.445 107.105 177.027 110.125 164.953Z" fill="black"/>
<path d="M207.52 158.953V176.613H242.84V158.953H260.504V220.766H229.598V194.277H189.859V158.953H207.52ZM216.352 158.953H234.012V167.785H216.352V158.953ZM220.766 264.922H150.121V264.473C160.191 262.418 167.781 253.504 167.781 242.844C167.781 235.531 161.848 229.598 154.535 229.598H153.777C153.035 227.492 151.742 225.648 150.121 224.199V203.105H167.781V220.766H203.105V203.105H220.766V264.922ZM132.133 236.168L137.41 230.891C138.238 230.062 139.359 229.598 140.531 229.598H141.289C143.723 229.598 145.703 231.582 145.703 234.012V238.43H154.535C156.969 238.43 158.949 240.41 158.949 242.844C158.949 250.156 153.016 256.09 145.703 256.09H132.457V238.43C132.457 237.652 132.32 236.895 132.133 236.168ZM83.8906 264.922C71.7148 264.922 61.8125 255.02 61.8125 242.844V216.336C61.8125 212.801 63.1914 209.488 65.6953 206.988C68.1797 204.484 71.4883 203.125 75.0078 203.105H75.1094C78.6289 203.125 81.9414 204.484 84.4258 206.988C86.9258 209.488 88.3047 212.816 88.3047 216.352V232.684L80.2148 244.809L87.5625 249.707L95.082 238.43H123.629V264.922H83.8906ZM13.2461 181.031V114.801H22.0742V154.539C22.0742 177.219 37.7188 196.258 58.7617 201.57C55.0703 205.641 52.9844 210.816 52.9844 216.336V228.789C30.3555 224.598 13.2461 204.484 13.2461 181.031ZM8.82812 97.1367H158.949V105.969H8.82812V97.1367ZM52.9844 88.3086H44.1523V61.8164H52.9844V88.3086ZM70.6445 35.5469V88.3086H61.8125V61.8164C61.8125 56.9531 57.8477 52.9844 52.9844 52.9844H44.1523C39.2891 52.9844 35.3203 56.9531 35.3203 61.8164V88.3086H17.8828C20.0391 60.1758 42.5156 37.7031 70.6445 35.5469ZM88.3047 26.4922V88.3086H79.4766V26.4922H88.3047ZM123.629 88.3086H114.797V61.8164H123.629V88.3086ZM149.895 88.3086H132.457V61.8164C132.457 56.9531 128.492 52.9844 123.629 52.9844H114.797C109.934 52.9844 105.965 56.9531 105.965 61.8164V88.3086H97.1367V35.5469C125.266 37.7031 147.738 60.1758 149.895 88.3086ZM75.0586 194.277C75.0586 194.277 75.0586 194.277 75.043 194.277C75.043 194.277 75.0234 194.277 75.0078 194.277H70.6445C48.7383 194.277 30.9062 176.457 30.9062 154.539V114.801H136.875V154.539C136.875 176.457 119.039 194.277 97.1367 194.277H75.1094C75.0938 194.277 75.0781 194.277 75.0586 194.277ZM95.3594 207.711L97 208.316C106.242 211.797 112.832 220.043 114.418 229.598H97.1367V216.352C97.1367 213.332 96.5156 210.418 95.3594 207.711ZM141.289 194.277V220.766H140.531C136.996 220.766 133.664 222.148 131.164 224.648L125.887 229.926C125.164 229.734 124.402 229.598 123.629 229.598H123.281C121.852 218.199 115.09 208.023 105.105 202.398C128.113 198.57 145.703 178.598 145.703 154.539V114.801H154.535V181.031C154.535 185.547 153.879 189.98 152.672 194.277H141.289ZM176.613 203.105H194.273V211.938H176.613V203.105ZM181.027 194.277H161.797C162.812 189.965 163.367 185.531 163.367 181.031V113.574C165.988 112.039 167.781 109.211 167.781 105.969V97.1367C167.781 92.2734 163.812 88.3086 158.949 88.3086H158.727C156.535 55.3125 130.129 28.9062 97.1367 26.7188V26.4922C97.1367 21.6289 93.168 17.6641 88.3047 17.6641H79.4766C74.6094 17.6641 70.6445 21.6289 70.6445 26.4922V26.7188C37.6484 28.9062 11.2461 55.3125 9.05469 88.3086H8.82812C3.96484 88.3086 0 92.2734 0 97.1367V105.969C0 109.211 1.79297 112.039 4.41406 113.574V181.031C4.41406 209.297 25.4375 233.41 52.9844 237.703V242.844C52.9844 259.883 66.8516 273.75 83.8906 273.75H123.629C128.492 273.75 132.457 269.785 132.457 264.922H141.289V273.75H229.598V229.598H269.332V150.121H181.027V194.277Z" fill="black"/>
<path d="M220.766 8.83203C245.117 8.83203 264.918 28.6328 264.918 52.9844C264.918 77.3398 245.117 97.1367 220.766 97.1367C196.41 97.1367 176.613 77.3398 176.613 52.9844C176.613 28.6328 196.41 8.83203 220.766 8.83203ZM220.766 105.969C249.98 105.969 273.75 82.2031 273.75 52.9844C273.75 23.7695 249.98 0 220.766 0C191.547 0 167.781 23.7695 167.781 52.9844C167.781 82.2031 191.547 105.969 220.766 105.969Z" fill="black"/>
<path d="M250.379 38.4453L244.137 32.2031L207.52 68.8164L197.395 58.6953L191.152 64.9375L207.52 81.3047L250.379 38.4453Z" fill="black"/>
<path d="M260.504 114.801H181.027V123.629H260.504V114.801Z" fill="black"/>
<path d="M181.027 141.293H260.504V132.461H181.027V141.293Z" fill="black"/>
<path d="M66.2305 141.293H75.0586C75.0586 131.547 67.1445 123.629 57.3984 123.629C47.6523 123.629 39.7383 131.547 39.7383 141.293H48.5664C48.5664 136.43 52.5352 132.461 57.3984 132.461C62.2617 132.461 66.2305 136.43 66.2305 141.293Z" fill="black"/>
<path d="M110.383 132.461C115.246 132.461 119.211 136.43 119.211 141.293H128.043C128.043 131.547 120.125 123.629 110.383 123.629C100.637 123.629 92.7227 131.547 92.7227 141.293H101.551C101.551 136.43 105.52 132.461 110.383 132.461Z" fill="black"/>
</svg>
