<svg width="151" height="97" viewBox="0 0 151 97" fill="none" xmlns="http://www.w3.org/2000/svg">
<path d="M84.9492 2.46094H86.8945V20.2891H84.9492V2.46094Z" fill="#A7A5A6"/>
<path d="M68.3242 20.707H69.2344V8.60156H68.3242V20.707Z" fill="#918F8F"/>
<path d="M19.3477 61.832H23.168V49.7266H19.3477V61.832Z" fill="#7B7979"/>
<path d="M21.2578 74.2852H22.168V60.9102H21.2578V74.2852Z" fill="#7B7979"/>
<path d="M24.5508 55.3633H22.9648V57.9648H24.5508V55.3633Z" fill="#A7A5A6"/>
<path d="M24.0586 53.6992C24.0586 53.2031 24.4648 52.7969 24.9609 52.7969C25.4609 52.7969 25.8633 53.2031 25.8633 53.6992V59.6328C25.8633 60.1289 25.4609 60.5312 24.9609 60.5312C24.4648 60.5312 24.0586 60.1289 24.0586 59.6328V53.6992Z" fill="#A7A5A6"/>
<path d="M32.2148 55.7812H33.1211V43.6758H32.2148V55.7812Z" fill="#918F8F"/>
<path d="M113.68 47.5781C113.68 48.3516 111.871 48.9766 109.641 48.9766C107.414 48.9766 105.605 48.3516 105.605 47.5781V30.7852C105.605 30.0117 107.414 29.3867 109.641 29.3867C111.871 29.3867 113.68 30.0117 113.68 30.7852V47.5781Z" fill="#A7A5A6"/>
<path d="M112.184 52.1016C112.184 53.2891 110.375 54.25 108.145 54.25C105.918 54.25 104.109 53.2891 104.109 52.1016V26.2617C104.109 25.0703 105.918 24.1094 108.145 24.1094C110.375 24.1094 112.184 25.0703 112.184 26.2617V52.1016Z" fill="#BDBCBC"/>
<path d="M99.7875 17.8242C99.7875 17.8242 17.9828 17.8242 13.9945 17.8242C10.0062 17.8242 9.09215 21.3516 9.25621 24.5781C9.38512 27.1133 10.3304 41.4102 10.7289 49.2031C10.8382 51.3242 12.8968 52.6484 14.5687 52.6484C16.2367 52.6484 32.6742 52.6484 34.1742 52.6484C36.6742 52.6484 37.4086 50.4766 38.4164 47.0508C39.0648 44.8477 39.4242 43.2266 40.307 40.2188C40.7953 38.5469 43.2757 37.3711 44.7718 37.3711C46.2679 37.3711 60.9711 37.3711 65.0804 37.3711C69.1937 37.3711 72.5101 41.4531 72.5101 44.4375C72.5101 47.4258 72.5101 78.6094 72.5101 78.6094L106.639 78.6133C106.639 78.6133 106.389 44.4062 106.83 25.4414C106.955 20.1289 103.272 17.8242 99.7875 17.8242Z" fill="#E9E9E9"/>
<path d="M20.9961 14.6562V18.4688H33.1211V14.6562H20.9961Z" fill="#BDBCBC"/>
<path d="M25.8398 76.4258V73.3398H17.5859V76.4258H25.8398Z" fill="#7B7979"/>
<path d="M87.5938 93.7852H95.8477V90.7031H87.5938V93.7852Z" fill="#A7A5A6"/>
<path d="M13.3672 93.7852V90.6992H5.11328V93.7852H13.3672Z" fill="#A7A5A6"/>
<path d="M0.539062 87.7148C0.539062 89.957 2.56641 90.6992 5.11328 90.6992C23.1914 90.6992 95.9805 90.6992 99.4727 90.6992C103.461 90.6992 106.641 86.7227 106.641 83.4883C106.641 80.2539 106.641 74.8828 106.641 74.8828C106.641 74.8828 6.53125 74.8828 4.41406 74.8828C2.29297 74.8828 0.539062 76.2266 0.539062 78.6133C0.539062 81.0039 0.539062 85.4766 0.539062 87.7148Z" fill="#E9E9E9"/>
<path d="M87.5938 74.2852H102.051V58.0352H87.5938V74.2852Z" fill="#918F8F"/>
<path d="M100.867 72.9609H88.7734V59.3633H100.867V72.9609Z" fill="#A7A5A6"/>
<path d="M89.2422 1.34766H82.5977V0.03125H89.2422V1.34766Z" fill="#EEF0D4"/>
<path d="M89.2422 16.5586H82.5977V15.2422H89.2422V16.5586Z" fill="#EEF0D4"/>
<path d="M90.1133 15.7227H81.7305V0.75H90.1133V15.7227Z" fill="#42A3AB"/>
<path d="M81.7305 3.14453V0.75H90.1133L81.7305 3.14453Z" fill="#3D969E"/>
<path d="M81.7305 3.14453V13.0859L90.1133 10.6914L81.7305 3.14453Z" fill="#41B1BB"/>
<path d="M81.7305 15.6016V13.0859L90.1133 15.7227L81.7305 15.6016Z" fill="#3D969E"/>
<path d="M9.86328 34.6953H13.3633L18.6914 40.8398H27.8555L33.5977 34.6953H106.836V34.0703H33.3281L27.582 40.2188H18.9805L13.6523 34.0703H9.86328V34.6953Z" fill="#BDBCBC"/>
<path d="M98.5273 39.1797C98.5273 44.4922 96.5547 48.793 91.2383 48.793C85.918 48.793 79.2656 46.3672 79.2656 39.1797C79.2656 31.8203 85.918 29.5664 91.2383 29.5664C96.5547 29.5664 98.5273 33.8711 98.5273 39.1797Z" fill="#7B7979"/>
<path d="M100.867 39.1797C100.867 44.4922 96.5547 48.793 91.2383 48.793C85.918 48.793 81.6055 44.4922 81.6055 39.1797C81.6055 33.8711 85.918 29.5664 91.2383 29.5664C96.5547 29.5664 100.867 33.8711 100.867 39.1797Z" fill="#BDBCBC"/>
<path d="M97.6719 39.1797C97.6719 42.7266 94.7891 45.6016 91.2383 45.6016C87.6836 45.6016 84.8047 42.7266 84.8047 39.1797C84.8047 35.6328 87.6836 32.7617 91.2383 32.7617C94.7891 32.7617 97.6719 35.6328 97.6719 39.1797Z" fill="#A7A5A6"/>
<path d="M110.242 67.1484L110.953 73.3125L109.375 67.332L104.531 44.1562L105.395 43.9727L110.242 67.1484Z" fill="#918F8F"/>
<path d="M106.189 43.1213C106.35 43.8752 105.865 44.6134 105.107 44.7697C104.357 44.9299 103.615 44.4455 103.459 43.6916C103.303 42.9377 103.787 42.1994 104.541 42.0431C105.295 41.883 106.033 42.3713 106.189 43.1213Z" fill="#3982A4"/>
<path d="M105.951 43.1719C106.08 43.793 103.974 42.418 104.595 42.2891C105.213 42.1601 105.822 42.5547 105.951 43.1719Z" fill="#46A1C9"/>
<path d="M104.674 43.9844C104.178 43.6289 103.85 43.1289 103.713 42.5664C103.479 42.875 103.373 43.2813 103.459 43.6914C103.616 44.4453 104.358 44.9297 105.108 44.7695C105.424 44.707 105.694 44.5391 105.885 44.3125C105.471 44.3438 105.049 44.25 104.674 43.9844Z" fill="#2D6782"/>
<path d="M120.121 41.668C119.981 41.668 119.867 40.875 119.867 39.8945C119.867 38.9141 119.981 38.1172 120.121 38.1172C120.266 38.1172 120.379 38.9141 120.379 39.8945C120.379 40.875 120.266 41.668 120.121 41.668ZM120.149 37.3945C119.266 37.3945 119.399 39.9258 119.703 42.3945C120.008 44.8672 119.703 66.0703 119.703 66.0703L120.024 72.25L120.59 66.0703C120.59 66.0703 120.395 44.7695 120.59 42.3945C120.781 40.0234 121.027 37.3945 120.149 37.3945Z" fill="#918F8F"/>
<path d="M131.938 68.8398L128.773 74.1797L131.137 68.4609L141.309 47.0742L142.109 47.4531L131.938 68.8398Z" fill="#918F8F"/>
<path d="M142.784 47.4688C142.721 47.6056 142.557 47.6641 142.42 47.6016L140.842 46.8516C140.705 46.7891 140.651 46.6251 140.713 46.4923C140.78 46.3556 140.94 46.297 141.08 46.3595L142.655 47.1056C142.791 47.172 142.85 47.3321 142.784 47.4688Z" fill="#656263"/>
<path d="M89.7969 90.6133C89.7969 94.0195 103.391 96.7812 120.152 96.7812C136.918 96.7812 150.508 94.0195 150.508 90.6133C150.508 87.207 136.918 84.4453 120.152 84.4453C103.391 84.4453 89.7969 87.207 89.7969 90.6133Z" fill="#7B7979"/>
<path d="M89.7969 90.1367C89.7969 93.2773 103.391 95.8242 120.152 95.8242C136.918 95.8242 150.508 93.2773 150.508 90.1367C150.508 86.9961 136.918 84.4453 120.152 84.4453C103.391 84.4453 89.7969 86.9961 89.7969 90.1367Z" fill="#A7A5A6"/>
<path d="M89.7969 90.1367C89.7969 90.1328 89.7969 90.1328 89.7969 90.1289C89.7969 90.1328 89.7969 90.1328 89.7969 90.1367ZM89.7969 90.1289V90.125V90.1289ZM89.7969 90.125C89.7969 90.125 89.7969 90.125 89.7969 90.1211C89.7969 90.125 89.7969 90.125 89.7969 90.125ZM89.7969 90.1211C89.7969 90.1211 89.7969 90.1172 89.8008 90.1172C89.7969 90.1172 89.7969 90.1211 89.7969 90.1211ZM89.8008 90.1172C89.8008 90.1133 89.8008 90.1133 89.8008 90.1133C89.8008 90.1133 89.8008 90.1133 89.8008 90.1172ZM89.8008 90.1094V90.1055V90.1094ZM89.8008 90.1016C89.8008 90.1016 89.8008 90.1016 89.8008 90.0977C89.8008 90.1016 89.8008 90.1016 89.8008 90.1016ZM89.8008 90.0977V90.0938V90.0977ZM89.8008 90.0938C89.8008 90.0898 89.8008 90.0898 89.8008 90.0898C89.8008 90.0898 89.8008 90.0898 89.8008 90.0938ZM89.8008 90.0859C89.8008 90.082 89.8008 90.082 89.8008 90.082C89.8008 90.082 89.8008 90.082 89.8008 90.0859ZM89.8008 90.0781C89.8008 90.0781 89.8008 90.0781 89.8008 90.0742C89.8008 90.0781 89.8008 90.0781 89.8008 90.0781ZM89.8008 90.0742V90.0703C89.8008 90.0703 89.8008 90.0703 89.8008 90.0742ZM89.8008 90.0703C89.8008 90.0664 89.8008 90.0664 89.8008 90.0664C89.8008 90.0664 89.8008 90.0664 89.8008 90.0703ZM89.8008 90.0664V90.0625V90.0664ZM89.8008 90.0625C89.8008 90.0586 89.8008 90.0586 89.8008 90.0586C89.8008 90.0586 89.8008 90.0586 89.8008 90.0625ZM89.8008 90.0547C89.8008 90.0547 89.8008 90.0547 89.8008 90.0508C89.8008 90.0547 89.8008 90.0547 89.8008 90.0547ZM89.8008 90.0508V90.0469V90.0508ZM89.8008 90.0469C89.8008 90.0469 89.8008 90.0469 89.8008 90.043C89.8008 90.0469 89.8008 90.0469 89.8008 90.0469ZM89.8008 90.043V90.0391V90.043ZM89.8008 90.0391C89.8008 90.0352 89.8008 90.0352 89.8008 90.0352C89.8008 90.0352 89.8008 90.0352 89.8008 90.0391ZM89.8047 90.0234C89.8047 90.0234 89.8047 90.0234 89.8047 90.0195C89.8047 90.0234 89.8047 90.0234 89.8047 90.0234ZM89.8047 90.0195C89.8047 90.0156 89.8047 90.0156 89.8047 90.0156C89.8047 90.0156 89.8047 90.0156 89.8047 90.0195ZM89.8047 90.0078V90.0039V90.0078ZM89.8086 89.9844C89.8086 89.9805 89.8086 89.9805 89.8086 89.9805V89.9844Z" fill="#C8C7C7"/>
<path d="M120.316 95.8242C120.328 95.8242 120.344 95.8242 120.359 95.8242C120.344 95.8242 120.328 95.8242 120.316 95.8242ZM120.41 95.8242C120.422 95.8242 120.434 95.8242 120.445 95.8242C120.434 95.8242 120.422 95.8242 120.41 95.8242ZM120.664 95.8203H120.668H120.664Z" fill="#6C6A6A"/>
<path d="M120.152 95.8242C103.391 95.8242 89.7969 93.2773 89.7969 90.1367C89.7969 90.1328 89.7969 90.1328 89.7969 90.1289V90.125C89.7969 90.125 89.7969 90.125 89.7969 90.1211C89.7969 90.1211 89.7969 90.1172 89.8008 90.1172C89.8008 90.1133 89.8008 90.1133 89.8008 90.1133C89.8008 90.1133 89.8008 90.1133 89.8008 90.1094V90.1055C89.8008 90.1016 89.8008 90.1016 89.8008 90.1016C89.8008 90.1016 89.8008 90.1016 89.8008 90.0977V90.0938C89.8008 90.0898 89.8008 90.0898 89.8008 90.0898C89.8008 90.0898 89.8008 90.0898 89.8008 90.0859C89.8008 90.082 89.8008 90.082 89.8008 90.082C89.8008 90.0781 89.8008 90.0781 89.8008 90.0781C89.8008 90.0781 89.8008 90.0781 89.8008 90.0742C89.8008 90.0703 89.8008 90.0703 89.8008 90.0703C89.8008 90.0664 89.8008 90.0664 89.8008 90.0664V90.0625C89.8008 90.0586 89.8008 90.0586 89.8008 90.0586C89.8008 90.0586 89.8008 90.0586 89.8008 90.0547C89.8008 90.0547 89.8008 90.0547 89.8008 90.0508V90.0469C89.8008 90.0469 89.8008 90.0469 89.8008 90.043V90.0391C89.8008 90.0352 89.8008 90.0352 89.8008 90.0352C89.8008 90.0352 89.8008 90.0352 89.8008 90.0312C89.8008 90.0312 89.8008 90.0273 89.8047 90.0273V90.0234C89.8047 90.0234 89.8047 90.0234 89.8047 90.0195C89.8047 90.0156 89.8047 90.0156 89.8047 90.0156C89.8047 90.0156 89.8047 90.0156 89.8047 90.0117C89.8047 90.0117 89.8047 90.0117 89.8047 90.0078V90.0039C89.8047 90 89.8086 89.9961 89.8086 89.9883C89.8086 89.9883 89.8086 89.9883 89.8086 89.9844V89.9805C89.8086 89.9727 89.8125 89.9648 89.8125 89.957C90.0352 88.6016 92.793 87.3633 97.2305 86.4062C97.2305 86.4141 97.2305 86.4219 97.2305 86.4258C97.2305 86.4258 101.785 90.1055 116.879 90.5781C118.672 92.0742 121.07 92.7695 123.348 93.0391C125.273 93.2695 127.207 93.3711 129.141 93.3711C131.605 93.3711 134.066 93.207 136.516 92.9375C141.242 92.4219 145.957 91.543 150.508 90.1406C150.488 93.2461 137.184 95.7695 120.668 95.8203H120.664C120.594 95.8242 120.52 95.8242 120.445 95.8242C120.434 95.8242 120.422 95.8242 120.41 95.8242C120.395 95.8242 120.375 95.8242 120.359 95.8242C120.344 95.8242 120.328 95.8242 120.316 95.8242C120.262 95.8242 120.207 95.8242 120.152 95.8242Z" fill="#918F8F"/>
<path d="M97.2305 86.4258C97.2305 75.5 107.496 66.6406 120.152 66.6406C132.812 66.6406 143.074 75.5 143.074 86.4258C143.074 86.4258 137.871 90.6289 120.152 90.6289C102.438 90.6289 97.2305 86.4258 97.2305 86.4258Z" fill="#F14624"/>
<path d="M120.184 90.6289C120.184 90.6289 120.188 90.6289 120.191 90.6289C120.188 90.6289 120.184 90.6289 120.184 90.6289ZM120.211 90.6289C120.215 90.6289 120.219 90.6289 120.223 90.6289C120.219 90.6289 120.215 90.6289 120.211 90.6289ZM120.246 90.6289H120.25H120.246ZM120.277 90.6289C120.277 90.6289 120.277 90.6289 120.281 90.6289H120.277ZM120.312 90.6289C120.316 90.6289 120.316 90.6289 120.316 90.6289C120.316 90.6289 120.316 90.6289 120.312 90.6289ZM120.34 90.6289C120.344 90.6289 120.348 90.6289 120.352 90.6289C120.348 90.6289 120.344 90.6289 120.34 90.6289ZM120.371 90.6289C120.375 90.6289 120.379 90.6289 120.379 90.6289C120.379 90.6289 120.375 90.6289 120.371 90.6289ZM120.398 90.6289C120.402 90.6289 120.406 90.6289 120.41 90.6289C120.406 90.6289 120.402 90.6289 120.398 90.6289ZM120.438 90.6289C120.441 90.6289 120.445 90.6289 120.449 90.6289C120.445 90.6289 120.441 90.6289 120.438 90.6289ZM120.469 90.6289C120.473 90.6289 120.477 90.6289 120.48 90.6289C120.477 90.6289 120.473 90.6289 120.469 90.6289ZM120.496 90.6289C120.5 90.6289 120.504 90.6289 120.512 90.6289C120.508 90.6289 120.5 90.6289 120.496 90.6289ZM120.527 90.6289C120.531 90.6289 120.535 90.6289 120.539 90.6289C120.535 90.6289 120.531 90.6289 120.527 90.6289ZM120.598 90.6289H120.605H120.598ZM120.625 90.6289C120.629 90.6289 120.633 90.6289 120.637 90.6289C120.633 90.6289 120.629 90.6289 120.625 90.6289ZM120.656 90.6289C120.66 90.6289 120.664 90.6289 120.668 90.6289C120.664 90.6289 120.66 90.6289 120.656 90.6289ZM120.691 90.6289C120.695 90.6289 120.703 90.6289 120.707 90.6289C120.699 90.6289 120.695 90.6289 120.691 90.6289ZM120.723 90.6289C120.727 90.6289 120.73 90.6289 120.738 90.6289C120.73 90.6289 120.727 90.6289 120.723 90.6289ZM120.754 90.6289C120.758 90.6289 120.762 90.6289 120.762 90.6289C120.762 90.6289 120.758 90.6289 120.754 90.6289ZM120.781 90.6289C120.785 90.6289 120.789 90.6289 120.797 90.6289C120.789 90.6289 120.785 90.6289 120.781 90.6289ZM120.812 90.6289C120.82 90.625 120.828 90.625 120.832 90.625C120.828 90.625 120.82 90.625 120.812 90.6289ZM120.848 90.625C120.855 90.625 120.859 90.625 120.863 90.625C120.859 90.625 120.855 90.625 120.848 90.625ZM120.879 90.625C120.883 90.625 120.887 90.625 120.895 90.625C120.887 90.625 120.883 90.625 120.879 90.625ZM120.906 90.625C120.91 90.625 120.914 90.625 120.922 90.625C120.918 90.625 120.91 90.625 120.906 90.625ZM120.941 90.625C120.945 90.625 120.949 90.625 120.957 90.625C120.949 90.625 120.945 90.625 120.941 90.625ZM120.977 90.625C120.98 90.625 120.984 90.625 120.984 90.625C120.984 90.625 120.98 90.625 120.977 90.625ZM121.008 90.625C121.012 90.625 121.016 90.625 121.02 90.625C121.016 90.625 121.012 90.625 121.008 90.625ZM121.035 90.625C121.039 90.625 121.043 90.625 121.047 90.625C121.043 90.625 121.039 90.625 121.035 90.625ZM121.07 90.625C121.074 90.625 121.074 90.625 121.082 90.625C121.078 90.625 121.074 90.625 121.07 90.625ZM121.102 90.625C121.105 90.625 121.113 90.625 121.117 90.625C121.113 90.625 121.105 90.625 121.102 90.625ZM121.129 90.625C121.137 90.625 121.141 90.625 121.145 90.625C121.141 90.625 121.137 90.625 121.129 90.625ZM121.156 90.625C121.164 90.625 121.168 90.625 121.176 90.625C121.168 90.625 121.164 90.625 121.156 90.625ZM121.188 90.625C121.191 90.625 121.199 90.625 121.207 90.625C121.199 90.625 121.195 90.625 121.188 90.625ZM121.227 90.6211C121.23 90.6211 121.238 90.6211 121.242 90.6211C121.238 90.6211 121.23 90.6211 121.227 90.6211ZM121.258 90.6211C121.262 90.6211 121.266 90.6211 121.27 90.6211C121.266 90.6211 121.262 90.6211 121.258 90.6211ZM121.285 90.6211C121.289 90.6211 121.293 90.6211 121.301 90.6211C121.293 90.6211 121.289 90.6211 121.285 90.6211ZM121.316 90.6211C121.32 90.6211 121.324 90.6211 121.328 90.6211C121.324 90.6211 121.32 90.6211 121.316 90.6211ZM121.352 90.6211C121.355 90.6211 121.363 90.6211 121.367 90.6211C121.363 90.6211 121.359 90.6211 121.352 90.6211ZM121.383 90.6211C121.387 90.6211 121.391 90.6211 121.395 90.6211C121.391 90.6211 121.387 90.6211 121.383 90.6211ZM121.41 90.6211C121.414 90.6211 121.418 90.6211 121.426 90.6211C121.418 90.6211 121.414 90.6211 121.41 90.6211ZM121.441 90.6211C121.445 90.6211 121.449 90.6211 121.449 90.6211C121.449 90.6211 121.445 90.6211 121.441 90.6211ZM121.48 90.6211C121.484 90.6211 121.484 90.6211 121.488 90.6211C121.484 90.6211 121.484 90.6211 121.48 90.6211ZM121.508 90.6211C121.512 90.6211 121.516 90.6211 121.52 90.6211C121.516 90.6211 121.512 90.6211 121.508 90.6211ZM121.535 90.6211C121.539 90.6211 121.543 90.6211 121.551 90.6211C121.543 90.6211 121.539 90.6211 121.535 90.6211ZM121.57 90.6211H121.574C121.57 90.6211 121.57 90.6211 121.57 90.6211ZM121.602 90.6211C121.605 90.6211 121.609 90.6211 121.613 90.6211C121.609 90.6211 121.609 90.6211 121.602 90.6211ZM121.633 90.6211C121.637 90.6211 121.641 90.6211 121.648 90.6211C121.641 90.6211 121.637 90.6211 121.633 90.6211ZM121.656 90.6211C121.664 90.6211 121.668 90.6211 121.672 90.6211C121.668 90.6211 121.664 90.6211 121.656 90.6211ZM121.688 90.6172C121.691 90.6172 121.695 90.6172 121.703 90.6172C121.695 90.6172 121.691 90.6172 121.688 90.6172ZM121.727 90.6172C121.73 90.6172 121.73 90.6172 121.734 90.6172C121.73 90.6172 121.73 90.6172 121.727 90.6172ZM121.758 90.6172H121.762H121.758ZM121.785 90.6172C121.789 90.6172 121.793 90.6172 121.793 90.6172C121.793 90.6172 121.789 90.6172 121.785 90.6172ZM121.816 90.6172C121.82 90.6172 121.82 90.6172 121.824 90.6172C121.82 90.6172 121.816 90.6172 121.816 90.6172ZM121.879 90.6172C121.883 90.6172 121.883 90.6172 121.887 90.6172C121.887 90.6172 121.883 90.6172 121.879 90.6172ZM121.906 90.6172C121.914 90.6172 121.914 90.6172 121.918 90.6133C121.914 90.6172 121.91 90.6172 121.906 90.6172ZM121.938 90.6133H121.945C121.941 90.6133 121.941 90.6133 121.938 90.6133ZM122.004 90.6133C122.004 90.6133 122.008 90.6133 122.012 90.6133C122.008 90.6133 122.008 90.6133 122.004 90.6133ZM122.031 90.6133C122.035 90.6133 122.035 90.6133 122.043 90.6133C122.039 90.6133 122.035 90.6133 122.031 90.6133ZM122.059 90.6133C122.062 90.6133 122.066 90.6133 122.07 90.6133C122.066 90.6133 122.062 90.6133 122.059 90.6133ZM122.09 90.6133C122.094 90.6133 122.098 90.6133 122.102 90.6133C122.098 90.6133 122.094 90.6133 122.09 90.6133ZM122.125 90.6133C122.129 90.6094 122.133 90.6094 122.137 90.6094C122.133 90.6094 122.129 90.6094 122.125 90.6133ZM122.152 90.6094C122.156 90.6094 122.16 90.6094 122.164 90.6094C122.16 90.6094 122.156 90.6094 122.152 90.6094ZM122.184 90.6094C122.184 90.6094 122.188 90.6094 122.191 90.6094C122.188 90.6094 122.184 90.6094 122.184 90.6094ZM122.215 90.6094C122.219 90.6094 122.219 90.6094 122.219 90.6094C122.219 90.6094 122.219 90.6094 122.215 90.6094ZM122.277 90.6094C122.277 90.6094 122.281 90.6094 122.285 90.6094C122.281 90.6094 122.277 90.6094 122.277 90.6094ZM122.305 90.6094C122.309 90.6094 122.309 90.6094 122.312 90.6094C122.309 90.6094 122.309 90.6094 122.305 90.6094ZM122.336 90.6055C122.34 90.6055 122.34 90.6055 122.34 90.6055C122.34 90.6055 122.34 90.6055 122.336 90.6055ZM122.398 90.6055C122.398 90.6055 122.402 90.6055 122.406 90.6055C122.402 90.6055 122.398 90.6055 122.398 90.6055ZM122.426 90.6055C122.43 90.6055 122.43 90.6055 122.434 90.6055C122.43 90.6055 122.43 90.6055 122.426 90.6055ZM122.52 90.6016H122.523H122.52ZM122.641 90.5977C122.641 90.5977 122.641 90.5977 122.645 90.5977H122.641ZM122.668 90.5977C122.672 90.5977 122.672 90.5977 122.672 90.5977C122.672 90.5977 122.672 90.5977 122.668 90.5977ZM122.789 90.5977H122.793H122.789ZM122.82 90.5977C122.82 90.5977 122.82 90.5977 122.824 90.5977C122.82 90.5977 122.82 90.5977 122.82 90.5977ZM122.879 90.5938C122.883 90.5938 122.883 90.5938 122.883 90.5938C122.883 90.5938 122.883 90.5938 122.879 90.5938Z" fill="#7F7D7E"/>
<path d="M97.2305 86.3906V86.3867V86.3906ZM97.2305 86.375C97.2305 86.3711 97.2305 86.3711 97.2305 86.3672C97.2305 86.3711 97.2305 86.3711 97.2305 86.375ZM97.2305 86.3594C97.2305 86.3555 97.2305 86.3555 97.2305 86.3516C97.2305 86.3555 97.2305 86.3555 97.2305 86.3594ZM97.2305 86.3438C97.2305 86.3398 97.2305 86.3359 97.2305 86.3359C97.2305 86.3359 97.2305 86.3398 97.2305 86.3438ZM97.2305 86.3242V86.3203V86.3242ZM97.2305 86.3086C97.2305 86.3047 97.2305 86.3047 97.2305 86.3008C97.2305 86.3047 97.2305 86.3047 97.2305 86.3086ZM97.2305 86.2891V86.2852V86.2891ZM97.2305 86.2734V86.2695V86.2734ZM97.2344 86.2578C97.2344 86.2539 97.2344 86.2539 97.2344 86.2539V86.2578ZM97.2344 86.2422C97.2344 86.2383 97.2344 86.2383 97.2344 86.2344C97.2344 86.2383 97.2344 86.2383 97.2344 86.2422ZM97.2344 86.2227V86.2188C97.2344 86.2227 97.2344 86.2227 97.2344 86.2227Z" fill="#AEACAD"/>
<path d="M120.152 90.6289C119.008 90.6289 117.918 90.6133 116.879 90.5781C101.785 90.1055 97.2305 86.4258 97.2305 86.4258C97.2305 86.418 97.2305 86.4141 97.2305 86.4062C97.2305 86.4062 97.2305 86.4062 97.2305 86.4023C97.2305 86.3984 97.2305 86.3945 97.2305 86.3906V86.3867C97.2305 86.3828 97.2305 86.3789 97.2305 86.375C97.2305 86.3711 97.2305 86.3711 97.2305 86.3672C97.2305 86.3633 97.2305 86.3633 97.2305 86.3594C97.2305 86.3555 97.2305 86.3555 97.2305 86.3516C97.2305 86.3477 97.2305 86.3438 97.2305 86.3438C97.2305 86.3398 97.2305 86.3359 97.2305 86.3359C97.2305 86.332 97.2305 86.3281 97.2305 86.3242V86.3203C97.2305 86.3164 97.2305 86.3125 97.2305 86.3086C97.2305 86.3047 97.2305 86.3047 97.2305 86.3008C97.2305 86.2969 97.2305 86.293 97.2305 86.2891V86.2852C97.2305 86.2813 97.2305 86.2773 97.2305 86.2734V86.2695C97.2305 86.2656 97.2344 86.2617 97.2344 86.2578V86.2539C97.2344 86.25 97.2344 86.2461 97.2344 86.2422C97.2344 86.2383 97.2344 86.2383 97.2344 86.2344C97.2344 86.2305 97.2344 86.2266 97.2344 86.2227C97.2344 86.2227 97.2344 86.2227 97.2344 86.2188C97.3008 80.4766 100.203 75.3203 104.789 71.7422C103.848 74.2812 103.547 76.9414 104.664 79.8164C105.832 82.8125 108.5 85.043 111.258 86.5469C114.863 88.5156 119.086 88.6602 123.082 89.1094C125.285 89.3555 127.527 89.5234 129.754 89.5234C133.422 89.5234 137.055 89.0703 140.422 87.7812C137.586 88.9062 132.184 90.3516 122.883 90.5938C122.883 90.5938 122.883 90.5938 122.879 90.5938C122.863 90.5938 122.844 90.5977 122.824 90.5977C122.82 90.5977 122.82 90.5977 122.82 90.5977C122.809 90.5977 122.801 90.5977 122.793 90.5977H122.789C122.781 90.5977 122.77 90.5977 122.762 90.5977C122.742 90.5977 122.723 90.5977 122.703 90.5977C122.691 90.5977 122.684 90.5977 122.672 90.5977C122.672 90.5977 122.672 90.5977 122.668 90.5977C122.664 90.5977 122.656 90.5977 122.645 90.5977C122.641 90.5977 122.641 90.5977 122.641 90.5977C122.621 90.6016 122.602 90.6016 122.582 90.6016C122.57 90.6016 122.563 90.6016 122.551 90.6016C122.543 90.6016 122.531 90.6016 122.523 90.6016H122.52C122.5 90.6016 122.48 90.6016 122.461 90.6055C122.449 90.6055 122.441 90.6055 122.434 90.6055C122.43 90.6055 122.43 90.6055 122.426 90.6055C122.418 90.6055 122.414 90.6055 122.406 90.6055C122.402 90.6055 122.398 90.6055 122.398 90.6055C122.391 90.6055 122.379 90.6055 122.371 90.6055C122.359 90.6055 122.352 90.6055 122.34 90.6055C122.34 90.6055 122.34 90.6055 122.336 90.6055C122.328 90.6055 122.32 90.6055 122.312 90.6094C122.309 90.6094 122.309 90.6094 122.305 90.6094C122.297 90.6094 122.293 90.6094 122.285 90.6094C122.281 90.6094 122.277 90.6094 122.277 90.6094C122.266 90.6094 122.258 90.6094 122.25 90.6094C122.238 90.6094 122.23 90.6094 122.219 90.6094C122.219 90.6094 122.219 90.6094 122.215 90.6094C122.207 90.6094 122.199 90.6094 122.191 90.6094C122.188 90.6094 122.184 90.6094 122.184 90.6094C122.176 90.6094 122.172 90.6094 122.164 90.6094C122.16 90.6094 122.156 90.6094 122.152 90.6094C122.148 90.6094 122.141 90.6094 122.137 90.6094C122.133 90.6094 122.129 90.6094 122.125 90.6133C122.117 90.6133 122.109 90.6133 122.102 90.6133C122.098 90.6133 122.094 90.6133 122.09 90.6133C122.082 90.6133 122.074 90.6133 122.07 90.6133C122.066 90.6133 122.062 90.6133 122.059 90.6133C122.055 90.6133 122.047 90.6133 122.043 90.6133C122.035 90.6133 122.035 90.6133 122.031 90.6133C122.023 90.6133 122.016 90.6133 122.012 90.6133C122.008 90.6133 122.004 90.6133 122.004 90.6133C121.984 90.6133 121.965 90.6133 121.945 90.6133H121.938C121.93 90.6133 121.926 90.6133 121.918 90.6133C121.914 90.6172 121.914 90.6172 121.906 90.6172C121.902 90.6172 121.895 90.6172 121.887 90.6172C121.883 90.6172 121.883 90.6172 121.879 90.6172C121.859 90.6172 121.844 90.6172 121.824 90.6172C121.82 90.6172 121.82 90.6172 121.816 90.6172C121.809 90.6172 121.801 90.6172 121.793 90.6172C121.793 90.6172 121.789 90.6172 121.785 90.6172C121.777 90.6172 121.773 90.6172 121.762 90.6172H121.758C121.75 90.6172 121.742 90.6172 121.734 90.6172C121.73 90.6172 121.73 90.6172 121.727 90.6172C121.719 90.6172 121.711 90.6172 121.703 90.6172C121.695 90.6172 121.691 90.6172 121.688 90.6172C121.684 90.6172 121.68 90.6211 121.672 90.6211C121.668 90.6211 121.664 90.6211 121.656 90.6211C121.652 90.6211 121.652 90.6211 121.648 90.6211C121.641 90.6211 121.637 90.6211 121.633 90.6211C121.625 90.6211 121.621 90.6211 121.613 90.6211C121.609 90.6211 121.605 90.6211 121.602 90.6211C121.594 90.6211 121.586 90.6211 121.574 90.6211H121.57C121.563 90.6211 121.555 90.6211 121.551 90.6211C121.543 90.6211 121.539 90.6211 121.535 90.6211C121.531 90.6211 121.523 90.6211 121.52 90.6211C121.516 90.6211 121.512 90.6211 121.508 90.6211C121.5 90.6211 121.496 90.6211 121.488 90.6211C121.484 90.6211 121.484 90.6211 121.48 90.6211C121.469 90.6211 121.461 90.6211 121.449 90.6211C121.449 90.6211 121.445 90.6211 121.441 90.6211C121.434 90.6211 121.43 90.6211 121.426 90.6211C121.418 90.6211 121.414 90.6211 121.41 90.6211C121.406 90.6211 121.398 90.6211 121.395 90.6211C121.391 90.6211 121.387 90.6211 121.383 90.6211C121.375 90.6211 121.371 90.6211 121.367 90.6211C121.363 90.6211 121.355 90.6211 121.352 90.6211C121.348 90.6211 121.336 90.6211 121.328 90.6211C121.324 90.6211 121.32 90.6211 121.316 90.6211C121.309 90.6211 121.305 90.6211 121.301 90.6211C121.293 90.6211 121.289 90.6211 121.285 90.6211C121.281 90.6211 121.273 90.6211 121.27 90.6211C121.266 90.6211 121.262 90.6211 121.258 90.6211C121.25 90.6211 121.246 90.6211 121.242 90.6211C121.238 90.6211 121.23 90.6211 121.227 90.6211C121.223 90.625 121.215 90.625 121.207 90.625C121.199 90.625 121.191 90.625 121.188 90.625C121.184 90.625 121.18 90.625 121.176 90.625C121.168 90.625 121.164 90.625 121.156 90.625C121.152 90.625 121.148 90.625 121.145 90.625C121.141 90.625 121.137 90.625 121.129 90.625C121.125 90.625 121.121 90.625 121.117 90.625C121.113 90.625 121.105 90.625 121.102 90.625C121.094 90.625 121.086 90.625 121.082 90.625C121.074 90.625 121.074 90.625 121.07 90.625C121.063 90.625 121.055 90.625 121.047 90.625C121.043 90.625 121.039 90.625 121.035 90.625C121.027 90.625 121.023 90.625 121.02 90.625C121.016 90.625 121.012 90.625 121.008 90.625C121 90.625 120.992 90.625 120.984 90.625C120.984 90.625 120.98 90.625 120.977 90.625C120.969 90.625 120.965 90.625 120.957 90.625C120.949 90.625 120.945 90.625 120.941 90.625C120.934 90.625 120.93 90.625 120.922 90.625C120.914 90.625 120.91 90.625 120.906 90.625C120.902 90.625 120.898 90.625 120.895 90.625C120.887 90.625 120.883 90.625 120.879 90.625C120.875 90.625 120.867 90.625 120.863 90.625C120.859 90.625 120.855 90.625 120.848 90.625C120.844 90.625 120.84 90.625 120.832 90.625C120.828 90.625 120.82 90.625 120.812 90.6289C120.809 90.6289 120.801 90.6289 120.797 90.6289C120.789 90.6289 120.785 90.6289 120.781 90.6289C120.777 90.6289 120.77 90.6289 120.762 90.6289C120.762 90.6289 120.758 90.6289 120.754 90.6289C120.746 90.6289 120.742 90.6289 120.738 90.6289C120.73 90.6289 120.727 90.6289 120.723 90.6289C120.719 90.6289 120.715 90.6289 120.707 90.6289C120.703 90.6289 120.695 90.6289 120.691 90.6289C120.68 90.6289 120.676 90.6289 120.668 90.6289C120.664 90.6289 120.66 90.6289 120.656 90.6289C120.648 90.6289 120.645 90.6289 120.637 90.6289C120.633 90.6289 120.629 90.6289 120.625 90.6289C120.621 90.6289 120.613 90.6289 120.605 90.6289H120.598C120.586 90.6289 120.578 90.6289 120.57 90.6289C120.559 90.6289 120.551 90.6289 120.539 90.6289C120.535 90.6289 120.531 90.6289 120.527 90.6289C120.52 90.6289 120.516 90.6289 120.512 90.6289C120.504 90.6289 120.5 90.6289 120.496 90.6289C120.492 90.6289 120.488 90.6289 120.48 90.6289C120.477 90.6289 120.473 90.6289 120.469 90.6289C120.461 90.6289 120.457 90.6289 120.449 90.6289C120.445 90.6289 120.441 90.6289 120.438 90.6289C120.43 90.6289 120.418 90.6289 120.41 90.6289C120.406 90.6289 120.402 90.6289 120.398 90.6289C120.395 90.6289 120.387 90.6289 120.379 90.6289C120.379 90.6289 120.375 90.6289 120.371 90.6289C120.363 90.6289 120.355 90.6289 120.352 90.6289C120.348 90.6289 120.344 90.6289 120.34 90.6289C120.332 90.6289 120.324 90.6289 120.316 90.6289C120.316 90.6289 120.316 90.6289 120.312 90.6289C120.301 90.6289 120.293 90.6289 120.281 90.6289C120.277 90.6289 120.277 90.6289 120.277 90.6289C120.27 90.6289 120.258 90.6289 120.25 90.6289H120.246C120.234 90.6289 120.23 90.6289 120.223 90.6289C120.219 90.6289 120.215 90.6289 120.211 90.6289C120.203 90.6289 120.195 90.6289 120.191 90.6289C120.188 90.6289 120.184 90.6289 120.184 90.6289C120.172 90.6289 120.164 90.6289 120.152 90.6289Z" fill="#B33219"/>
<path d="M113.742 70.9727C113.742 71.3984 112.977 71.7422 112.031 71.7422C111.09 71.7422 110.324 71.3984 110.324 70.9727C110.324 70.5508 111.09 70.2031 112.031 70.2031C112.977 70.2031 113.742 70.5508 113.742 70.9727Z" fill="#C1371C"/>
<path d="M118.453 71.3594C118.453 71.5703 118.16 71.7422 117.805 71.7422C117.445 71.7422 117.156 71.5703 117.156 71.3594C117.156 71.1445 117.445 70.9727 117.805 70.9727C118.16 70.9727 118.453 71.1445 118.453 71.3594Z" fill="#C1371C"/>
<path d="M120.773 68.4336C120.773 68.7734 120.109 69.0469 119.289 69.0469C118.469 69.0469 117.805 68.7734 117.805 68.4336C117.805 68.0937 118.469 67.8203 119.289 67.8203C120.109 67.8203 120.773 68.0937 120.773 68.4336Z" fill="#C1371C"/>
<path d="M124.734 73.0234C124.734 73.4492 124.137 73.7969 123.402 73.7969C122.668 73.7969 122.07 73.4492 122.07 73.0234C122.07 72.5977 122.668 72.25 123.402 72.25C124.137 72.25 124.734 72.5977 124.734 73.0234Z" fill="#C1371C"/>
<path d="M123.402 70.4414C123.402 70.5742 123.105 70.6836 122.738 70.6836C122.371 70.6836 122.07 70.5742 122.07 70.4414C122.07 70.3125 122.371 70.2031 122.738 70.2031C123.105 70.2031 123.402 70.3125 123.402 70.4414Z" fill="#C1371C"/>
<path d="M128.219 69.625C128.219 69.9453 127.684 70.2031 127.023 70.2031C126.363 70.2031 125.828 69.9453 125.828 69.625C125.828 69.3047 126.363 69.0469 127.023 69.0469C127.684 69.0469 128.219 69.3047 128.219 69.625Z" fill="#C1371C"/>
<path d="M130.406 71.5508C130.406 71.6563 130.066 71.7422 129.652 71.7422C129.234 71.7422 128.898 71.6563 128.898 71.5508C128.898 71.4453 129.234 71.3594 129.652 71.3594C130.066 71.3594 130.406 71.4453 130.406 71.5508Z" fill="#C1371C"/>
<path d="M132.445 40.4688C132.586 40.4962 132.543 41.2969 132.352 42.2618C132.164 43.2227 131.898 43.9805 131.758 43.9532C131.621 43.9258 131.66 43.1251 131.852 42.1602C132.043 41.1993 132.309 40.4415 132.445 40.4688ZM126.617 67.8126L126.262 70.0704C126.465 70.2032 126.652 70.2032 126.832 70.2032L127.484 67.9844C127.484 67.9844 131.422 47.0469 132.074 44.754C132.723 42.4649 133.477 39.9337 132.609 39.7657C131.742 39.5938 131.387 42.1016 131.207 44.586C131.023 47.0704 126.617 67.8126 126.617 67.8126Z" fill="#918F8F"/>
<path d="M117.414 71.6523C117.57 71.7422 117.805 71.7422 117.945 71.7422L117.977 69.1445L116.133 45.543L115.25 45.6094L117.094 69.2109L117.414 71.6523Z" fill="#918F8F"/>
<path d="M117.031 44.7971C117.09 45.5666 116.516 46.2346 115.746 46.2971C114.977 46.3557 114.309 45.7815 114.246 45.0158C114.188 44.2502 114.762 43.5783 115.531 43.5158C116.297 43.4572 116.973 44.0315 117.031 44.7971Z" fill="#C13331"/>
<path d="M116.781 44.8162C116.828 45.4451 114.918 43.8162 115.551 43.7654C116.179 43.7186 116.734 44.1873 116.781 44.8162Z" fill="#EF3430"/>
<path d="M115.414 45.4609C114.965 45.0469 114.703 44.5039 114.641 43.9336C114.371 44.2109 114.215 44.5977 114.246 45.0156C114.309 45.7812 114.977 46.3555 115.746 46.2969C116.066 46.2695 116.352 46.1367 116.574 45.9414C116.16 45.9219 115.754 45.7734 115.414 45.4609Z" fill="#8D2422"/>
</svg>
