<svg width="292" height="324" viewBox="0 0 292 324" fill="none" xmlns="http://www.w3.org/2000/svg">
<path d="M275.59 31.4727C281.375 31.707 285.922 36.4453 285.922 42.2578V121.922C285.922 210.074 230.52 288.684 147.746 318.273C146.547 318.715 145.199 318.715 144 318.273C102.93 303.551 68.5898 276.828 44.3906 242.859C19.8789 208.305 5.82422 166.332 5.82422 121.922V42.2578C5.82422 36.4453 10.3672 31.707 16.1562 31.4727C39.7617 30.5703 98.9531 26.3555 141.305 6.94141C144.23 5.59375 147.516 5.59375 150.438 6.94141C192.793 26.3555 251.98 30.5703 275.59 31.4727Z" fill="#37A57D"/>
<path d="M215.898 156.879C215.898 201.543 184.547 237.742 145.871 237.742C107.199 237.742 75.8477 201.543 75.8477 156.879C75.8477 112.215 107.199 76.0117 145.871 76.0117C184.547 76.0117 215.898 112.215 215.898 156.879Z" fill="#86D055"/>
<path d="M170.637 81.2344C172.047 77.9492 172.805 74.3906 172.805 70.6211C172.805 55.7344 160.75 38.2773 145.871 38.2773C130.996 38.2773 118.941 55.7344 118.941 70.6211C118.941 74.3906 119.699 77.9492 121.105 81.2344H170.637Z" fill="#86D055"/>
<path d="M95.3516 212.832L92.2812 215.906C85.2109 222.98 81.2344 232.562 81.2344 242.609V247.621C81.2344 252.676 84.4531 257.098 89.2109 258.719C94.0469 260.34 99.4336 258.613 102.402 254.402L118.773 231.445L95.3516 212.832Z" fill="#86D055"/>
<path d="M196.391 212.832L199.465 215.906C206.535 222.98 210.512 232.562 210.512 242.609V247.621C210.512 252.676 207.289 257.098 202.535 258.719C197.695 260.34 192.309 258.613 189.344 254.402L172.973 231.445L196.391 212.832Z" fill="#86D055"/>
<path d="M80.4766 127.984L74.5 113.16C72.082 107.012 66.1484 102.969 59.5195 102.969H48.9141C45.9492 102.969 43.2578 101.789 41.3203 99.7891C39.3203 97.8516 38.1445 95.1562 38.1445 92.1875C38.1445 86.2695 43.0039 81.4062 48.9141 81.4062H70.7773C77.6367 81.4062 84.3086 83.2383 90.1758 86.7969L102.023 93.8516L80.4766 127.984Z" fill="#86D055"/>
<path d="M189.723 93.8516L201.566 86.7969C207.438 83.2383 214.109 81.4062 220.969 81.4062H242.828C248.742 81.4062 253.602 86.2695 253.602 92.1875C253.602 95.1562 252.422 97.8516 250.426 99.7891C248.488 101.789 245.797 102.969 242.828 102.969H232.223C225.598 102.969 219.664 107.012 217.242 113.16L211.27 127.984L189.723 93.8516Z" fill="#86D055"/>
<path d="M142.148 323.348C143.348 323.789 144.633 324 145.871 324C147.137 324 148.375 323.789 149.555 323.348C234.348 293.043 291.309 212.074 291.309 121.922V42.2578C291.309 33.5156 284.488 26.4219 275.801 26.082C252.594 25.1992 194.16 21.0508 152.691 2.03516C148.355 0.0351562 143.391 0.0351562 139.055 2.03516C97.582 21.0508 39.1523 25.1992 15.9453 26.082C7.25391 26.4219 0.4375 33.5156 0.4375 42.2578V65.2305C0.4375 68.1992 2.85937 70.6211 5.82422 70.6211C8.78906 70.6211 11.2109 68.1992 11.2109 65.2305V42.2578C11.2109 39.3516 13.4609 36.9687 16.3672 36.8672C40.2031 35.9375 100.32 31.6641 143.535 11.8281C145.051 11.1523 146.691 11.1523 148.207 11.8281C191.426 31.6641 251.539 35.9375 275.379 36.8672C278.281 36.9687 280.535 39.3516 280.535 42.2578V121.922C280.535 207.547 226.438 284.41 145.809 313.219C106.547 299.129 72.9883 273.734 48.7891 239.723C24.2148 205.082 11.2109 164.355 11.2109 121.922V92.1875C11.2109 89.2188 8.78906 86.7969 5.82422 86.7969C2.85937 86.7969 0.4375 89.2188 0.4375 92.1875V121.922C0.4375 166.586 14.1133 209.504 39.9961 245.977C65.4961 281.777 100.844 308.543 142.148 323.348Z" fill="#2B2C2D"/>
<path d="M124.328 70.6211C124.328 58.4922 134.258 43.668 145.871 43.668C157.488 43.668 167.418 58.4922 167.418 70.6211C167.418 71.8242 167.25 73 167.062 74.1602C160.328 71.8867 153.238 70.6211 145.871 70.6211C138.508 70.6211 131.418 71.8867 124.684 74.1602C124.496 73 124.328 71.8242 124.328 70.6211ZM204.367 91.4062C209.332 88.3945 215.074 86.7969 220.969 86.7969H242.828C245.797 86.7969 248.215 89.2188 248.215 92.1875C248.215 93.6172 247.668 94.9648 246.574 96.0391C245.605 97.0313 244.258 97.5781 242.828 97.5781H232.223C223.344 97.5781 215.496 102.906 212.258 111.141L211.141 113.875C207.629 106.906 203.312 100.566 198.305 95.0078L204.367 91.4062ZM145.871 232.352C110.23 232.352 81.2344 198.492 81.2344 156.879C81.2344 115.266 110.23 81.4062 145.871 81.4062C181.516 81.4062 210.512 115.266 210.512 156.879C210.512 198.492 181.516 232.352 145.871 232.352ZM205.125 242.609V247.621C205.125 250.316 203.379 252.738 200.832 253.602C198.242 254.465 195.32 253.516 193.742 251.262L180.863 233.215C186.543 229.805 191.762 225.531 196.496 220.645C201.969 226.563 205.125 234.5 205.125 242.609ZM98.0039 251.305C96.4258 253.516 93.5234 254.465 90.9336 253.621C88.3672 252.738 86.6211 250.316 86.6211 247.621V242.609C86.6211 234.5 89.7773 226.563 95.25 220.645C99.9805 225.531 105.199 229.805 110.883 233.215L98.0039 251.305ZM79.5078 111.18C76.25 102.906 68.3984 97.5781 59.5195 97.5781H48.9141C47.4844 97.5781 46.1367 97.0312 45.0664 95.9336C44.0781 94.9648 43.5312 93.6172 43.5312 92.1875C43.5312 89.2188 45.9492 86.7969 48.9141 86.7969H70.7773C76.668 86.7969 82.4141 88.3945 87.4219 91.4297L93.4375 95.0078C88.4297 100.566 84.1172 106.926 80.6055 113.875L79.5078 111.18ZM92.9766 82.1836C86.3047 78.1406 78.6484 76.0117 70.7773 76.0117H48.9141C39.9961 76.0117 32.7578 83.2578 32.7578 92.1875C32.7578 96.5664 34.4609 100.633 37.4688 103.535C40.4805 106.652 44.5391 108.359 48.9141 108.359H59.5195C63.9609 108.359 67.875 111.012 69.5156 115.184L74.7969 128.301C72.0391 137.25 70.4609 146.855 70.4609 156.879C70.4609 178 77.1523 197.352 88.2188 212.367C80.3711 220.371 75.8477 231.363 75.8477 242.609V247.621C75.8477 254.926 80.5195 261.457 87.5039 263.836C89.25 264.426 91.0625 264.699 92.8477 264.699C98.2773 264.699 103.582 262.086 106.777 257.539L120.664 238.059C128.555 241.281 137.016 243.137 145.871 243.137C154.73 243.137 163.188 241.281 171.078 238.059L184.945 257.496C188.164 262.086 193.445 264.68 198.895 264.68C200.684 264.68 202.516 264.402 204.281 263.812C211.227 261.457 215.898 254.926 215.898 247.621V242.609C215.898 231.363 211.371 220.371 203.523 212.367C214.594 197.352 221.281 178 221.281 156.879C221.281 146.855 219.703 137.25 216.949 128.301L222.25 115.141C223.871 111.012 227.785 108.359 232.223 108.359H242.828C247.207 108.359 251.266 106.652 254.172 103.664C257.285 100.633 258.988 96.5664 258.988 92.1875C258.988 83.2578 251.75 76.0117 242.828 76.0117H220.969C213.098 76.0117 205.438 78.1406 198.812 82.1641L190.227 87.2812C186.164 83.8906 181.809 80.9414 177.18 78.5195C177.832 75.9492 178.191 73.3164 178.191 70.6211C178.191 53.1641 164.074 32.8867 145.871 32.8867C127.672 32.8867 113.555 53.1641 113.555 70.6211C113.555 73.3164 113.91 75.9492 114.562 78.5195C109.934 80.9414 105.578 83.8906 101.52 87.2812L92.9766 82.1836Z" fill="#2B2C2D"/>
<path d="M167.418 170L145.871 182.949L124.328 170V143.758L145.871 130.809L167.418 143.758V170ZM172.656 134.324L151.258 121.48V97.5781C151.258 94.6094 148.84 92.1875 145.871 92.1875C142.906 92.1875 140.484 94.6094 140.484 97.5781V121.48L119.086 134.324L105.77 125.438C103.285 123.773 99.9414 124.449 98.3008 126.934C96.6367 129.418 97.3086 132.766 99.793 134.41L113.555 143.59V170.168L99.793 179.348C97.3086 180.992 96.6367 184.34 98.3008 186.824C99.3282 188.383 101.035 189.227 102.781 189.227C103.813 189.227 104.844 188.93 105.77 188.32L119.086 179.434L140.484 192.277V216.18C140.484 219.148 142.906 221.57 145.871 221.57C148.84 221.57 151.258 219.148 151.258 216.18V192.277L172.656 179.434L185.977 188.32C186.902 188.93 187.934 189.227 188.965 189.227C190.711 189.227 192.414 188.383 193.445 186.824C195.109 184.34 194.434 180.992 191.953 179.348L178.191 170.168V143.59L191.953 134.41C194.434 132.766 195.109 129.418 193.445 126.934C191.805 124.449 188.461 123.773 185.977 125.438L172.656 134.324Z" fill="#2B2C2D"/>
</svg>
