<svg width="192" height="187" viewBox="0 0 192 187" fill="none" xmlns="http://www.w3.org/2000/svg">
<path d="M143.277 59.5039H162.047L145.359 99.6875V73.7734C145.359 72.6328 144.426 71.6875 143.277 71.6875H124.508L141.191 31.5117V57.418C141.191 58.5742 142.125 59.5039 143.277 59.5039Z" fill="#008037"/>
<path d="M172.434 109.805C157.344 130.961 135.164 145.164 109.785 150.172C113.121 129.289 120.781 109.301 132.508 91.4258C133.137 90.4688 132.871 89.168 131.91 88.5469C130.953 87.9141 129.652 88.1797 129.023 89.1445C117.258 107.086 109.504 127.098 105.949 147.996C103.953 145.48 102.07 142.867 100.48 140.082C92.1641 125.512 90.0156 108.566 94.4375 92.3828C98.8672 76.1953 109.32 62.7109 123.891 54.3984C125.398 53.5352 126.844 52.543 128.324 51.6211L119.449 72.9844C119.187 73.625 119.254 74.3633 119.641 74.9414C120.031 75.5273 120.68 75.8711 121.375 75.8711H141.184V110.156C141.184 111.145 141.883 112 142.859 112.195C142.996 112.23 143.125 112.242 143.266 112.242C144.098 112.242 144.863 111.746 145.199 110.949L167.09 58.2266C167.352 57.5859 167.285 56.8516 166.895 56.2695C166.508 55.6875 165.855 55.3398 165.16 55.3398H145.352V39.3672C158.359 28.4375 169.262 15.5117 177.754 0.835938C183.754 11.2695 187.812 22.5742 189.809 34.5039C194.266 61.1016 188.09 87.8516 172.434 109.805Z" fill="#008037"/>
<path d="M137.555 123.77C137.555 157.996 109.863 185.766 75.6953 185.766C41.5391 185.766 13.8516 157.996 13.8516 123.77C13.8516 89.5352 41.5391 61.7812 75.6953 61.7812C109.863 61.7812 137.555 89.5352 137.555 123.77Z" fill="#70CFC7"/>
<path d="M137.555 123.77H136.547C136.547 140.605 129.738 155.848 118.727 166.891C107.711 177.93 92.5039 184.758 75.6953 184.758C58.8945 184.758 43.6875 177.93 32.6758 166.891C21.668 155.848 14.8594 140.605 14.8594 123.77C14.8594 106.926 21.668 91.6875 32.6758 80.6484C43.6875 69.6133 58.8945 62.7891 75.6953 62.7891C92.5039 62.7891 107.711 69.6133 118.727 80.6484C129.738 91.6875 136.547 106.926 136.547 123.77H138.559C138.559 88.9805 110.422 60.7734 75.6953 60.7734C40.9844 60.7734 12.8477 88.9805 12.8477 123.77C12.8477 158.555 40.9844 186.773 75.6953 186.773C110.422 186.773 138.559 158.555 138.559 123.77H137.555Z" fill="#180D0C"/>
<path d="M75.6953 184.758C58.8945 184.758 43.6875 177.93 32.6758 166.891C21.668 155.848 14.8594 140.605 14.8594 123.77C14.8594 106.926 21.668 91.6875 32.6758 80.6484C34.8164 78.5078 37.1133 76.5195 39.5508 74.7109C28.5625 85.9023 21.7812 101.254 21.7812 118.191C21.7812 152.418 49.4688 180.188 83.625 180.188C85.9141 180.188 88.1719 180.063 90.3945 179.82C91.3828 180.625 92.1289 181.215 93.2852 182.121C93.3008 182.133 93.3164 182.145 93.332 182.156C87.75 183.848 81.8281 184.758 75.6953 184.758ZM96.4453 181.121C96.4609 181.066 96.4766 181.012 96.4883 180.957C96.6602 180.156 96.8203 179.426 96.9688 178.742C101.285 177.789 105.434 176.383 109.363 174.578C105.363 177.246 101.031 179.453 96.4453 181.121Z" fill="#5DAAA4"/>
<path d="M75.6953 185.422C41.5391 185.422 13.8516 157.652 13.8516 123.426C13.8516 100.066 26.7461 79.7305 45.7891 69.1602C43.5859 70.8711 41.5039 72.7266 39.5508 74.7109C37.1133 76.5195 34.8164 78.5078 32.6758 80.6484C21.668 91.6875 14.8594 106.926 14.8594 123.77C14.8594 140.605 21.668 155.848 32.6758 166.891C43.6875 177.93 58.8945 184.758 75.6953 184.758C81.8281 184.758 87.75 183.848 93.332 182.156C93.6445 182.387 94.0078 182.516 94.3828 182.543C88.4883 184.414 82.2109 185.422 75.6953 185.422ZM95.8281 182.062C96.1172 181.816 96.332 181.488 96.4453 181.121C101.031 179.453 105.363 177.246 109.363 174.578C110.785 173.926 112.18 173.219 113.539 172.465C108.25 176.57 102.281 179.836 95.8281 182.062Z" fill="#160B0A"/>
<path d="M94.5195 181.539C94.3008 181.539 94.082 181.465 93.9023 181.324C92.3867 180.137 91.582 179.492 89.9844 178.191C89.7617 178.012 89.6289 177.742 89.6133 177.457C89.2148 169.227 89.0391 164.609 88.7852 155.492C84.1719 153.078 81.2344 149.984 80.0547 146.301C78.8125 142.418 79.8945 138.883 80.668 137.098C77.5937 135.359 74.2031 133.137 73.6797 131.543C73.1055 130.832 68.832 129.703 64.4648 129.109C64.2031 129.074 63.9687 128.937 63.8047 128.73C61.1055 125.246 59.4961 123.113 57.5039 120.438L57.543 125.016C57.5469 125.504 57.1992 125.922 56.7227 126.016C56.6562 126.027 56.5977 126.031 56.5352 126.031C56.125 126.031 55.7461 125.777 55.5937 125.379C53.5508 119.941 51.125 113.918 50.5508 113.121C50.0937 112.715 49.3945 111.734 52.0898 102.305C52.2148 101.863 52.6211 101.574 53.0547 101.574C53.1484 101.574 53.2383 101.586 53.332 101.617C53.3789 101.629 53.4766 101.652 53.5937 101.672C53.1172 99.6562 51.4258 94.0508 49.7461 88.7539C43.6836 91.8984 40.3945 93.6758 34.6758 96.7656C34.5234 96.8477 34.3594 96.8867 34.1992 96.8867C33.875 96.8867 33.5625 96.7305 33.3672 96.4453C33.0781 96.0195 33.1562 95.4414 33.5508 95.1094C35.8867 93.1328 37.1836 92.0156 39.4687 90.0352C39.2461 89.5859 39.0937 89.2266 38.8789 88.7266C38.6914 88.2891 38.832 87.7813 39.2187 87.5078C39.2187 87.5078 42.5547 85.1445 43.1133 84.7461C42.8633 84.3945 42.8633 83.918 43.1211 83.5664L43.3398 83.2617C43.8711 82.5312 44.207 82.0703 44.8086 81.2617C44.9414 81.0859 45.125 80.957 45.332 80.8945C46.1602 80.6484 46.6641 80.5156 47.3945 80.332C47.9531 79.2578 48.3125 78.5898 49 77.3555C49.0781 77.2109 49.1953 77.0898 49.332 77C50.0391 76.5469 50.4023 76.3125 51.0937 75.8711C52.1094 75.1055 55.7695 72.3594 55.7695 72.3594C55.9414 72.2266 56.1562 72.1562 56.3711 72.1562L56.4805 72.1641C58.5859 72.3945 59.7969 72.6289 62.3711 73.3086C62.6641 73.3867 62.9102 73.5938 63.0312 73.875C63.0312 73.875 63.3555 74.6016 63.4492 74.8086C65.3398 74.0859 66.5508 73.6563 68.7734 72.9102C68.875 72.875 68.9844 72.8555 69.0937 72.8555C69.2461 72.8555 69.4062 72.8906 69.5469 72.9648C71.125 73.7656 71.9687 74.2266 73.6484 75.1445L73.8867 75.2852C75.0547 75.9766 75.75 76.3906 77 77.1523C77.8398 77.2539 80.9453 77.5977 82.8633 77.5977C83.3125 77.5977 83.5898 77.5781 83.7617 77.5586C84.332 76.3359 85.8984 73.5 86.2422 72.8711C86.4219 72.5469 86.7617 72.3555 87.125 72.3555C87.1797 72.3555 87.2344 72.3594 87.293 72.3672C87.7148 72.4414 88.043 72.7695 88.1133 73.1953C88.4609 75.2578 88.6758 76.5195 89.0039 78.2812C89.1562 78.1836 90.168 77.5156 90.6211 77.2109C90.7891 77.1016 90.9844 77.043 91.1797 77.043C91.2734 77.043 91.3633 77.0547 91.4531 77.082C91.7383 77.1602 91.9727 77.3633 92.0937 77.6328L92.3516 78.1992C92.5312 78.5977 92.6836 78.9258 92.918 79.4258C93.1367 79.8945 92.9727 80.4492 92.5312 80.7188C87.8945 83.5625 85.4922 85.1016 81.0273 88.0039C80.9492 89.0703 80.9062 89.793 80.8477 90.8789C82.6016 92.0156 83.6641 92.7031 85.6523 94.0117C85.9297 94.1953 86.1016 94.5039 86.1055 94.8359C86.1289 96.0234 86.1484 96.8008 86.1758 97.7422C86.4375 97.6445 86.6992 97.5508 86.9883 97.4453L86.9609 96.8789C86.9258 96.2344 86.8984 95.6602 86.8633 94.8242C86.8477 94.4375 87.0508 94.0781 87.3906 93.8945C88.1445 93.4922 88.6602 93.2187 89.2344 92.918L89.6094 92.7227C89.1484 91.5625 88.7227 89.9141 89.457 88.9023C89.5234 88.8125 89.4727 88.3945 89.4492 88.1914C89.3906 87.6641 89.3086 86.9375 89.8047 86.3711C90.1289 86 90.6055 85.8086 91.2227 85.8008H91.2734C93.0156 85.8008 96.6602 87.2188 97.0742 87.3789C97.5 87.5469 97.7617 87.9844 97.7031 88.4414C97.582 89.4297 97.5039 90.0703 97.4023 90.8672C97.7109 90.8945 98.0039 90.9219 98.3477 90.9492C98.7813 90.375 99.0859 89.9688 99.582 89.3008C99.7734 89.043 100.07 88.8945 100.387 88.8945L100.496 88.8984C100.848 88.9375 101.156 89.1602 101.305 89.4844C102.215 91.4883 102.883 92.9414 103.586 94.4805C104.137 95.6836 104.711 96.9453 105.449 98.5586C105.473 98.6055 105.488 98.6562 105.504 98.7109L106.039 100.652C106.262 101.469 106.473 102.234 106.77 103.324C106.867 103.68 106.762 104.059 106.496 104.316C106.305 104.5 106.055 104.598 105.797 104.598C105.695 104.598 105.594 104.582 105.492 104.547C104.172 104.125 103.52 103.918 102.184 103.496C101.738 103.359 101.449 102.934 101.48 102.469C101.48 102.469 101.566 101.148 101.602 100.672C99.6758 100.527 98.3555 100.438 96.2812 100.316C96.25 100.402 96.2227 100.484 96.1914 100.566C96.3203 100.598 97.5117 100.902 97.5117 100.902C97.793 100.973 98.0273 101.164 98.1602 101.422C98.5664 102.219 99.6055 104.246 99.6055 104.246C99.7539 104.527 99.7539 104.863 99.6172 105.148C99.4766 105.434 99.2148 105.637 98.9023 105.695C96.2031 106.219 94.6953 106.516 91.9023 107.086C89.6094 108.676 87.543 110.59 87.4336 111.227C87.2031 112.773 87.1875 114.363 87.1875 114.379C87.1875 114.793 86.9297 115.168 86.5469 115.312C85.2461 115.82 84.3906 116.16 83.375 116.559L82.4258 116.934C82.4219 118.488 82.4258 119.48 82.4297 121.215C82.4297 121.512 82.2969 121.801 82.0703 121.988C81.8867 122.145 81.6602 122.227 81.4219 122.227C81.3633 122.227 81.3047 122.223 81.2461 122.211C81.0078 122.168 80.3086 122.035 80.0781 121.996C79.7266 121.934 79.4336 121.688 79.3086 121.352C78.8555 120.109 78.6172 119.449 78.1992 118.262C77.5664 117.684 76.8203 117.148 76.4531 117.004C75.8906 117.332 75.0625 117.41 74.0547 117.504C73.1523 117.586 71.7891 117.711 71.3945 118.066C70.625 118.742 67.8555 122.902 68.4453 124.965C68.5547 125.363 68.8516 125.91 70.1094 126.121C70.8242 126.242 71.4687 126.301 72.0234 126.301C73.3047 126.301 74.125 125.973 74.1641 125.445C74.1992 124.918 74.6367 124.512 75.1641 124.512H75.1914C75.7266 124.527 76.1602 124.961 76.168 125.5C76.1953 126.668 76.2109 127.371 76.2383 128.328C76.8477 128.387 77.3594 128.434 78.1406 128.52C78.668 128.574 79.0586 129.027 79.043 129.555C79.0117 130.418 78.9961 130.934 78.9805 131.668C80.3828 132.719 81.2734 133.375 82.6445 134.379C82.6445 134.379 86.0586 132.133 87.3828 131.258C87.5508 131.148 87.7461 131.09 87.9375 131.09C88.082 131.09 88.2266 131.121 88.3594 131.188C88.6758 131.332 88.8945 131.633 88.9375 131.98L89.043 132.832C89.4414 132.652 89.8398 132.469 90.3789 132.219C90.5117 132.16 90.6562 132.125 90.8008 132.125C90.9375 132.125 91.0742 132.156 91.207 132.211C95.0703 133.914 97.1797 134.801 100.676 136.273L101.879 136.781C101.992 136.832 102.094 136.898 102.188 136.98C103.594 138.332 104.324 139.031 105.645 140.289C110.637 141.855 112.996 142.547 117.461 143.754C117.777 143.84 118.031 144.074 118.145 144.383C118.258 144.691 118.215 145.035 118.027 145.305C116.926 146.891 116.258 147.836 115.328 149.16L114.707 150.043C114.262 152.359 114.02 153.594 113.531 155.918C113.473 156.207 113.285 156.457 113.027 156.598C112.879 156.68 112.711 156.719 112.547 156.719C112.426 156.719 112.301 156.695 112.184 156.652C112.008 156.586 111.445 156.41 110.973 156.41C110.711 156.41 110.598 156.465 110.582 156.48C110.582 156.48 110.566 156.5 110.555 156.555C110.199 158.246 102.805 166.641 100.68 166.641L100.641 166.637C100.168 166.828 98.9609 168.277 98.0312 169.773C96.9531 174.195 96.4336 176.437 95.5039 180.742C95.4336 181.082 95.1914 181.363 94.8633 181.48C94.7539 181.52 94.6367 181.539 94.5195 181.539Z" fill="#76CE95"/>
<path d="M56.3711 71.1484C55.9375 71.1484 55.5156 71.2891 55.1641 71.5508C54.3164 72.1875 53.6601 72.6836 53.0195 73.1641C52.2578 73.7344 51.5195 74.2852 50.5195 75.043C49.8476 75.4687 49.4844 75.7031 48.7891 76.1523C48.5117 76.332 48.2812 76.5781 48.1211 76.8672C47.5195 77.9453 47.168 78.5977 46.7109 79.4688C46.1797 79.6016 45.7187 79.7305 45.0508 79.9258C44.6328 80.0508 44.2617 80.3086 44.0039 80.6562C43.3984 81.4727 43.0625 81.9375 42.5273 82.6719L42.3086 82.9727C42.0117 83.3789 41.8867 83.8711 41.9297 84.3477C41.582 84.5977 41.2344 84.8438 40.875 85.0977C40.207 85.5703 39.4922 86.0781 38.6406 86.6836C37.8633 87.2344 37.582 88.25 37.957 89.125C38.0547 89.3633 38.1445 89.5703 38.2344 89.7695C36.2969 91.4492 35.0312 92.5352 32.9023 94.3359C32.1133 95.0039 31.957 96.1602 32.5351 97.0117C32.9219 97.582 33.5547 97.8945 34.1992 97.8945C34.5234 97.8945 34.8516 97.8164 35.1523 97.6523C40.5234 94.75 43.75 93.0078 49.1484 90.1992C50.4375 94.3008 51.6797 98.4063 52.3086 100.707C51.75 100.934 51.3008 101.406 51.1211 102.027C51.0937 102.125 50.4492 104.383 49.8945 106.77C48.875 111.156 48.8242 112.77 49.7578 113.754C50.4062 114.82 52.7305 120.609 54.6523 125.734C54.9531 126.531 55.7109 127.039 56.5351 127.039C56.6562 127.039 56.7812 127.027 56.9062 127.004C57.8633 126.824 58.5547 125.984 58.5469 125.008L58.5351 123.496C59.832 125.219 61.168 126.969 63.0117 129.344C63.3359 129.762 63.8086 130.035 64.3281 130.105C68.0078 130.609 71.8359 131.543 72.8398 132.168C73.1992 132.977 74.3945 134.613 79.4023 137.531C78.6172 139.664 77.9297 142.961 79.0976 146.609C80.3125 150.414 83.2383 153.602 87.8008 156.105C88.0391 164.844 88.2148 169.445 88.6094 177.508C88.6367 178.078 88.9062 178.609 89.3476 178.973C90.9531 180.277 91.7617 180.926 93.2851 182.121C93.6406 182.402 94.0781 182.547 94.5195 182.547C94.7539 182.547 94.9844 182.508 95.207 182.426C95.8594 182.191 96.3437 181.637 96.4883 180.957C97.4023 176.711 97.9219 174.48 98.9687 170.172C99.6484 169.105 100.504 168.016 100.957 167.641C101.691 167.578 103.051 167.078 106.941 162.988C109.262 160.551 110.723 158.695 111.297 157.453C111.516 157.492 111.73 157.559 111.832 157.598C112.062 157.68 112.301 157.727 112.539 157.727C112.875 157.727 113.211 157.641 113.512 157.473C114.023 157.191 114.395 156.699 114.516 156.125C114.988 153.867 115.23 152.633 115.652 150.445L116.152 149.738C117.082 148.414 117.75 147.469 118.852 145.879C119.227 145.34 119.312 144.652 119.09 144.039C118.863 143.422 118.355 142.953 117.723 142.781C113.34 141.598 110.992 140.91 106.168 139.398C104.953 138.238 104.227 137.543 102.879 136.254C102.703 136.086 102.496 135.949 102.27 135.852L101.062 135.344C97.5703 133.875 95.4648 132.988 91.6094 131.289C91.3516 131.176 91.0742 131.117 90.8008 131.117C90.5117 131.117 90.2266 131.18 89.957 131.305C89.9101 131.328 89.8633 131.348 89.8125 131.371C89.6289 130.891 89.2617 130.492 88.7812 130.27C88.5156 130.145 88.2266 130.082 87.9375 130.082C87.5508 130.082 87.168 130.195 86.832 130.418C85.5117 131.289 84.5976 131.891 83.6133 132.535L82.6758 133.152C81.7344 132.461 80.9844 131.906 80 131.172C80.0117 130.68 80.0234 130.23 80.0469 129.59C80.082 128.535 79.3008 127.629 78.25 127.516C77.8516 127.477 77.5234 127.441 77.2187 127.41C77.2031 126.816 77.1914 126.25 77.1758 125.477C77.1523 124.402 76.293 123.531 75.2187 123.504H75.1641C74.1953 123.504 73.3711 124.195 73.1914 125.133C73.0195 125.203 72.6523 125.293 72.0234 125.293C71.5234 125.293 70.9336 125.234 70.2695 125.129C69.7656 125.043 69.4726 124.898 69.4141 124.699C68.9883 123.289 71.1914 119.672 72.0273 118.852C72.3867 118.668 73.5273 118.563 74.1484 118.508C75.0195 118.426 75.7734 118.359 76.4101 118.129C76.6758 118.305 77.0195 118.566 77.3359 118.844C77.707 119.891 77.9453 120.547 78.3633 121.695C78.6094 122.371 79.1953 122.863 79.9023 122.988C80.1289 123.027 80.2969 123.062 80.4648 123.094C80.6445 123.125 80.8242 123.16 81.0703 123.203C81.1875 123.223 81.3086 123.234 81.4219 123.234C81.8906 123.234 82.3516 123.07 82.7187 122.762C83.1719 122.379 83.4375 121.812 83.4336 121.211C83.4297 119.746 83.4297 118.812 83.4336 117.621L83.75 117.496C84.7617 117.094 85.6133 116.758 86.9101 116.254C87.6797 115.957 88.1914 115.215 88.1953 114.387C88.1953 114.371 88.207 112.926 88.4101 111.492C88.75 110.863 90.5195 109.297 92.3047 108.031C94.9726 107.488 96.4062 107.207 99.0937 106.688C99.7148 106.566 100.242 106.16 100.52 105.59C100.797 105.02 100.793 104.352 100.5 103.785L100.055 102.914C99.8086 102.438 99.5976 102.027 99.3398 101.516C99.7266 101.543 100.121 101.57 100.531 101.602C100.52 101.746 100.512 101.902 100.5 102.062L100.477 102.402C100.414 103.332 100.996 104.184 101.883 104.461C103.215 104.879 103.871 105.086 105.184 105.508C105.387 105.574 105.594 105.605 105.797 105.605C106.309 105.605 106.809 105.41 107.191 105.043C107.723 104.531 107.934 103.77 107.738 103.059C107.441 101.969 107.23 101.203 107.008 100.387C106.848 99.8086 106.684 99.207 106.473 98.4453C106.445 98.3398 106.41 98.2383 106.363 98.1367C105.629 96.5234 105.051 95.2656 104.5 94.0625C103.793 92.5234 103.129 91.0703 102.219 89.0664C101.926 88.418 101.309 87.9727 100.602 87.8984C100.531 87.8906 100.461 87.8867 100.387 87.8867C99.7578 87.8867 99.1562 88.1836 98.7734 88.6992C98.7383 88.7461 98.7031 88.793 98.668 88.8438C98.6797 88.7539 98.6914 88.6602 98.7031 88.5625C98.8164 87.6523 98.2969 86.7773 97.4414 86.4414C96.7422 86.1641 93.1601 84.793 91.2734 84.793H91.207C90.0703 84.8086 89.4062 85.2969 89.0508 85.7031C88.2578 86.6094 88.3828 87.7148 88.4492 88.3047C88.4609 88.3828 88.4726 88.4844 88.4805 88.5664C87.8633 89.6484 88.0078 91.0273 88.3711 92.2344C87.9375 92.4609 87.4961 92.6953 86.918 93.0078C86.7422 93.1016 86.582 93.2187 86.4453 93.3555C86.3711 93.2891 86.2891 93.2266 86.2031 93.168C84.3867 91.9727 83.3203 91.2813 81.8867 90.3516C81.918 89.7266 81.9531 89.1992 81.9961 88.5742C86.1875 85.8516 88.5781 84.3242 93.0586 81.5781C93.9336 81.0391 94.2656 79.9297 93.8281 79C93.5937 78.5 93.4453 78.1758 93.2695 77.7812L93.0078 77.2109C92.7617 76.6758 92.2969 76.2734 91.7305 76.1133C91.5508 76.0625 91.3633 76.0352 91.1797 76.0352C90.7851 76.0352 90.3984 76.1484 90.0664 76.3711C89.9453 76.4531 89.8281 76.5313 89.7226 76.6016C89.5273 75.5039 89.3476 74.4609 89.1055 73.0234C88.9648 72.1797 88.3047 71.5195 87.4648 71.375C87.3476 71.3555 87.2344 71.3477 87.125 71.3477C86.3984 71.3477 85.7226 71.7344 85.3633 72.3828C84.7109 73.5625 83.7187 75.3789 83.1172 76.5898C83.0391 76.5898 82.957 76.5898 82.8633 76.5898C81.1328 76.5898 78.3867 76.2969 77.3359 76.1797C76.1914 75.4766 75.4883 75.0625 74.3945 74.418L74.2109 74.3086L74.1523 74.2695C72.4414 73.3359 71.5898 72.8711 70 72.0625C69.7148 71.9219 69.4062 71.8477 69.0937 71.8477C68.875 71.8477 68.6601 71.8828 68.4531 71.9531C66.6094 72.5703 65.4258 72.9883 63.9805 73.5273L63.9531 73.4648C63.7031 72.9062 63.2187 72.4883 62.625 72.332C59.9922 71.6406 58.7539 71.3984 56.5898 71.1602C56.5195 71.1523 56.4453 71.1484 56.3711 71.1484ZM56.3711 73.1641C58.4453 73.3906 59.5976 73.6211 62.1133 74.2812C62.4219 74.9805 62.582 75.3437 62.9297 76.0898C65.3711 75.1445 66.5976 74.6992 69.0937 73.8633C70.6601 74.6602 71.4687 75.1016 73.1875 76.043C74.5312 76.8359 75.2266 77.25 76.6641 78.1289C76.6641 78.1289 80.5547 78.6055 82.8633 78.6055C83.7851 78.6055 84.4531 78.5313 84.5273 78.3203C84.7851 77.5898 87.125 73.3633 87.125 73.3633C87.5586 75.9531 87.7851 77.2695 88.3008 79.9648C89.4492 79.1875 90.0312 78.8164 91.1797 78.0508C91.5078 78.7695 91.668 79.1328 92.0078 79.8594C87.3164 82.7344 84.8984 84.2852 80.0586 87.4297C79.9453 89.0156 79.8984 89.8008 79.8125 91.4102C81.875 92.7422 82.9336 93.4297 85.1016 94.8555C85.1328 96.5703 85.1601 97.4336 85.2109 99.1797C86.3359 98.7578 86.8984 98.5469 88.0312 98.1367C87.9648 96.7773 87.9219 96.1172 87.8672 94.7852C89.082 94.1328 89.6914 93.8203 90.9101 93.1719C90.9101 93.1719 89.5664 90.4687 90.2734 89.4961C90.9766 88.5234 89.6445 86.832 91.2344 86.8086H91.2734C92.875 86.8086 96.707 88.3164 96.707 88.3164C96.5351 89.6914 96.4492 90.3867 96.2656 91.7812C97.2891 91.8711 97.7969 91.918 98.8203 92C99.4531 91.1602 99.7734 90.7344 100.387 89.9023C102.012 93.4727 102.859 95.2969 104.535 98.9766C105.035 100.805 105.293 101.727 105.797 103.59C104.477 103.164 103.82 102.957 102.484 102.535C102.559 101.406 102.594 100.848 102.676 99.7422C99.8594 99.5273 98.4336 99.4258 95.5859 99.2695C95.3047 100.07 95.1562 100.465 94.875 101.27C95.8242 101.52 96.3047 101.633 97.2617 101.879C97.8359 103.004 98.1289 103.57 98.7109 104.707C95.8398 105.262 94.3789 105.551 91.5 106.137C91.5 106.137 86.6914 109.426 86.4414 111.074C86.1914 112.719 86.1836 114.375 86.1836 114.375C84.2734 115.117 83.3203 115.5 81.4219 116.246C81.418 118.227 81.418 119.238 81.4219 121.219C80.9492 121.137 80.7266 121.086 80.2539 121.004C79.7734 119.688 79.5351 119.027 79.0664 117.695C79.0664 117.695 77.2617 115.961 76.3516 115.961C76.2305 115.961 76.1211 115.992 76.0351 116.066C75.3359 116.684 71.8633 116.289 70.7226 117.316C69.582 118.32 64.2461 126.164 69.9453 127.117C70.7578 127.25 71.4453 127.309 72.0234 127.309C74.6992 127.309 75.1211 126.094 75.1641 125.52C75.1953 127.023 75.2109 127.758 75.2578 129.246C76.3594 129.355 76.918 129.402 78.0351 129.523C78 130.574 77.9844 131.113 77.9609 132.168C79.8164 133.555 80.7539 134.242 82.6133 135.605C84.7031 134.23 85.7734 133.531 87.9375 132.098C88.0469 132.984 88.1055 133.434 88.207 134.309C89.2305 133.855 89.75 133.621 90.8008 133.137C95.1055 135.031 97.3008 135.945 101.492 137.711C102.957 139.117 103.691 139.816 105.121 141.18C110.129 142.754 112.555 143.473 117.199 144.73C115.832 146.703 115.137 147.684 113.762 149.641C113.285 152.098 113.047 153.32 112.547 155.711C112.547 155.711 111.746 155.402 110.973 155.402C110.344 155.402 109.73 155.605 109.57 156.348C109.227 157.973 101.984 165.633 100.68 165.633L100.652 165.629H100.602C99.3711 165.629 97.0898 169.379 97.0898 169.379C95.957 174.043 95.4297 176.301 94.5195 180.531C93.0039 179.34 92.2148 178.715 90.6172 177.406C90.2148 169.09 90.0391 164.512 89.7773 154.867C77.5195 148.762 80.3555 139.738 81.9805 136.676C80.8242 136.043 75.0976 132.816 74.6289 131.211C74.1094 129.402 64.6016 128.109 64.6016 128.109C61.2187 123.742 59.5703 121.539 56.4726 117.359L56.5351 125.023C56.5351 125.023 52.0586 113.105 51.2539 112.398C50.4492 111.699 53.0586 102.582 53.0586 102.582C53.0586 102.582 53.5391 102.723 53.9961 102.723C54.3125 102.723 54.6133 102.656 54.7226 102.422C54.9844 101.871 50.3437 87.3125 50.3437 87.3125C43.668 90.7617 40.3984 92.5273 34.1992 95.8789C36.7656 93.707 38.0781 92.5742 40.7187 90.2852C40.2891 89.4531 40.1133 89.0508 39.8008 88.3281C42.3437 86.5234 43.6328 85.6211 46.2148 83.7695C46.4609 83.3555 46.5937 83.1406 46.8359 82.7344C45.6601 83.293 45.0781 83.5781 43.9336 84.1602C44.5976 83.2461 44.9375 82.7773 45.6172 81.8594C46.5703 81.582 47.0703 81.4492 48.0742 81.2031C48.7812 79.8438 49.1367 79.1758 49.8789 77.8477C50.5937 77.3867 50.957 77.1523 51.668 76.6992C53.5469 75.2812 54.4961 74.5781 56.3711 73.1641Z" fill="#180D0C"/>
<path d="M49.3555 78.7891C49.5117 78.5078 49.6797 78.1992 49.8789 77.8477C49.9492 77.8047 50.0117 77.7617 50.0742 77.7188C50.0977 77.7031 50.1211 77.6875 50.1445 77.6758C49.9805 77.9922 49.8047 78.3281 49.5938 78.7344C49.5117 78.7539 49.4336 78.7734 49.3555 78.7891Z" fill="#61A97B"/>
<path d="M50.0742 77.7188C50.0977 77.7031 50.1211 77.6875 50.1445 77.6758C50.1211 77.6875 50.0977 77.7031 50.0742 77.7188Z" fill="#160B0A"/>
<path d="M94.5195 180.531C93.0039 179.34 92.2148 178.715 90.6172 177.406C90.2148 169.09 90.0391 164.512 89.7773 154.867C82.4023 151.195 80.4922 146.465 80.4922 142.613C80.4922 140.063 81.332 137.895 81.9805 136.676C80.8242 136.043 75.0977 132.816 74.6289 131.211C74.1094 129.402 64.6016 128.109 64.6016 128.109C61.832 124.535 58.6641 120.309 56.4727 117.359L56.5352 113.035C59.6328 117.219 62.7383 121.27 66.1172 125.637C66.1172 125.637 66.7852 125.727 67.7695 125.895C68.1563 126.492 68.8438 126.934 69.9453 127.117C70.7578 127.25 71.4453 127.309 72.0234 127.309C72.5859 127.309 73.0469 127.254 73.4258 127.164C74.125 127.383 74.7422 127.625 75.2188 127.879C75.2227 128.07 75.2305 128.27 75.2344 128.48C75.2422 128.715 75.25 128.969 75.2578 129.246C75.7305 129.293 76.1016 129.328 76.457 129.363C76.4805 129.363 76.5 129.363 76.5195 129.367C76.8594 129.781 77.3828 130.246 77.9961 130.723C77.9961 130.816 77.9922 130.914 77.9883 131.008C77.9805 131.352 77.9727 131.711 77.9609 132.168C79.8164 133.555 80.7539 134.242 82.6133 135.605C82.6172 135.605 82.6211 135.602 82.625 135.598C82.7305 135.527 82.8242 135.469 82.9219 135.402C82.9336 135.395 82.9453 135.387 82.957 135.379C81.4414 139.16 80.3438 146.938 91.2969 152.395C91.5586 162.039 91.7305 166.617 92.1367 174.934C93.4141 175.98 94.1758 176.59 95.2031 177.402C94.9961 178.352 94.7734 179.359 94.5234 180.516C94.5234 180.516 94.5234 180.516 94.5234 180.52C94.5234 180.523 94.5234 180.527 94.5195 180.531Z" fill="#61A97B"/>
<path d="M94.5195 180.531C93.0039 179.34 92.2148 178.715 90.6172 177.406C90.2148 169.09 90.0391 164.512 89.7773 154.867C82.4023 151.195 80.4922 146.465 80.4922 142.613C80.4922 146.465 82.4023 151.195 89.7773 154.867C90.0391 164.512 90.2148 169.09 90.6172 177.406C92.2148 178.715 93.0039 179.34 94.5195 180.531C94.5234 180.527 94.5234 180.523 94.5234 180.52C94.5234 180.523 94.5234 180.527 94.5195 180.531ZM94.5234 180.516C94.7734 179.359 94.9961 178.352 95.2031 177.402C94.9961 178.352 94.7734 179.359 94.5234 180.516ZM81.9805 136.676C80.8242 136.043 75.0977 132.816 74.6289 131.211C74.1094 129.402 64.6016 128.109 64.6016 128.109C64.6016 128.109 74.1094 129.402 74.6289 131.211C75.0977 132.816 80.8242 136.043 81.9805 136.676ZM82.6133 135.605C82.6172 135.605 82.6211 135.602 82.625 135.598C82.6211 135.602 82.6172 135.605 82.6133 135.605ZM82.9219 135.402C82.9336 135.395 82.9453 135.387 82.957 135.379C82.9453 135.387 82.9336 135.395 82.9219 135.402ZM77.9883 131.008C77.9922 130.914 77.9961 130.816 77.9961 130.723C77.9961 130.816 77.9922 130.914 77.9883 131.008ZM76.5195 129.367C76.5 129.363 76.4805 129.363 76.457 129.363C76.4805 129.363 76.5 129.363 76.5195 129.367ZM75.2344 128.48C75.2305 128.27 75.2227 128.07 75.2188 127.879C75.2227 128.07 75.2305 128.27 75.2344 128.48ZM72.0234 127.309C71.4453 127.309 70.7578 127.25 69.9453 127.117C70.7539 127.25 71.4336 127.305 72.0078 127.305C72.5703 127.305 73.0313 127.254 73.4141 127.16C73.418 127.164 73.4219 127.164 73.4258 127.164C73.0469 127.254 72.5859 127.309 72.0234 127.309ZM69.9453 127.117C68.8438 126.934 68.1563 126.492 67.7695 125.895C67.7695 125.895 67.7695 125.895 67.7734 125.895C68.1602 126.492 68.8477 126.934 69.9453 127.117Z" fill="#160B0A"/>
<path d="M56.5352 125.023C56.5352 125.023 52.0586 113.105 51.2539 112.398C51.1445 112.309 51.1016 112.066 51.1016 111.715C51.0977 109.434 53.0586 102.582 53.0586 102.582C53.0586 102.582 53.4609 102.699 53.875 102.719C53.168 105.469 52.25 109.473 52.7734 109.93C53.2617 110.355 55.1094 114.926 56.4805 118.445L56.5352 125.023Z" fill="#61A97B"/>
<path d="M56.5352 125.023C56.5352 125.023 52.0586 113.105 51.2539 112.398C51.1445 112.309 51.1016 112.066 51.1016 111.715C51.1016 112.066 51.1445 112.309 51.2539 112.398C52.0586 113.105 56.5352 125.023 56.5352 125.023ZM56.5352 125.023L56.4805 118.445L56.5352 125.023ZM53.875 102.719C53.4609 102.699 53.0586 102.582 53.0586 102.582C53.0586 102.582 53.4609 102.699 53.875 102.719Z" fill="#160B0A"/>
<path d="M44.168 83.8398C44.2305 83.75 44.293 83.6641 44.3516 83.582C44.7734 83.0039 45.0937 82.5625 45.6172 81.8594C46.332 81.6523 46.793 81.5234 47.3984 81.3711C47.5078 81.3437 47.6211 81.3164 47.7422 81.2852L47.7344 81.2969C46.2891 82.332 45.2461 83.0703 44.168 83.8398Z" fill="#61A97B"/>
<path d="M44.3516 83.582C44.7734 83.0039 45.0937 82.5625 45.6172 81.8594C45.0937 82.5625 44.7734 83.0039 44.3516 83.582ZM47.3984 81.3711C47.5078 81.3437 47.6211 81.3164 47.7422 81.2852C47.6211 81.3164 47.5078 81.3437 47.3984 81.3711Z" fill="#160B0A"/>
<path d="M40.3164 89.4766C40.2188 89.2734 40.1328 89.082 40.043 88.8828C39.9687 88.7109 39.8906 88.5312 39.8008 88.3281C40.4531 87.8672 41.0234 87.4609 41.5508 87.0859C41.6328 87.0273 41.7148 86.9727 41.793 86.918C41.9141 87.1758 42.0547 87.4531 42.2383 87.8125C41.5156 88.4414 40.8906 88.9805 40.3164 89.4766Z" fill="#61A97B"/>
<path d="M40.043 88.8828C39.9687 88.7109 39.8906 88.5312 39.8008 88.3281C39.8906 88.5312 39.9687 88.7109 40.043 88.8828ZM39.8008 88.3281C40.4531 87.8672 41.0234 87.4609 41.5508 87.0859C41.0234 87.4609 40.4531 87.8672 39.8008 88.3281Z" fill="#160B0A"/>
<path d="M56.0391 102.418C55.5859 102.418 55.1016 102.277 55.1016 102.277C55.1016 102.277 54.6133 100.695 54.4414 100.695C54.4219 100.695 54.4102 100.715 54.3984 100.75C54.3906 100.715 54.3789 100.68 54.3711 100.645C53.9336 98.957 53.9727 98.6914 50.3438 87.3125C43.668 90.7617 40.3984 92.5273 34.1992 95.8789C36.3125 94.0898 37.5781 93.0078 39.4297 91.4023C43.5078 89.207 46.6484 87.5352 51.8633 84.8398C51.8633 84.8398 57.0312 101.566 56.7656 102.117C56.6562 102.348 56.3594 102.418 56.0391 102.418Z" fill="#61A97B"/>
<path d="M54.3984 100.75C54.3867 100.715 54.3789 100.68 54.3711 100.645C54.3789 100.68 54.3906 100.715 54.3984 100.75ZM34.1992 95.8789C40.3984 92.5273 43.668 90.7617 50.3438 87.3125C43.668 90.7617 40.3984 92.5273 34.1992 95.8789Z" fill="#160B0A"/>
<path d="M126.75 104.059C126.344 104.059 125.965 103.816 125.812 103.418C118 83.3281 98.5117 69.0859 75.6953 69.0898C75.1406 69.0898 74.6914 68.6406 74.6914 68.082C74.6914 67.5234 75.1406 67.0742 75.6953 67.0742C99.3633 67.0742 119.586 81.8438 127.684 102.688C127.887 103.203 127.629 103.789 127.113 103.988C126.992 104.035 126.871 104.059 126.75 104.059Z" fill="#B8E7E0"/>
<path d="M75.8359 82.293C75.5742 82.293 75.3242 82.1953 75.1367 82.0078L71.7344 78.6836H66.3281C65.7734 78.6836 65.3242 78.2305 65.3242 77.6758C65.3242 77.1172 65.7734 76.668 66.3281 76.668H72.1445C72.4023 76.668 72.6602 76.7695 72.8438 76.9531L76.2148 80.2461L85.2812 79.5352C85.3047 79.5352 85.332 79.5352 85.3594 79.5352C85.8789 79.5352 86.3203 79.9336 86.3594 80.4648C86.4023 81.0195 85.9922 81.5039 85.4375 81.5469L75.918 82.293C75.8906 82.293 75.8633 82.293 75.8359 82.293Z" fill="#BBE6C4"/>
<path d="M113.539 147.793C113.418 147.793 113.297 147.77 113.176 147.723L103.145 143.82C102.973 143.754 102.824 143.641 102.707 143.492L100.598 140.723L91.8789 137.469C91.3594 137.273 91.0938 136.691 91.2891 136.172C91.4375 135.766 91.8203 135.516 92.2305 135.516C92.3477 135.516 92.4648 135.535 92.582 135.578L101.574 138.934C101.75 139 101.906 139.113 102.023 139.27L104.137 142.043L113.902 145.844C114.422 146.043 114.68 146.629 114.477 147.148C114.324 147.547 113.941 147.793 113.539 147.793Z" fill="#BBE6C4"/>
<path d="M54.4922 168.445C53.957 168.445 51.6484 168.723 51.0586 168.906C49.4297 165.711 46.125 163.523 42.2969 163.523C40.293 163.523 38.4297 164.121 36.875 165.156C34.6836 162.797 31.5625 161.328 28.0938 161.328C21.4531 161.328 16.0703 166.719 16.0703 173.375C16.0703 180.035 21.4531 185.422 28.0938 185.422C28.0938 185.422 54.3906 185.422 54.4922 185.422C59.1797 185.422 62.9688 181.625 62.9688 176.934C62.9688 172.246 59.1797 168.445 54.4922 168.445Z" fill="white"/>
<path d="M54.4922 168.445V167.438C54.2812 167.438 54.0391 167.457 53.7188 167.488C53.2461 167.531 52.6602 167.605 52.1172 167.684C51.8477 167.723 51.5937 167.762 51.3672 167.805C51.1328 167.848 50.9453 167.887 50.7578 167.945L51.0586 168.906L51.9531 168.449C50.1641 164.93 46.5156 162.516 42.2969 162.516C40.0938 162.516 38.0313 163.176 36.3203 164.316L36.875 165.156L37.6133 164.469C35.2422 161.918 31.8477 160.32 28.0938 160.32C20.9023 160.32 15.0625 166.16 15.0625 173.375C15.0625 180.59 20.9023 186.43 28.0938 186.43C28.0938 186.43 28.5039 186.43 29.2227 186.43C34.2578 186.43 54.4023 186.43 54.4922 186.43C59.7305 186.43 63.9727 182.184 63.9727 176.934C63.9727 171.687 59.7305 167.438 54.4922 167.438V169.453C56.5625 169.453 58.4219 170.289 59.7773 171.645C61.1289 173 61.9609 174.863 61.9609 176.934C61.9609 179.004 61.1289 180.871 59.7773 182.227C58.4219 183.582 56.5625 184.414 54.4922 184.414C54.4414 184.414 47.8398 184.414 41.2539 184.414C37.9609 184.414 34.668 184.414 32.2031 184.414C30.9688 184.414 29.9414 184.414 29.2227 184.414C28.5039 184.414 28.0938 184.414 28.0938 184.414C25.0469 184.414 22.3008 183.184 20.3008 181.184C18.3047 179.184 17.0742 176.43 17.0742 173.375C17.0742 170.324 18.3047 167.57 20.3008 165.566C22.3008 163.566 25.0469 162.336 28.0938 162.336C31.2734 162.336 34.1289 163.684 36.1406 165.844C36.4727 166.203 37.0234 166.27 37.4297 165.996C38.8281 165.066 40.4922 164.531 42.2969 164.531C45.7344 164.531 48.6992 166.496 50.1602 169.367C50.3867 169.805 50.8867 170.016 51.3594 169.867C51.3789 169.863 51.457 169.844 51.5586 169.82C51.9258 169.742 52.582 169.645 53.1836 169.574C53.4883 169.539 53.7773 169.508 54.0156 169.484C54.2461 169.465 54.4453 169.453 54.4922 169.453V168.445Z" fill="#180D0C"/>
<path d="M141.191 115.613C140.648 115.613 138.34 115.891 137.75 116.074C136.121 112.879 132.82 110.684 128.992 110.684C126.984 110.684 125.121 111.293 123.566 112.324C121.379 109.973 118.254 108.5 114.785 108.5C108.141 108.5 102.758 113.891 102.758 120.547C102.758 127.199 108.141 132.594 114.785 132.594C114.785 132.594 141.078 132.594 141.191 132.594C145.871 132.594 149.66 128.793 149.66 124.109C149.66 119.414 145.871 115.613 141.191 115.613Z" fill="white"/>
<path d="M141.191 115.613V114.605C140.98 114.605 140.73 114.625 140.414 114.656C139.941 114.703 139.352 114.77 138.812 114.848C138.543 114.887 138.285 114.93 138.059 114.973C137.828 115.016 137.637 115.055 137.449 115.109L137.75 116.074L138.645 115.613C136.855 112.098 133.211 109.676 128.992 109.676C126.781 109.676 124.723 110.352 123.016 111.484L123.566 112.324L124.301 111.633C121.93 109.09 118.539 107.492 114.785 107.492C107.586 107.492 101.754 113.332 101.754 120.547C101.754 127.758 107.586 133.602 114.785 133.602C114.785 133.602 141.078 133.602 141.191 133.602C146.426 133.602 150.664 129.348 150.668 124.109C150.668 118.855 146.426 114.605 141.191 114.605V116.621C143.258 116.621 145.113 117.457 146.469 118.812C147.82 120.168 148.652 122.035 148.656 124.109C148.652 126.176 147.82 128.039 146.469 129.395C145.113 130.754 143.258 131.586 141.191 131.586C141.078 131.586 114.785 131.586 114.785 131.586C111.738 131.586 108.988 130.352 106.992 128.355C104.996 126.352 103.766 123.602 103.766 120.547C103.766 117.492 104.996 114.742 106.992 112.742C108.988 110.742 111.738 109.512 114.785 109.508C117.965 109.512 120.824 110.855 122.832 113.012C123.168 113.371 123.711 113.438 124.121 113.164C125.523 112.238 127.191 111.691 128.992 111.691C132.426 111.691 135.391 113.66 136.852 116.531C137.078 116.973 137.578 117.184 138.051 117.035C138.07 117.027 138.148 117.008 138.25 116.988C138.613 116.91 139.273 116.812 139.879 116.742C140.18 116.707 140.473 116.676 140.707 116.652C140.941 116.633 141.141 116.621 141.191 116.621V115.613Z" fill="#180D0C"/>
<path d="M10.8086 84.2422C10.8086 84.2422 30.6328 84.2422 30.7148 84.2422C34.2461 84.2422 37.1016 81.375 37.1016 77.8438C37.1016 74.3086 34.2461 71.4336 30.7148 71.4336C30.3125 71.4336 28.5742 71.6523 28.125 71.7891C26.8984 69.3828 24.4102 67.7266 21.5234 67.7266C20.0078 67.7266 18.6055 68.1875 17.4297 68.9648C15.7812 67.1953 13.4258 66.0742 10.8086 66.0742C5.80859 66.0742 1.74609 70.1445 1.74609 75.1562C1.74609 80.1758 5.80859 84.2422 10.8086 84.2422Z" fill="white"/>
<path d="M10.8086 84.2422V85.25C10.8086 85.25 30.6328 85.25 30.7148 85.25C34.8008 85.25 38.1094 81.9375 38.1094 77.8438C38.1094 73.75 34.8008 70.4297 30.7148 70.4258C30.5352 70.4297 30.3477 70.4453 30.1055 70.4688C29.7461 70.5039 29.2969 70.5586 28.8867 70.6211C28.6836 70.6484 28.4883 70.6797 28.3125 70.7148C28.1367 70.7461 27.9883 70.7773 27.832 70.8242L28.125 71.7891L29.0195 71.3281C27.6289 68.6016 24.8008 66.7188 21.5234 66.7188C19.8047 66.7188 18.207 67.2422 16.875 68.1211L17.4297 68.9648L18.1641 68.2773C16.3359 66.3125 13.7148 65.0664 10.8086 65.0664C5.25 65.0664 0.742188 69.5859 0.742188 75.1562C0.742188 80.7305 5.25 85.25 10.8086 85.25V83.2344C8.58203 83.2344 6.57422 82.332 5.11328 80.8672C3.65234 79.4023 2.75391 77.3906 2.75391 75.1562C2.75391 72.9258 3.65234 70.9141 5.11328 69.4492C6.57422 67.9844 8.58203 67.082 10.8086 67.082C13.1367 67.082 15.2227 68.0742 16.6953 69.6523C17.0313 70.0117 17.5742 70.0781 17.9844 69.8047C19.0078 69.1328 20.2148 68.7344 21.5234 68.7344C24.0156 68.7344 26.1641 70.1641 27.2266 72.2461C27.4492 72.6797 27.9492 72.8945 28.418 72.75C28.4219 72.75 28.4805 72.7344 28.5508 72.7188C28.8164 72.6641 29.3125 72.5898 29.7617 72.5352C29.9883 72.5078 30.2031 72.4844 30.3789 72.4648C30.5508 72.4492 30.6953 72.4414 30.7148 72.4414C32.2031 72.4453 33.543 73.0469 34.5234 74.0234C35.4961 75.0039 36.0977 76.3516 36.0977 77.8438C36.0977 79.3359 35.4961 80.6758 34.5234 81.6562C33.5469 82.6328 32.207 83.2344 30.7148 83.2344C30.6719 83.2344 25.6992 83.2344 20.7305 83.2344C18.2461 83.2344 15.7656 83.2344 13.9062 83.2344C12.0469 83.2344 10.8125 83.2344 10.8086 83.2344V84.2422Z" fill="#180D0C"/>
</svg>
