<svg width="145" height="104" viewBox="0 0 145 104" fill="none" xmlns="http://www.w3.org/2000/svg">
<path d="M138.95 71.0898C140.25 73.1367 141.25 75.4609 141.2 78.0938C141.149 80.7266 139.852 83.75 137.481 85.6836C135.571 87.2422 132.985 87.8164 131.497 87.0391C132.063 88.2148 131.329 90.2578 129.805 91.6562C127.891 93.4219 125.278 94.2969 123 94.5742C122.856 94.7422 122.7 94.9063 122.547 95.0586C121.219 96.3203 119.458 97.2227 117.747 97.9727C115.075 99.1445 112.235 100.09 109.774 100.09C108.153 100.09 106.747 99.5938 106 98.6797C104.469 99.207 102.922 99.4648 101.637 99.2773C99.3677 98.9531 97.9067 97.6445 97.1333 95.8672C96.5513 96.25 95.9614 96.582 95.3638 96.8633C92.4145 98.2422 89.3364 98.6445 86.5278 98.5781C85.7114 98.543 84.8911 98.4688 84.1294 98.2734C83.4692 98.7539 82.7192 99.1758 81.9927 99.4922C77.0903 101.637 70.2856 100.18 69.77 95.5195C70.1567 97.8555 67.0981 100 64.6567 99.1133C64.3559 99 64.0864 98.8477 63.8364 98.6758C62.9106 100.414 61.1645 101.859 59.1333 102.609C54.1763 104.199 47.5122 103.051 42.1333 99.7266C41.0903 99.0625 40.0669 98.2539 39.4731 97.3438C38.1841 98.707 35.9263 99.3398 33.3481 98.8477C29.5356 98.1016 25.3364 94.9492 23.7153 91.5977C19.813 91.5313 15.1528 90.25 11.5317 87.2383C8.48094 84.6992 6.66844 80.6836 7.52 78.1172C6.73485 78.4883 5.50829 78.3633 4.49266 77.7148C4.02782 77.4141 3.63328 77.0664 3.26219 76.6758C2.3325 75.6484 1.68797 74.3477 1.23094 73.082C0.785629 71.8555 0.531723 70.5117 0.516098 69.2461C0.504379 68.1836 0.645004 67.1563 0.984848 66.293C0.77391 65.9141 0.58641 65.5195 0.426254 65.1211C-0.249527 63.2617 -0.171402 61.0508 1.02 59.8242C1.2661 59.5703 1.57469 59.3867 1.90282 59.2656C1.93407 58.7891 2.0161 58.332 2.17625 57.8984C2.41844 57.2578 2.78953 56.6953 3.23485 56.2344C3.27782 55.2734 3.57079 54.3633 4.2036 53.6992C4.52782 53.3789 4.91063 53.1563 5.31297 53.0117C5.1411 51.8398 5.59422 50.4609 6.64891 50.0781C6.84813 50.0117 7.03954 49.9922 7.24657 49.9766C7.07469 48.7344 7.05907 47.4453 7.15282 46.2266C7.35594 43.6016 7.895 40.707 9.87157 38.9219C11.5239 37.4258 14.3755 37.5195 15.3716 39.1133C14.2153 34.5234 17.3286 28.625 22.1489 26.7773C26.8481 24.9258 32.1997 27.2773 33.6177 31.6875C33.6411 28.4922 36.7661 24.9688 40.1802 24.2383C44.2505 23.3711 48.0708 25.6094 50.1489 28.8633C52.1372 24.8203 56.2114 21.8398 60.2622 21.332C64.3052 20.8242 68.3638 22.7969 70.5044 26.3359C71.227 22.1328 74.2388 18.668 77.9145 17.7188C81.5942 16.8086 85.9809 18.3516 88.7973 21.5781C90.5434 19.1211 93.145 17.1758 96.3911 17.1758C99.6841 17.2344 103.645 19.793 104.36 23.0078C106.012 22.6055 107.758 22.2266 109.551 22.1289C111.442 22.0508 113.387 22.2695 115.411 23.0898C119.36 24.6953 123.145 29.6719 121.481 32.3672C122.758 30.1523 126.258 29.9219 129.309 31.7617C129.325 31.7617 129.36 31.7813 129.379 31.8008C132.399 33.7188 134.528 37.5391 134.157 40.3945C138.891 42.4023 142.797 48.1406 142.891 53.4688C142.907 54.5273 142.727 55.6367 142.106 56.2773C142.071 56.3125 142.032 56.3477 141.993 56.3789C143.782 57.6328 144.961 60.4492 144.731 63.0977C144.27 66.6133 141.77 69.6016 138.95 71.0898Z" fill="#ECF3E6"/>
<path d="M138.95 71.0898C140.25 73.1367 141.25 75.4609 141.2 78.0938C141.149 80.7266 139.852 83.75 137.481 85.6836C135.571 87.2422 132.985 87.8164 131.497 87.0391C132.063 88.2148 131.329 90.2578 129.805 91.6562C127.891 93.4219 125.278 94.2969 123 94.5742C122.856 94.7422 122.7 94.9063 122.547 95.0586C121.219 96.3203 119.458 97.2227 117.747 97.9727C115.075 99.1445 112.235 100.09 109.774 100.09C108.153 100.09 106.747 99.5938 106 98.6797C104.469 99.207 102.922 99.4648 101.637 99.2773C99.3677 98.9531 97.9067 97.6445 97.1333 95.8672C96.5513 96.25 95.9614 96.582 95.3638 96.8633C92.4146 98.2422 89.3364 98.6445 86.5278 98.5781C85.7114 98.543 84.8911 98.4688 84.1294 98.2734C83.4692 98.7539 82.7192 99.1758 81.9927 99.4922C77.0903 101.637 70.2856 100.18 69.77 95.5195C70.1567 97.8555 67.0981 100 64.6567 99.1133C64.356 99 64.0864 98.8477 63.8364 98.6758C62.9106 100.414 61.1646 101.859 59.1333 102.609C54.1763 104.199 47.5122 103.051 42.1333 99.7266C41.0903 99.0625 40.0669 98.2539 39.4731 97.3438C38.1841 98.707 35.9263 99.3398 33.3481 98.8477C29.5356 98.1016 25.3364 94.9492 23.7153 91.5977C20.1919 91.5391 16.0474 90.4805 12.5825 88.0508C12.1997 87.7891 11.8481 87.5078 11.4966 87.2188C8.48096 84.6992 6.66846 80.6836 7.52002 78.1172C6.73486 78.4883 5.5083 78.3633 4.49268 77.7148C4.02783 77.4141 3.6333 77.0664 3.26221 76.6758C5.54736 77.7188 7.96924 77.7695 9.02002 76.0742C9.36377 78.168 11.3755 80.4414 13.5435 81.207C15.1841 81.7969 16.7388 81.4688 17.5747 80.4688C17.4771 82.2109 19.3364 84.8203 21.52 85.6055C23.7817 86.418 25.6802 85.4609 26.3521 83.7266C26.5005 86.2891 29.8052 89.6523 32.895 90.168C36.5396 90.7695 38.9653 88.0547 38.7583 84.6211C38.7153 83.9297 38.4927 83.0508 37.8716 82.5391C38.4653 81.6211 38.4653 80.1953 37.7427 78.9609C37.3442 78.2422 36.731 77.6328 36.02 77.1992C36.4536 74.8438 35.2349 71.8164 33.0474 70.1055C33.1177 66.4219 35.5356 63.1875 38.8208 61.9023C39.1528 63.543 40.7153 65.207 42.1841 64.7148C40.8442 65.4297 41.3364 68.2578 42.9224 68.9219C44.4419 69.5586 46.0044 68.5664 46.7739 67.0859C45.9536 69.0664 45.563 71.2461 45.6646 73.418C45.7192 74.6484 46.0396 76.0508 47.0591 76.8008C47.2153 76.9336 47.4028 77 47.5786 77.0312C46.7349 78.2969 46.5903 80.1133 47.4263 81.6562C48.6333 83.9102 51.6646 85.2148 53.7622 84.3867C51.2935 85.4414 53.6177 89.8008 56.4575 90.1406C59.2974 90.4844 61.4458 88.3633 62.9614 86.082C63.0825 85.9258 63.1685 85.7266 63.2388 85.5156C63.5513 85.7539 63.9067 85.8867 64.27 85.9023C65.5864 85.9141 66.6958 84.793 67.2817 83.5078C69.1646 79.3867 66.0981 73.6367 61.8872 73.1562C63.0864 72.7656 63.6528 70.1406 62.5669 68.9648C61.6099 67.9023 60.2153 67.7734 58.8247 67.918C59.2935 67.5352 59.6138 66.875 59.5239 66.1992C59.3208 64.918 57.6919 64.4023 56.9302 65.3633C56.4614 62.7656 58.8091 60.0742 60.9692 60.4414C60.1528 60.4922 59.4028 61.7305 59.7935 62.6328C62.4497 63.5117 65.5317 61.9297 67.188 59.0898C67.2974 60.4766 68.3677 61.9844 69.6333 61.7578C70.2935 61.6289 70.8794 61.2812 71.395 60.8125C70.7505 62.2305 70.3833 63.7578 70.5396 65.2773C70.8325 68.3906 74.5981 70.207 76.2114 67.4961C74.7388 69.8711 75.0435 73.3242 76.856 74.7656C78.6372 76.1875 81.6294 75.4023 83.1685 73.125C82.7153 76.6172 85.6724 79.3125 88.7856 78.2188C91.8911 77.125 94.2075 72.543 93.0083 69.5781C94.4224 71.4688 97.7231 70.9688 99.4927 68.6055C101.223 66.1914 100.821 62.4648 98.7388 61.293C101.055 60.9219 103.043 57.9258 102.668 55.2031C102.325 52.6992 100.141 50.9102 98.1177 51.1797C99.6958 50.5469 100.618 48.0898 99.7544 46.2344C99.2271 45.0938 98.1763 44.4141 97.1255 44.3086C98.2114 42.9531 98.4263 40.4961 97.3169 38.9141C98.8989 40.2734 101.336 39.7695 102.118 38.1562C102.247 39.3594 102.973 40.6484 104.016 41.2539C104.883 41.7539 105.864 41.6992 106.583 41.2422C106.184 42.7188 106.583 44.6719 107.723 45.918C108.903 47.207 110.676 47.4297 111.918 46.7109C111.497 48.0938 111.958 50.1875 113.192 51.1055C114.989 52.4766 117.383 51.5469 118.653 49.7656C118.032 50.4336 118.004 51.7656 118.567 52.6172C120.317 54.4297 123.442 52.7812 123.325 50.125C123.719 51.6094 125.11 52.6875 126.301 52.4375C127.489 52.1914 128.266 50.6875 127.95 49.2188C130.188 49.9727 132.481 48.8281 133.239 46.6133C133.95 44.4883 133.043 41.4453 131.098 39.5C132.309 38.0977 131.758 35.3672 130.36 33.1719C130.043 32.6797 129.7 32.207 129.305 31.7617C129.325 31.7617 129.36 31.7813 129.379 31.8008C132.399 33.7188 134.528 37.5391 134.157 40.3945C138.446 42.2148 142.098 47.0781 142.809 51.9062C142.883 52.418 142.922 52.9453 142.915 53.4648C142.907 54.5273 142.727 55.6367 142.106 56.2773C142.071 56.3125 142.032 56.3477 141.993 56.3789C143.782 57.6328 144.961 60.4492 144.731 63.0977C144.27 66.6133 141.77 69.6016 138.95 71.0898Z" fill="#DDE6D6"/>
<path d="M138.95 71.0898C140.25 73.1367 141.25 75.4609 141.2 78.0938C141.149 80.7266 139.852 83.75 137.481 85.6836C135.571 87.2422 132.985 87.8164 131.497 87.0391C132.063 88.2148 131.329 90.2578 129.805 91.6562C127.891 93.4219 125.278 94.2969 123 94.5742C122.856 94.7422 122.7 94.9063 122.547 95.0586C121.219 96.3203 119.458 97.2227 117.747 97.9727C115.075 99.1445 112.235 100.09 109.774 100.09C108.153 100.09 106.747 99.5938 106 98.6797C104.469 99.207 102.922 99.4648 101.637 99.2773C99.3677 98.9531 97.9067 97.6445 97.1333 95.8672C96.5513 96.25 95.9614 96.582 95.3638 96.8633C92.4146 98.2422 89.3364 98.6445 86.5278 98.5781C85.7114 98.543 84.8911 98.4688 84.1294 98.2734C83.4692 98.7539 82.7192 99.1758 81.9927 99.4922C77.0903 101.637 70.2856 100.18 69.77 95.5195C70.1567 97.8555 67.0981 100 64.6567 99.1133C64.356 99 64.0864 98.8477 63.8364 98.6758C62.9106 100.414 61.1646 101.859 59.1333 102.609C54.1763 104.199 47.5122 103.051 42.1333 99.7266C41.0903 99.0625 40.0669 98.2539 39.4731 97.3438C38.1841 98.707 35.9263 99.3398 33.3481 98.8477C29.5356 98.1016 25.3364 94.9492 23.7153 91.5977C20.1919 91.5391 16.0474 90.4844 12.5825 88.0508C14.5317 88.625 16.3052 88.5703 18.1841 88.7227C21.4106 88.9844 24.9653 89.9023 28.52 91.3477C28.6646 92.6367 29.9575 94.1758 31.4771 94.8906C33.0239 95.6016 34.6685 95.4297 35.2739 94.5078C37.5669 97.1016 42.5161 97.3242 42.8755 94.8125C43.7036 96.6367 46.0317 98.2617 48.1802 98.5117C50.2622 98.7227 52.02 97.6211 52.2505 95.9648C52.1294 96.9219 53.4653 98.0039 54.6919 98.168C55.9771 98.3398 57.0981 97.8164 58.0317 97.207C59.9302 95.9688 61.5396 94.3125 62.8208 92.3555C62.5122 93.1797 63.2778 94.3359 64.313 94.5742C65.5317 94.8438 66.7388 94.2539 67.7583 93.5938C69.7466 92.2344 71.5083 90.4883 73.02 88.4805C72.2856 90.2227 73.8169 92.5703 75.8677 92.582C77.4146 92.5938 78.8833 91.7813 80.1528 90.6367C79.5708 92.2266 79.9185 94.082 81.2271 94.8594C83.2778 96.082 86.5591 95.1328 88.938 93.2656C90.5864 91.9727 91.9263 90.2695 93.1685 88.4688C93.0825 89.6055 93.6372 90.6953 94.7661 90.8906C96.8286 91.2422 99.4497 89.7734 101.629 88.168C104.708 85.8477 107.778 82.082 108.227 79.0078C109.293 80.5391 111.465 81.1445 113.723 80.1562C117.149 78.6562 119.688 73.9727 118.606 71.0547C119.805 72.8984 122.696 72.9141 124.809 71.1133C126.344 69.8047 127.239 67.6797 127.223 65.7812C128.262 67.375 130.895 67.5469 132.625 65.9805C134.59 64.1992 135.415 61.3594 135.801 58.5469C136.043 59.832 137.282 60.9023 138.379 60.5742C139.825 60.1367 140.723 58.3164 141.211 56.5742C141.68 54.9063 141.946 53.0781 142.825 51.9023C142.883 52.418 142.922 52.9453 142.915 53.4648C142.907 54.5273 142.727 55.6367 142.106 56.2773C142.071 56.3125 142.032 56.3477 141.993 56.3789C143.782 57.6328 144.961 60.4492 144.731 63.0977C144.27 66.6133 141.77 69.6016 138.95 71.0898Z" fill="#C3CCBB"/>
<path d="M116.567 34.168C115.731 35.0586 114.422 35.7109 112.965 35.1445C111.688 34.6484 110.657 32.8711 111.071 31.9609C109.989 33.2109 108.274 34.0781 106.34 33.3242C105.04 32.8125 104.036 31.293 103.856 30.0703C103.149 31.207 102.106 32.1055 100.797 32.5742C99.7505 32.9727 98.4341 33.0742 97.3247 32.293C97.1294 32.1445 96.9575 31.9609 96.813 31.7578C96.4302 32.5195 95.7153 33.043 94.8442 33.0312C94.0044 33.0156 93.1763 32.5117 92.5395 31.793C92.5044 32.668 92.1489 33.4844 91.4848 33.918C90.7114 33.4961 90.1255 32.7188 89.8286 31.8594C89.352 33.5625 87.3052 34.6758 85.7192 33.4766C86.8872 34.7422 88.0161 36.5508 87.6684 38.2656C87.4966 39.0547 86.8247 39.5117 86.1333 39.6016C86.5044 40.1836 86.7348 40.8984 86.6723 41.625C86.5395 43.2109 85.1059 44.3438 83.7934 43.9258C85.0669 44.3281 86.4223 44.7617 87.4848 45.8047C88.563 46.8555 89.2583 48.6875 88.7309 50.2266C88.4263 51.0703 87.6997 51.5781 86.9888 51.6797C88.8559 53.1992 89.7856 56.4219 88.7036 59.082C88.2231 60.2695 87.1919 61.3945 86.1723 61.1953C85.5864 61.0703 85.2934 60.3359 85.2973 59.6602C84.1294 61.1836 82.1177 61.7813 80.7973 60.7461C79.1489 59.4453 79.0083 56.0391 80.4809 54.1992C79.0044 56.3242 76.0591 56.3398 74.8677 54.2305C74.5161 53.6289 74.3559 52.9102 74.3169 52.1602C72.9223 53.5352 71.0981 54.1797 69.5747 53.3242C67.9614 52.4141 67.3325 50.0313 67.5747 47.8789C67.3247 48.1211 67.0669 48.3398 66.7778 48.5C65.2934 49.3203 63.3755 48.7813 62.7388 47.1016C62.7231 47.0781 62.727 47.043 62.7075 47.0195C62.4966 47.3086 62.27 47.6055 62.0239 47.8555C60.7427 49.1563 58.8794 49.8164 57.4809 48.9492C56.8716 48.5625 56.4809 47.8516 56.313 47.0625C55.102 49.3555 52.5669 50.8789 50.4067 50.1016C51.438 50.4727 52.5591 50.9609 53.0473 52.0625C53.5122 53.1953 52.727 55.0039 51.645 54.75C54.27 56.207 53.895 61.6914 51.0708 62.75C52.6567 62.9883 53.5083 65.6016 52.4614 66.9258C51.0747 68.6836 48.1411 67 47.5981 64.6914C47.0473 62.3711 48.02 60.0195 48.9927 57.8711C47.4341 58.3008 45.6919 57.2773 45.1372 55.6055C44.8989 54.9141 44.9067 54.125 45.0786 53.4023C44.0473 54.3008 42.727 54.7344 41.5552 54.2422C39.8677 53.5117 39.5708 50.625 40.8208 49.3945C39.2895 50.207 37.4809 50.2813 36.0278 49.5586C36.2348 47.9453 36.9536 46.375 38.0434 45.1758C36.5552 46.7344 34.8755 48.1172 33.1059 49.2305C32.4145 49.6602 31.6216 50.0664 30.8598 49.8906C30.4184 49.7891 30.0395 49.3672 29.9263 48.9141C29.2817 50.9805 26.6059 52.1953 24.8794 51.1562C25.5083 51.8555 25.6606 53.0508 25.1255 53.8711C24.4653 54.8438 22.9575 54.9766 22.1567 54.1328C23.7934 55.918 24.563 58.6211 24.1567 61.0508C23.6919 60.9609 23.2466 60.75 22.8442 60.4648C25.3208 63.9648 25.8989 68.9961 23.9341 72.0781C23.4341 71.6445 23.0122 71.1328 22.6372 70.5859C23.1919 72.4805 23.1567 74.2969 21.8598 75.0781C20.1723 76.0508 17.3052 74.4063 15.9731 72.2773C14.6489 70.1602 14.4653 67.75 14.4263 65.4844C13.4106 68.6172 12.1255 71.957 9.09813 72.3828C8.63719 72.4453 8.15282 72.4336 7.67625 72.2188C5.94188 71.4609 5.81297 68.9727 6.1411 67.2734C5.69579 68.4922 5.24266 69.7305 4.27 70.4062C3.30907 71.0547 1.66063 70.8984 0.785629 69.707C0.668442 69.5586 0.578598 69.4023 0.512192 69.2461C0.504379 68.1836 0.645004 67.1563 0.984848 66.293C0.77391 65.9141 0.58641 65.5195 0.426254 65.1211C-0.249527 63.2617 -0.171402 61.0508 1.02 59.8242C1.2661 59.5703 1.57469 59.3867 1.90282 59.2656C1.93407 58.7891 2.0161 58.332 2.17625 57.8984C2.41844 57.2578 2.78953 56.6953 3.23485 56.2344C3.27782 55.2734 3.57079 54.3633 4.2036 53.6992C4.52782 53.3789 4.91063 53.1563 5.31297 53.0117C5.1411 51.8398 5.59422 50.4609 6.64891 50.0781C6.84813 50.0117 7.03954 49.9922 7.24657 49.9766C7.07469 48.7344 7.05907 47.4453 7.15282 46.2266C7.35594 43.6016 7.895 40.707 9.87157 38.9219C11.5239 37.4258 14.3755 37.5195 15.3716 39.1133C14.2153 34.5234 17.3286 28.625 22.1489 26.7773C26.8481 24.9258 32.1997 27.2773 33.6177 31.6875C33.6411 28.4922 36.7661 24.9688 40.1802 24.2383C44.2505 23.3711 48.0708 25.6094 50.1489 28.8633C52.1372 24.8203 56.2114 21.8398 60.2622 21.332C64.3052 20.8242 68.3638 22.7969 70.5044 26.3359C71.227 22.1328 74.2388 18.668 77.9145 17.7188C81.5942 16.8086 85.9809 18.3516 88.7973 21.5781C90.5434 19.1211 93.145 17.1758 96.3911 17.1758C99.6841 17.2344 103.645 19.793 104.36 23.0078C106.012 22.6055 107.758 22.2266 109.551 22.1289C110.012 23.3086 109.86 24.5156 108.829 24.8867C110.567 24.1563 113.235 24.8906 115.09 26.6055C115.145 27.1602 114.915 27.625 114.532 27.9414C115.571 28.0391 116.942 28.9609 117.43 30.082C118.153 31.6914 117.532 33.1836 116.567 34.168Z" fill="#F2F8EC"/>
<path d="M68.6958 14.8281V19.3594L55.313 14.8281H68.6958Z" fill="#4C76BE"/>
<path d="M93.1958 28.3398C86.9771 28.3398 81.9341 24.2734 81.9341 19.2539C81.9341 14.2344 86.9771 10.168 93.1958 10.168C99.4185 10.168 104.458 14.2344 104.458 19.2539C104.458 24.2734 99.4185 28.3398 93.1958 28.3398ZM93.1958 0C80.02 0 69.3364 8.62109 69.3364 19.2539C69.3364 29.8828 80.02 38.5078 93.1958 38.5078C106.372 38.5078 117.055 29.8828 117.055 19.2539C117.055 8.62109 106.372 0 93.1958 0Z" fill="#4C76BE"/>
<path d="M54.2622 24.9297H68.2778C65.2817 32.7891 56.2036 38.5078 45.4771 38.5078C32.3013 38.5078 21.6177 29.8867 21.6177 19.2539C21.6177 8.62109 32.3013 0 45.4771 0C56.77 0 66.2271 6.32812 68.6958 14.8281H55.313C53.3989 12.0469 49.7075 10.168 45.4771 10.168C39.2505 10.168 34.2153 14.2305 34.2153 19.2539C34.2153 24.2656 39.2505 28.3438 45.4771 28.3438C49.0356 28.3438 52.1997 27.0078 54.2622 24.9297Z" fill="#4C76BE"/>
<path d="M119.286 49.7188C119.286 47.8789 121.137 47.3359 123.415 47.3359C125.973 47.3359 128.286 45.5664 130 44.25C131.762 42.8555 132.864 40.9102 132.864 38.7578C132.864 34.5508 128.637 31.1367 123.407 31.1367C118.395 31.1367 114.301 34.2891 114.004 38.2695H119.336C119.622 36.6602 121.333 35.4336 123.407 35.4336C125.7 35.4336 127.543 36.9219 127.543 38.7578C127.543 40.5977 125.7 42.0938 123.407 42.0938C118.192 42.0938 113.965 45.5078 113.965 49.7188V57.7031L119.028 56.1328L132.864 54.6914V49.7188H119.286Z" fill="#4C76BE"/>
<path d="M114.004 42.7968V38.2695C114.004 38.2695 119.836 30.8593 125.594 32.8711C131.352 34.8867 126.532 37.6601 126.532 37.6601C126.532 37.6601 117.571 38.0312 114.004 42.7968Z" fill="#4C76BE"/>
<path d="M93.1958 32.8711C86.9771 32.8711 81.9341 28.8008 81.9341 23.7852C81.9341 18.7656 86.9771 14.6953 93.1958 14.6953C99.4185 14.6953 104.458 18.7656 104.458 23.7852C104.458 28.8008 99.4185 32.8711 93.1958 32.8711ZM93.1958 4.53125C80.02 4.53125 69.3364 13.1523 69.3364 23.7852C69.3364 34.4141 80.02 43.0352 93.1958 43.0352C106.372 43.0352 117.055 34.4141 117.055 23.7852C117.055 13.1523 106.372 4.53125 93.1958 4.53125Z" fill="#5284DB"/>
<path d="M54.2622 29.4609H68.2778C65.2817 37.3203 56.2036 43.0391 45.4771 43.0391C32.3013 43.0391 21.6177 34.418 21.6177 23.7852C21.6177 13.1523 32.3013 4.53125 45.4771 4.53125C56.77 4.53125 66.2271 10.8594 68.6958 19.3594H55.313C53.3989 16.5742 49.7075 14.6953 45.4771 14.6953C39.2505 14.6953 34.2153 18.7617 34.2153 23.7852C34.2153 28.7969 39.2505 32.875 45.4771 32.875C49.0356 32.875 52.1997 31.5352 54.2622 29.4609Z" fill="#5284DB"/>
<path d="M119.286 54.25C119.286 52.4102 121.129 50.9219 123.407 50.9219C125.969 50.9219 128.286 50.0938 130 48.7812C131.762 47.3906 132.864 45.4414 132.864 43.2891C132.864 39.082 128.637 35.668 123.407 35.668C118.395 35.668 114.301 38.8203 114.004 42.7969H119.336C119.622 41.1914 121.333 39.9609 123.407 39.9609C125.7 39.9609 127.543 41.4492 127.543 43.2891C127.543 45.125 125.7 46.6289 123.407 46.6289C118.192 46.6289 113.965 50.043 113.965 54.25V57.7031H132.864V54.25H119.286Z" fill="#5284DB"/>
<path d="M54.2622 29.4609V24.9297H68.2778V29.4609H54.2622Z" fill="#6B96E0"/>
</svg>
