<svg width="320" height="313" viewBox="0 0 320 313" fill="none" xmlns="http://www.w3.org/2000/svg">
<path d="M301.65 102.746C301.65 46 255.603 0 198.802 0C142.006 0 95.9626 46 95.9626 102.746C95.9626 159.492 142.006 205.492 198.802 205.492C255.603 205.492 301.65 159.492 301.65 102.746Z" fill="#5284DB"/>
<path d="M319.263 220.406C318.037 214.211 309.279 208.875 271.256 224.473C271.256 224.473 269.08 215.148 226.537 236.105C225.908 236.414 225.752 237.242 226.228 237.762C226.373 237.918 226.564 238.027 226.771 238.074C231.498 239.133 236.201 240.238 240.908 241.445H240.912C241.427 241.582 241.885 241.875 242.217 242.293L242.263 242.355C244.107 244.672 245.845 247.187 247.033 250.199C247.197 250.559 247.299 250.973 247.427 251.363C247.541 251.766 247.697 252.137 247.767 252.562L248.01 253.82C248.103 254.238 248.092 254.695 248.131 255.129C248.217 256.879 247.982 258.785 247.209 260.473C246.474 262.172 245.365 263.625 244.127 264.805C242.892 265.992 241.533 266.934 240.142 267.695C237.349 269.223 234.455 270.184 231.549 270.879C230.088 271.223 228.631 271.504 227.131 271.699L226.549 271.766L225.947 271.82L224.896 271.906L222.791 272.062C219.986 272.266 217.185 272.469 214.385 272.625C208.779 272.941 203.166 273.199 197.552 273.348C186.326 273.644 175.076 273.629 163.834 272.977C158.217 272.648 152.599 272.152 147.013 271.324C145.619 271.113 144.224 270.926 142.842 270.637C141.451 270.398 140.068 270.09 138.693 269.781C138.002 269.644 137.322 269.441 136.638 269.269C135.959 269.086 135.275 268.914 134.607 268.684C133.935 268.461 133.26 268.266 132.599 268.019L130.642 267.238C136.092 268.578 141.662 268.91 147.217 269.172C148.607 269.242 149.998 269.258 151.388 269.301L155.56 269.336C158.345 269.355 161.127 269.316 163.912 269.277C175.045 269.078 186.181 268.527 197.314 267.871L205.658 267.34L214.002 266.769L222.334 266.144L224.416 265.977L225.451 265.891L225.896 265.848L226.357 265.789C227.627 265.617 228.924 265.391 230.189 265.094C232.72 264.512 235.177 263.676 237.31 262.531C239.459 261.414 241.158 259.891 241.951 258.176C242.369 257.316 242.506 256.367 242.498 255.348C242.474 255.086 242.513 254.84 242.451 254.566L242.322 253.762C242.295 253.492 242.177 253.219 242.111 252.941C242.025 252.668 241.978 252.391 241.861 252.117C241.635 251.496 241.369 250.879 241.068 250.266C239.849 247.769 237.635 245.906 234.97 245.125C231.771 244.18 228.556 243.242 225.349 242.324C220.525 240.941 215.697 239.582 210.857 238.246C208.916 237.977 205.795 237.551 203.845 237.285C182.83 237.223 153.517 235.258 150.611 224.953C150.611 224.953 140.529 203.102 79.3689 212.48C76.0642 212.988 72.8806 213.465 69.822 213.914C16.2478 221.789 17.4939 220.762 17.4939 220.762C7.38452 221.777 -0.236573 230.402 0.00561426 240.551L0.822021 274.785C0.989989 281.781 7.52124 286.902 14.3533 285.359C30.7947 281.641 42.2361 276.848 69.2517 279.172C80.2205 280.113 90.8103 282.301 100.013 286.332C143.142 305.23 151.181 307.828 157.627 310.465C163.498 312.867 182.435 315.125 197.728 304.168C202.088 301.043 206.818 298.461 211.728 296.285L236.924 285.105C246.771 280.734 255.9 274.902 264.01 267.812C278.498 255.137 302.599 234.855 314.424 229.41C317.881 227.816 319.998 224.133 319.263 220.406Z" fill="#E8BD97"/>
<path d="M145.049 116.449H191.006C191.709 116.449 192.205 117.129 191.994 117.797L171.685 182.098C171.349 183.172 172.728 183.937 173.463 183.082L252.924 90.3203C253.498 89.6484 253.021 88.6172 252.138 88.6172H206.181C205.482 88.6172 204.982 87.9375 205.193 87.2695L225.498 22.9687C225.838 21.8945 224.459 21.1328 223.724 21.9844L144.263 114.746C143.689 115.414 144.166 116.449 145.049 116.449Z" fill="white"/>
</svg>
