<svg width="231" height="324" viewBox="0 0 231 324" fill="none" xmlns="http://www.w3.org/2000/svg">
<path d="M107.441 323.836C78.7422 323.836 51.7578 312.648 31.4688 292.336C11.1719 272.02 0 245.012 0 216.281C0 164.27 33.5781 121.492 60.5586 87.1172C78.043 64.8477 94.5547 43.8086 94.5547 29.0195C94.5547 21.8984 100.324 16.1211 107.441 16.1211C114.555 16.1211 120.324 21.8984 120.324 29.0195C120.324 43.8086 136.84 64.8477 154.32 87.1172C181.301 121.492 214.883 164.27 214.883 216.281C214.883 245.012 203.707 272.02 183.414 292.336C163.121 312.648 136.141 323.836 107.441 323.836Z" fill="#D4DEE6"/>
<path d="M170.426 70.9961C152.945 48.7227 136.43 27.6875 136.43 12.8984C136.43 5.77344 130.66 0 123.547 0C116.43 0 110.66 5.77344 110.66 12.8984C110.66 27.6875 94.1484 48.7227 76.6641 70.9961C49.6836 105.371 16.1055 148.148 16.1055 200.156C16.1055 228.887 27.2773 255.895 47.5742 276.211C67.8672 296.527 94.8477 307.715 123.547 307.715C152.246 307.715 179.227 296.527 199.52 276.211C219.812 255.895 230.988 228.887 230.988 200.156C230.988 148.148 197.41 105.371 170.426 70.9961Z" fill="white"/>
<path d="M163.766 174.656C155.238 174.656 149.812 180.09 149.812 190.566C149.812 201.043 155.238 206.48 163.766 206.48C172.297 206.48 177.723 201.043 177.723 190.566C177.723 180.09 172.297 174.656 163.766 174.656Z" fill="#5284DB"/>
<path d="M163.766 219.285C143.223 219.285 131.977 208.031 131.977 190.566C131.977 173.105 143.223 161.852 163.766 161.852C184.316 161.852 195.559 173.105 195.559 190.566C195.559 208.031 184.316 219.285 163.766 219.285ZM130.84 213.598C131.516 213.598 132.02 214.102 132.02 214.777V218.148C132.02 218.824 131.516 219.332 130.84 219.332H111.168C110.492 219.332 109.988 218.824 109.988 218.148V215.285C109.988 207.191 124.473 207.191 124.473 203.145C124.473 201.797 123.293 200.613 121.273 200.613C119.25 200.613 118.242 201.625 117.734 202.469C117.23 203.281 116.727 203.82 115.715 203.82H111.504C110.66 203.82 110.156 203.312 110.156 202.469C110.156 198.762 113.863 195.051 121.273 195.051C128.348 195.051 132.219 198.93 132.219 203.145C132.219 210.563 122.285 211.238 118.914 213.262V213.598H130.84ZM108.137 215.016C108.137 216.57 106.973 217.734 105.422 217.734H93.793C92.2422 217.734 91.0781 216.57 91.0781 215.016V197.551H68.5938V215.016C68.5938 216.57 67.4297 217.734 65.8789 217.734H54.25C52.6953 217.734 51.5352 216.57 51.5352 215.016V166.117C51.5352 164.566 52.6953 163.402 54.25 163.402H65.8789C67.4297 163.402 68.5938 164.566 68.5938 166.117V184.355H91.0781V166.117C91.0781 164.566 92.2422 163.402 93.793 163.402H105.422C106.973 163.402 108.137 164.566 108.137 166.117V215.016ZM123.547 12.8984C123.547 58.168 28.9883 117.434 28.9883 200.156C28.9883 252.438 71.3242 294.816 123.547 294.816C175.77 294.816 218.102 252.438 218.102 200.156C218.102 117.434 123.547 58.168 123.547 12.8984Z" fill="#5284DB"/>
</svg>
